<?xml version="1.0" standalone="no"?>
<!DOCTYPE svg PUBLIC "-//W3C//DTD SVG 1.1//EN" "http://www.w3.org/Graphics/SVG/1.1/DTD/svg11.dtd" >
<svg xmlns="http://www.w3.org/2000/svg" xmlns:xlink="http://www.w3.org/1999/xlink" version="1.1">
<metadata>
Created by FontForge 20201107 at Mon May  6 15:00:53 2024
 By Unknown
</metadata>
<defs>
<font id="TAYLennonRegular" horiz-adv-x="0" >
  <font-face 
    font-family="TAY Lennon"
    font-weight="400"
    font-stretch="normal"
    units-per-em="1000"
    panose-1="0 0 0 0 0 0 0 0 0 0"
    ascent="800"
    descent="-200"
    cap-height="708.604"
    bbox="-39.9984 -118.94 967.991 975.925"
    underline-thickness="0"
    underline-position="0"
    unicode-range="U+000A-20AC"
  />
<missing-glyph horiz-adv-x="527" 
d="M50 700h427v-700h-427v700zM78 680l185 -309l186 309h-371zM251 350l-180 300v-601zM264 329l-185 -308h370zM276 350l181 -303v605z" />
    <glyph glyph-name=".notdef" horiz-adv-x="527" 
d="M50 700h427v-700h-427v700zM78 680l185 -309l186 309h-371zM251 350l-180 300v-601zM264 329l-185 -308h370zM276 350l181 -303v605z" />
    <glyph glyph-name=".null" 
 />
    <glyph glyph-name="controlLF" unicode="&#xa;" 
 />
    <glyph glyph-name="controlCR" unicode="&#xd;" 
 />
    <glyph glyph-name="space" unicode=" " horiz-adv-x="430" 
 />
    <glyph glyph-name="exclam" unicode="!" horiz-adv-x="306" 
d="M214.28 94.7246c5.12305 -2.7334 10.7656 -9.06348 11.5693 -14.4854c3.38867 -21.4346 3.03223 -43.248 -0.74707 -64.6475c-2.33203 -13.1982 -7.58105 -16.6553 -21.2393 -16.9307c-15.3232 -0.310547 -30.6699 -0.0693359 -45.9814 -0.0693359v0.0917969
c-15.3232 0 -30.6699 0.298828 -45.9814 -0.0917969c-12.0039 -0.310547 -18.6895 5.08789 -22.5723 16.2764c-5.45605 15.7139 -4.35352 31.4277 -2.22852 47.3135c0.597656 4.28418 2.58496 8.5918 2.32031 12.7617c-1.19434 18.8154 9.84473 27.5342 25.9033 32.5654
c34.9883 10.9697 67.748 3.7334 98.957 -12.7842zM225.701 484.296c1.11426 -77.248 2.73438 -154.479 4.13574 -231.693c0.103516 -5.9502 0.149414 -11.9121 0 -17.8623c-0.436523 -16.1729 -2.7334 -20.4805 -17.4824 -24.1104
c-24.501 -6.05371 -49.335 -10.2236 -74.8359 -6.77734c-11.7734 1.59668 -23.8916 1.48145 -35.4014 4.08887c-17.8154 4.04297 -20.8477 8.21289 -21.4102 25.8682c-0.458984 14.8643 0 29.751 0 44.626v100.394h-0.137695c0 47.6006 0.5625 95.2012 -0.172852 142.802
c-0.654297 43.0293 -2.79102 86.0352 -4.21582 129.064c-0.195312 5.93848 -0.241211 11.9111 -0.0693359 17.8496c0.700195 24.3975 5.60547 28.9229 29.8994 32.541c32.7139 4.88184 65.2676 5.36426 97.8779 -0.125977
c14.0254 -2.33203 14.623 -2.48145 16.6328 -16.2773c1.92969 -13.1641 3.65234 -26.4658 3.84766 -39.7334c0.769531 -53.54 0.574219 -107.103 1.33203 -160.653z" />
    <glyph glyph-name="quotedbl" unicode="&#x22;" horiz-adv-x="335" 
d="M127.191 711.321c18.0225 -2.60742 21.1465 -8.39746 23.708 -26.7305c4.3877 -31.7266 6.20215 -63.4648 -0.264648 -95.1104c-3.72168 -18.1602 -5.24902 -19.2168 -23.3633 -19.5156c-13.3135 -0.217773 -26.6611 -0.458984 -39.9512 0.298828
c-21.1123 1.20605 -33.8281 14.1631 -34.9883 35.5625c-0.677734 12.6123 -0.103516 25.2588 -0.103516 37.917h0.103516c0 11.1426 -0.608398 22.3311 0.195312 33.4385c0.597656 8.0293 1.71191 16.6104 5.2041 23.6289c2.60742 5.24902 9.21191 11.6357 14.3008 11.8887
c18.333 0.988281 37.0449 1.24121 55.1592 -1.37793zM278.392 684.603c4.3877 -31.7266 6.20215 -63.4658 -0.264648 -95.1113c-3.72168 -18.1602 -5.24902 -19.2168 -23.3633 -19.5156c-13.3135 -0.217773 -26.6611 -0.458984 -39.9512 0.298828
c-21.1123 1.20605 -33.8281 14.1631 -34.9883 35.5625c-0.677734 12.6123 -0.103516 25.2588 -0.103516 37.917h0.103516c0 11.1426 -0.608398 22.3311 0.195312 33.4385c0.597656 8.0293 1.71191 16.6104 5.2041 23.6289c2.60742 5.24902 9.21191 11.6357 14.3008 11.8887
c18.333 0.988281 37.0449 1.24121 55.1592 -1.37793c18.0225 -2.60742 21.1465 -8.39648 23.708 -26.7295z" />
    <glyph glyph-name="numbersign" unicode="#" horiz-adv-x="714" 
d="M637.851 537.591l0.0673828 -0.0117188c6.27148 -4.65234 6.09961 -11.3721 5.30664 -18.4824c-0.424805 -3.7793 -0.52832 -7.57031 -0.735352 -11.3721c-0.838867 -15.542 -3.06738 -30.957 -4.14746 -46.4756c-0.711914 -10.3721 -3.84766 -20.5381 -13.5771 -26.4189
c-11.5674 -6.98438 -26.2588 -6.59375 -38.8486 -6.59375c-7.14453 0 -17.4482 2.57324 -22.4912 -4.2959c-3.16992 -4.33008 -5.60547 -9.82031 -6.88086 -14.9209c-1.24023 -4.99707 -0.711914 -10.0977 -0.941406 -15.1172
c-1.04492 -23.4102 -5.2832 -50.3926 -5.62793 -73.8252c-0.0800781 -5.59375 0.0917969 -11.2227 0.643555 -16.748c0.390625 -3.90527 1.20605 -6.57031 5.45605 -6.39844c11.0615 0.470703 21.9736 0 33.001 -0.137695
c8.5459 -0.103516 18.6201 0.458984 26.9824 -1.34473c0.275391 -0.0576172 0.52832 -0.137695 0.78125 -0.217773c2.41211 -0.838867 3.87109 -2.92969 5.43359 -4.91699c2.05566 -2.61914 3.66406 -4.82422 3.87109 -8.24707
c1.59668 -26.0859 -3.38867 -50.1621 -5.46777 -76.0645c-0.470703 -5.80078 -1.36621 -11.7168 -1.36621 -17.5059c0 -4.05469 0.0234375 -3.29688 -4.08887 -5.42188c-6.2373 -3.22754 -13.8066 -3.85938 -20.5146 -4.16992
c-15.9092 -0.74707 -31.4619 -2.01074 -47.1982 -1.18359c-2.38965 0.125977 -6.18066 0.895508 -8.17969 -1.06836c-2.57324 -2.53906 -2.95215 -8.68457 -3.61816 -11.8896c-2.45801 -11.8545 -2.91699 -23.9268 -3.51465 -35.8613
c-1.18359 -23.6055 -1.7002 -43.5469 -2.92969 -67.1641c-0.631836 -12.1533 -1.44727 -24.3174 -2.65332 -36.4707c-0.74707 -7.58105 -0.677734 -16.2998 -5.99609 -22.376c-1.68848 -1.92969 -3.5498 -2.33203 -6.03125 -2.41211
c-3.31934 -0.115234 -6.62793 0.297852 -9.94727 0.217773c-4.1123 -0.103516 -8.46582 -0.310547 -12.417 -0.333984c-11.6934 -0.0693359 -23.375 0.0224609 -35.0566 0.0800781c-14.875 0.0693359 -37.458 -3.10059 -46.4746 11.0742
c-4.96191 7.81055 -4.54883 18.7002 -3.88281 27.9014c0.700195 9.77539 2.48047 19.6426 3.12402 29.3369c1.41309 20.3779 2.84863 40.7666 4.27344 61.1445c0.827148 11.8428 1.96387 20.4238 2.40039 32.3926c0.0917969 2.65332 0.217773 5.29492 0.539062 7.94824
c0.217773 1.78027 0.700195 3.88281 0 5.54883c-1.7002 4.00879 -8.5918 2.7793 -12.1641 2.6416c-12.624 -0.482422 -80.0625 -0.0800781 -92.6631 -0.0800781c-7.01855 0 -14.0254 0.0917969 -21.0439 -0.0234375
c-4.05469 -0.0693359 -9.26953 1.19434 -13.2207 -0.333008c-5.04297 -1.94141 -4.04395 -7.29395 -4.34277 -11.4404c-0.459961 -6.36328 -1.0918 -12.7383 -1.54004 -19.1133c-2.30859 -33.1045 -4.6748 -62.5566 -6.94922 -95.6611
c-0.895508 -13.0371 -0.114258 -29.0498 -8.47656 -40.5361c-4.8125 -6.61621 -12.3252 -9.64844 -20.0332 -10.4873c-12.8418 -1.37793 -25.7988 -0.34375 -38.584 -0.274414c-13.8877 0.0693359 -27.7871 0 -41.6865 0c-3.33105 0 -4.84766 -0.0458984 -8.16699 -0.298828
c-5.13477 -0.378906 -8.74121 3.22754 -11.0156 7.50098c-2.83691 5.3418 -3.08984 13.0498 -2.6875 18.793c0.448242 6.34082 1.10254 12.6475 1.87207 18.9541c1.53906 12.6699 1.66504 25.2705 3.07812 37.9521c1.53906 13.7725 4.82422 27.5107 5.28418 41.2949
c0.390625 11.4639 0.21875 18.8379 2.48145 30.2441c1.45898 7.30566 4.08984 18.7119 -4.04297 22.583c-4.8125 2.28613 -11.6016 0.861328 -16.9893 0.861328h-18.9414c-6.9375 0 -14.3584 -0.803711 -20.9404 1.16016
c-9.77539 2.90625 -15.7832 12.0156 -16.2998 22.1123c-0.344727 6.76562 0.620117 13.8418 1.10254 20.6533c0.458984 6.53613 0.975586 13.084 1.46973 19.6318c1.30957 17.3906 -1.73438 44.0166 18.9414 52.5508c7.31738 3.02148 15.3008 2.24023 22.8594 2.24023
h18.6426c5.70898 0 13.8535 -2.11328 17.7705 3.23926c3.22754 4.41113 4.18066 10.4189 5.12305 15.5303c1.20605 6.50195 1.87207 13.0498 2.30859 19.5859c1.76855 26.7295 1.57324 57.1582 2.5957 83.876c0.195312 5.05371 -3.35449 4.28418 -7.66211 4.26074
c-2.67676 -0.0117188 -5.35352 0.0341797 -8.03027 0.0341797h-18.0801c-6.36328 0 -12.9795 -0.482422 -19.2402 0.275391c-9.70605 1.17188 -17.0576 7.2832 -19.6074 16.5986c-3.48047 12.6699 -0.0800781 27.166 0.838867 40.3408
c1.18359 16.9658 -2.04395 46.9004 14.7725 58.8467c7.70801 5.47949 17.0811 4.67578 25.708 4.60645c8.4082 -0.0576172 16.8281 -0.126953 25.2363 -0.000976562c2.63086 0.0458984 5.27246 0.310547 7.90332 0.322266
c1.91797 0.0117188 4.97363 -0.987305 6.43262 0.414062c1.30957 1.25195 1.68848 5.29492 1.9873 6.96094c0.436523 2.43555 0.677734 4.89355 0.873047 7.33984c0.895508 11.1074 1.67676 22.2266 2.49219 33.3457c2.43555 33.3691 5.42188 67.002 6.49023 100.359
c0.103516 3.16992 0.207031 5.59375 2.30957 8.25879c1.61914 2.05566 3.36523 4.31836 5.11133 6.25977c2.35449 2.61914 5.11133 1.97559 8.18945 1.87207c3.7334 -0.125977 7.48926 0 11.2344 0c19.918 -0.0458984 39.8125 -0.689453 59.7881 0.183594
c11.5215 0.494141 22.6523 -1.21777 32.3359 -6.91504c0.953125 -0.5625 2.05566 -0.837891 2.97461 -1.44629c1.08008 -0.711914 1.91895 -1.74609 2.73438 -2.73438c1.38965 -1.68848 3.31934 -3.30762 3.85938 -5.53613
c0.620117 -2.5957 -0.344727 -5.47852 -0.597656 -8.13184c-3.80176 -39.916 -5.08789 -80.0166 -7.87891 -119.956c-0.413086 -5.8125 -1.33203 -11.8545 -1.33203 -17.6328c0 -2.05566 -0.378906 -2.58398 1.88379 -3.12402
c1.11426 -0.264648 3.45801 0.160156 4.50293 0.160156c2.88281 0.0341797 5.76562 0 8.64844 0h90.4932h18.4014h8.66016c2.63086 0 6.26074 -0.74707 8.7998 -0.161133c2.6416 0.608398 2.27441 1.99805 2.35449 4.45605
c0.0576172 1.45898 0.161133 2.91797 0.264648 4.38867c0.195312 2.89453 0.390625 5.80078 0.597656 8.69531c0.402344 5.80078 0.804688 11.5898 1.20703 17.3906c1.66602 23.9043 3.35449 47.8193 5.03125 71.7236c0.643555 9.17773 1.33301 18.3672 1.89551 27.5449
c0.356445 5.8584 0.333008 11.9121 3.19336 17.4141c5.84668 11.2686 18.792 12.8994 30.5088 13.7148c7.37402 0.516602 14.8867 1.58496 22.1582 1.02246c16.667 -1.29785 35.6543 2.43555 50.4033 -5.78906c12.2676 -6.83496 17.6553 -18.2871 18.2871 -32.3809
c0.470703 -10.5791 -0.954102 -21.3076 -2.43555 -31.8984c-1.50488 -10.7861 -2.75684 -21.5381 -3.85938 -32.3467c-1.22949 -12.084 -2.32031 -24.1562 -3.37695 -36.2402c-0.540039 -6.21387 -1.08008 -12.4053 -1.86133 -18.5967
c-0.264648 -2.0791 -1.03418 -5.51367 -0.322266 -7.48926c0.873047 -2.43555 4.02051 -1.19531 6.17969 -1.19531c13.1523 0.0234375 26.5801 0.597656 39.709 0c8.79883 -0.402344 19.459 -1.11426 26.7988 -6.57031zM431.72 381.222
c0.792969 11.2803 2.41211 22.8828 2.37793 34.1396c0.0117188 0.482422 -0.0117188 0.941406 -0.0458984 1.37793c-0.930664 12.4629 -14.2783 11.4639 -24.0537 11.4639h-82.2334c-5.44434 0 -12.5771 -1.12598 -17.7236 0.160156
c-3.48047 -2.92871 -6.71973 -6.21387 -10.0508 -9.32715c-20.5723 -19.2178 -13.9561 -72.1943 -15.8174 -98.8438c-0.378906 -5.3418 -2.34277 -13.084 -1.27441 -18.2871c1.4248 -6.9375 14.4971 -5.15723 20.2285 -5.15723h84.1738
c4.83594 0 9.62598 -0.25293 14.4277 -0.517578c7.50098 -0.413086 18.7812 -1.88379 24.7314 4.70996c-0.597656 8.58105 1.18262 18.2871 1.79102 27.0059z" />
    <glyph glyph-name="dollar" unicode="$" horiz-adv-x="832" 
d="M672.262 360.551c64.7393 -36.0449 98.3066 -107.687 89.083 -175.653c-4.14648 -30.5664 -7.65039 -62.6836 -32.4277 -86.3691c-13.75 -13.1406 -28.7979 -25.0752 -43.8105 -36.918c-7.00684 -5.52539 -17.3105 -7.97168 -22.6982 -14.4268
c-26.5342 -31.9443 -65.4629 -39.3301 -103.002 -50.1738c-20.1709 -5.83496 -40.7432 -9.86719 -61.5107 -12.3594c0.884766 -15.5186 1.67773 -31.0488 2.03418 -46.5791c1.06836 -46.625 -7.19043 -56.0674 -43.8447 -56.6875
c-23.6279 -0.402344 -47.2676 -0.459961 -70.8955 0c-42.8916 0.849609 -50.7373 10.9238 -50.7832 65.3594v36.252c-14.6572 0.803711 -29.3027 2.43457 -43.9141 5.94922c-64.7734 15.5762 -129.421 30.8535 -187.877 63.1426
c-9.00586 4.97363 -19.3096 9.47656 -25.4893 16.8857c-4.7666 5.7207 -7.81055 17.1152 -5.11133 23.4443c13.5195 31.4736 34.6777 57.4219 61.6943 78.0869c6.08789 4.66406 14.3467 5.52539 21.5146 2.79199c45.7285 -17.46 87.2305 -33.1162 128.514 -49.2666
c16.6787 -6.52441 33.5986 -11.3604 50.6562 -14.9785c0 61.3164 -0.0234375 122.645 -0.0234375 183.961c-7.63867 0.930664 -15.2891 1.79199 -22.9277 2.73438c-24.5703 3.02148 -49.6455 4.95117 -73.2734 11.4531c-54.8496 15.0703 -103.806 38.4346 -138.69 85.5645
c-48.6123 65.6807 -25.1797 154.726 17.6084 204.578c57.3535 66.8184 132.465 91.9746 216.789 100.371v22.8809c0 13.6582 -0.321289 27.3848 0.597656 40.9619c1.81445 26.7637 11.5322 41.3975 31.7715 42.3623c34.1045 1.6543 68.2773 1.5166 102.37 0.195312
c17.7471 -0.689453 22.3994 -8.28223 23.9502 -31.8994c0.895508 -13.5771 0.413086 -27.3037 0.413086 -40.9619c0 -10.3496 -0.0234375 -20.7109 -0.0234375 -31.0605c63.5908 -6.8457 125.78 -21.2617 186.579 -41.5586
c41.9268 -13.9912 45.5566 -33.8057 26.9824 -82.5439c-1.75781 -4.59473 -3.94043 -9.09766 -6.58203 -13.2441c-21.4346 -33.748 -35.5752 -34.2764 -63.7295 -24.2939c-40.2148 14.2783 -81.8086 26.4775 -123.873 34.1855
c-6.49023 1.19434 -12.9805 2.02148 -19.459 2.91699c-0.0576172 -56.9287 -0.0917969 -113.846 -0.115234 -170.774c4.99707 -0.0234375 9.99414 -0.046875 14.9912 -0.242188c58.376 -2.29688 113.902 -15.8975 164.513 -44.0859zM333.878 416.182
c0 49.8066 0.0126953 99.624 0.0126953 149.431c-14.9902 -4.19238 -29.9004 -9.09766 -44.6035 -15.2314c-25.6035 -10.6943 -48.7607 -26.5801 -46.6016 -58.582c2.19434 -32.2666 21.4805 -53.7471 51.748 -64.5215c12.9336 -4.60645 26.1201 -8.16699 39.4443 -11.0957z
M590.286 151.17c34.7363 33.9316 27.5342 85.4033 -14.8174 109.146c-25.2598 14.1514 -52.8965 22.1572 -82.5664 22.5137c0.0341797 -58.8809 0.0224609 -117.762 0.206055 -176.643c35.7354 5.7207 70.207 18.6318 97.1777 44.9824z" />
    <glyph glyph-name="percent" unicode="%" horiz-adv-x="857" 
d="M692.055 631.334c-78.5693 -105.62 -150.442 -216.824 -219.96 -324.374c-64.0273 -99.0615 -130.226 -201.5 -201.776 -299.758c-5.77832 -7.95996 -15.3701 -12.7266 -25.6279 -12.7266c-3.04395 0 -6.03027 0.424805 -8.9248 1.24023
c-18.0801 5.11133 -33.4951 16.0586 -48.3818 26.6494c-7.09863 5.04297 -14.2207 10.1201 -21.71 14.5996c-7.19043 4.30762 -12.3477 11.292 -14.082 19.1602c-1.68848 7.62695 -0.171875 15.4375 4.27344 21.9854c51.8047 76.2607 102.082 154.324 150.717 229.838
c84.9785 131.994 172.887 268.491 269.961 396.373c5.75488 7.52344 14.6572 11.8535 24.4668 11.8535c6.49023 0 12.7734 -1.91797 18.207 -5.52441c16.748 -11.1768 35.7129 -21.8252 61.4434 -34.5293l3.16992 -1.5625l10.4414 -40.2607zM627.073 321.054
c250.836 -13.0723 195.896 -316.333 -25.5 -323.938c-64.4863 9.53418 -116.234 51.8164 -141.494 112.42c-9.55664 14.4277 -19.0674 37.8721 -12.9678 50.5879c16.0127 83.6465 82.3711 159.574 179.962 160.93zM615.794 105.712
c81.5332 14.1748 101.038 89.1367 15.9902 120.726c-70.8047 -10.6484 -87.1387 -118.256 -15.9902 -120.726zM244.888 716.173c250.836 -13.0723 195.896 -316.333 -25.5 -323.938c-64.4863 9.53418 -116.234 51.8164 -141.494 112.42
c-9.55664 14.4277 -19.0674 37.8721 -12.9678 50.5879c16.0127 83.6465 82.3711 159.574 179.962 160.93zM249.599 621.557c-70.8047 -10.6484 -87.1387 -118.257 -15.9902 -120.727c81.5332 14.1748 101.038 89.1377 15.9902 120.727z" />
    <glyph glyph-name="ampersand" unicode="&#x26;" horiz-adv-x="795" 
d="M710.997 206.77l-0.0722656 0.0126953c10.6201 -2.2002 17.4199 -13.4199 13.5 -23.5303c-8.16992 -20.8701 -16.7998 -41.3506 -25.0596 -61.9805c-17.2197 -42.9502 -47.6494 -72.8105 -91.7891 -89.8701c-11.5098 -4.4502 -21.8301 -11.75 -33.1104 -16.8896
c-12.5596 -5.73047 -25.1895 -13.3604 -38.4795 -15.0908c-18.8096 -2.44043 -37.7197 -4.30078 -56.6602 -5.82031v-2h0.5c0 -25.2002 0.00976562 -50.4199 -0.0205078 -75.6201c0 -2.71973 0.320312 -5.45996 -0.599609 -8.16992
c-1.80957 -5.33008 -11.5293 -8.24023 -31.7695 -8.44043c-34.0996 -0.320312 -68.2793 -0.300781 -102.369 -0.03125c-17.75 0.129883 -22.4004 1.64941 -23.9502 6.35938c-0.900391 2.70996 -0.410156 5.44043 -0.410156 8.1709
c0.0400391 27.0498 0.160156 54.0898 0.129883 81.1396c-40.8096 8.37012 -80.7393 19.79 -119.569 34.7305c-45.5596 17.5303 -68.4297 51.3301 -99.3994 86.0498c-20.5801 23.0801 -26.21 66.79 -27.3496 96.7803c-1.29004 34.1904 10.9404 66.46 31.7402 93.29
c7.9502 10.2598 16.6602 19.9697 24.6104 30.2393c7.07031 9.15039 8.83008 18.4307 -0.620117 28.6104c-9.15039 9.83984 -16.5107 21.2002 -23.7803 32.5098c-8.33984 12.9404 -16.5498 26.1104 -23.1602 39.9199c-14.0996 29.5098 -9.76953 60.2295 -2.75977 90.4395
c3.84961 16.5996 6.94922 34.5996 15.9092 48.5996c21.0098 32.79 47.5693 61.9697 80.1689 84.2393c30.3799 20.7598 66.8096 28.9502 101.93 39.04c13.9697 4.01953 28.0898 6.83984 42.3096 8.88965c0 17.6299 0 35.2695 -0.30957 52.8994
c-0.19043 10.1504 0.509766 19.9307 -0.669922 30.0811c-1.07031 9.29004 1.04004 11.5303 37.6904 11.6602c23.6299 0.0800781 47.2695 0.0898438 70.8994 0c42.8896 -0.179688 50.7295 -2.18945 50.7793 -13.0391
c0.120117 -26.2305 0.0400391 -52.4609 0.0400391 -78.6914h0.509766v-1.46973c7.30957 -0.700195 14.5498 -1.62988 21.7197 -2.97949c40.8301 -7.76953 81.3301 -19.2197 117.84 -40.3994c26.7998 -15.5303 51.3398 -33.29 66.6602 -60.6396
c15.9404 -28.4805 28.4004 -58.3105 38.4805 -89.7109c3.00977 -9.37012 -2.62012 -19.75 -12.25 -21.6797c-3.66992 -0.730469 -7.42969 -0.870117 -11.2295 -0.889648c-24.2695 -0.0703125 -48.6191 0.899414 -72.8096 -0.550781
c-27.7998 -1.66992 -47.75 8.62988 -63.6602 30.4795c-7.44043 10.2402 -17.6602 19.3203 -28.3799 26.4199c-40.75 26.9102 -86.4199 39 -135.4 36.79c-26.2598 -1.16992 -52.4199 -5.36035 -78.5596 -8.74023c-20.3203 -2.62988 -36.8506 -12.6104 -52.0107 -25.8701
c-35.4697 -30.9805 -28.2598 -79.29 6.85059 -106c31.6396 -24.0596 68.0195 -32.0693 106.689 -34.4795c24.8896 -1.55957 49.7793 -3.0293 74.6396 -4.95898c20.3604 -1.55957 33.5 -12.0596 40.5596 -31c6.62012 -17.79 4.87988 -35.0801 -0.129883 -52.5898
c-6.66016 -23.2402 -12.6006 -27.0205 -37.1006 -28.3301c-42.4502 -2.26953 -84.9902 -4.03906 -127.17 -8.80859c-29.6602 -3.34961 -54.8506 -17.6992 -77.3008 -37.8594c-22.29 -20.0498 -18.8301 -70.7598 8.75 -87.29
c23.3701 -13.9902 47.7598 -25.0498 73.6895 -33.1201c35.6904 -11.1201 72.6602 -12 109.11 -7.79004c22.9004 2.65039 45.4404 10.8408 67.3506 18.6006c20.9404 7.38965 34.29 23.9893 44.5 42.7197c8.19043 15.0703 19.6709 24.3906 38.0713 24.6904
c33.75 0.580078 67.46 2.08984 101.19 2.25977c3.65039 0.0195312 7.31055 -0.510742 11.0908 -1.29102z" />
    <glyph glyph-name="quotesingle" unicode="'" horiz-adv-x="207" 
d="M150.9 684.604c4.3877 -31.7266 6.20215 -63.4658 -0.264648 -95.1113c-3.72168 -18.1602 -5.24902 -19.2168 -23.3633 -19.5156c-13.3135 -0.217773 -26.6611 -0.458984 -39.9512 0.298828c-21.1123 1.20605 -33.8281 14.1631 -34.9883 35.5625
c-0.677734 12.6123 -0.103516 25.2588 -0.103516 37.917h0.103516c0 11.1426 -0.608398 22.3311 0.195312 33.4385c0.597656 8.0293 1.71191 16.6104 5.2041 23.6289c2.60742 5.24902 9.21191 11.6357 14.3008 11.8887c18.333 0.988281 37.0449 1.24121 55.1592 -1.37793
c18.0225 -2.60742 21.1465 -8.39648 23.708 -26.7295z" />
    <glyph glyph-name="parenleft" unicode="(" horiz-adv-x="364" 
d="M218.82 323.124c0.275391 -67.4502 11.9668 -132.213 26.957 -196.24c12.4287 -53.2988 28.1885 -112.49 55.2861 -157.461c4.66406 -7.73047 17.4375 -18.4131 15.9785 -29.2217c-0.516602 -3.76758 -2.1709 -6.90332 -4.59473 -9.54492h-118.302
c-7.68457 0 -15.002 3.14746 -19.9873 8.78711c-16.0127 18.1143 -28.3955 48.9678 -35.0234 67.875c-24.834 70.7578 -38.7793 114.178 -49.3818 174.242c-11.1309 62.7178 -16.3232 105.896 -13.6699 151.752c-1.94141 63.8545 -2.98633 118.704 12.3828 176.275
c10.4414 39.1816 16.5068 77.4209 32.5879 117.05c14.9785 36.8613 26.4424 58.7432 41.9385 87.6318c4.7666 8.91406 10.1084 17.1611 15.9092 24.7197c5.82422 2.69922 11.6592 5.36426 17.4834 8.08691c14.8525 6.96094 41.1113 2.25098 57.4453 2.25098h42.6738
c11.8086 0 19.7578 -11.7969 14.7959 -22.1348c-13.083 -27.292 -36.5732 -71.2402 -45.085 -92.4102c-17.0811 -42.4551 -33.4033 -89.2295 -36.6309 -137.175c-0.74707 -10.9014 -1.71191 -21.6992 -2.80273 -32.5312
c-3.92871 -38.8018 -8.15625 -102.656 -7.96094 -141.952z" />
    <glyph glyph-name="parenright" unicode=")" horiz-adv-x="364" 
d="M117.379 126.873c14.9902 64.0273 26.6816 128.802 26.957 196.252c0.195312 39.2959 -4.03223 103.15 -7.96094 141.952c-1.09082 10.832 -2.05566 21.6299 -2.80273 32.5312c-3.22754 47.9453 -19.5498 94.7197 -36.6309 137.175
c-8.51172 21.1699 -32.002 65.1182 -45.085 92.4102c-4.96191 10.3379 2.9873 22.1348 14.7959 22.1348h42.6738c16.334 0 42.5928 4.70996 57.4453 -2.25098c5.82422 -2.72266 11.6592 -5.3877 17.4834 -8.08691c5.80078 -7.55859 11.1426 -15.8057 15.9092 -24.7197
c15.4961 -28.8887 26.96 -50.7705 41.9385 -87.6318c16.0811 -39.6289 22.1465 -77.8682 32.5879 -117.05c15.3691 -57.5713 14.3242 -112.421 12.3828 -176.275c2.65332 -45.8555 -2.53906 -89.0342 -13.6699 -151.764
c-10.6025 -60.0645 -24.5479 -103.484 -49.3818 -174.242c-6.62793 -18.9072 -19.0107 -49.7607 -35.0234 -67.875c-4.98535 -5.63965 -12.3027 -8.78711 -19.9873 -8.78711h-118.302c-2.42383 2.6416 -4.07812 5.77734 -4.59473 9.54492
c-1.45898 10.8086 11.3145 21.4912 15.9785 29.2217c27.0977 44.9707 42.8574 104.162 55.2861 157.461z" />
    <glyph glyph-name="asterisk" unicode="*" horiz-adv-x="399" 
d="M334.655 566.905c7.06445 -6.92676 7.66992 -18.0498 1.4209 -25.8496c-4.31934 -5.41016 -8.56934 -11.0732 -12.7969 -16.7246c-4.82422 -6.4209 -9.62598 -12.8301 -14.4736 -18.8145c-3.6416 -4.46875 -9.09766 -7.01855 -14.9678 -7.01855
c-2.88281 0 -5.78906 0.643555 -8.39648 1.83789c-10.2344 4.74414 -18.3096 10.9238 -26.8672 17.4824c-3.52637 2.69922 -7.17871 5.49023 -11.1533 8.31641c0.0576172 -5.03125 0.0693359 -9.60254 -0.251953 -14.1514
c-0.873047 -11.7393 -2.30859 -26.3271 -3.74414 -37.9863c-2.15918 -17.6318 -15.4727 -19.5732 -26.167 -21.1582c-3.28516 -0.482422 -7.50098 -0.723633 -11.8086 -0.723633c-5.11133 0 -10.3379 0.344727 -14.209 0.999023
c-23.3066 3.98633 -31.4619 7.8457 -31.4619 35.54c0 11.085 -0.0917969 24.1113 -0.195312 35.874c-6.3291 -5.27246 -12.9229 -9.67188 -19.3896 -13.9561c-6.83496 -4.51465 -13.8994 -9.20117 -20.5039 -14.8984c-3.35449 -2.89453 -7.68457 -4.51367 -12.1992 -4.51367
c-4.30762 0 -8.56934 1.45898 -12.0264 4.12402l-5.16895 3.89355c-11.751 8.74121 -23.8926 17.7812 -29.3027 34.6787c-4.6748 14.5078 -0.734375 18.8955 7.88086 26.6953l3.22754 2.96387c10.9697 10.2236 20.377 16.7363 29.4971 23.0312
c4.36523 3.02148 8.79883 6.07715 13.5195 9.62695c-5.74316 4.02051 -11.3721 7.75391 -17.0234 11.5098c-9.60254 6.39844 -19.251 12.7969 -29.543 20.5391c-8.29297 6.24902 -10.3486 17.8965 -4.68555 26.5459c3.90527 5.92676 22.3525 34.4258 22.3525 34.4258
c3.60645 5.49023 9.72852 8.79883 16.3564 8.79883c4.30762 0 8.37402 -1.38965 11.7744 -3.97461c6.66211 -5.08887 13.4736 -9.80957 20.4004 -14.6113c7.73047 -5.37598 15.6104 -10.832 23.5703 -16.9775l0.873047 50.3809c0 20.4805 13.0947 23.7314 17.1152 24.248
c2.25098 0.287109 4.3877 0.458984 6.58203 0.539062c3.06738 0.0917969 21.9863 0.0576172 21.9863 0.0576172c4.28418 0 8.55762 0.0576172 12.8535 0.25293l2.96387 0.0576172c16.4141 0 24.3057 -7.52344 25.5811 -24.3975
c0.505859 -6.55859 0.333984 -14.5303 0.116211 -23.1221c-0.171875 -7.21387 -0.367188 -14.9102 -0.102539 -22.5723l14.4385 12.0381c5.61719 5.18066 11.3486 10.4531 16.8848 15.6797c3.57227 3.42285 8.30469 5.29492 13.3018 5.29492
c5.3877 0 10.6025 -2.24023 14.3018 -6.16895l29.5439 -31.2441c3.60645 -3.8252 5.46777 -8.83301 5.28418 -14.082c-0.207031 -5.31836 -2.49316 -10.2344 -6.44434 -13.8525c-14.9209 -13.623 -37.0557 -27.7637 -48.9219 -34.9893
c7.13281 -5.04297 13.2441 -8.44336 19.1367 -11.7168c9.95898 -5.53613 19.3555 -10.7852 30.8418 -21.9277z" />
    <glyph glyph-name="plus" unicode="+" horiz-adv-x="628" 
d="M560.745 334.23c8.85645 -10.7861 1.38965 -21.3438 0.0576172 -31.877c-6.16797 -32.8525 -58.375 -14.7949 -83.2324 -20.5957c-22.0889 -5.92676 -81.7852 16.748 -85.5762 -12.0029c0.424805 -45.6602 3.72168 -90.8486 0.677734 -135.877
c-1.71191 -21.1699 -5.07715 -24.6621 -27.8438 -25.2139c-23.9609 -0.643555 -49.415 -0.609375 -72.7217 -0.402344c-10.1084 -6.96094 -19.9297 -2.27441 -29.9922 -0.402344c-14.8643 2.76855 -18.4707 5.46777 -19.8027 19.9639
c-4.70996 49.8525 0.987305 99.498 -2.84961 149.04c-0.918945 6.00781 -2.5957 6.62793 -7.17871 5.83496c-32.0938 2.34375 -169.199 -19.4355 -168.521 19.998c-9.52246 192.655 16.0469 111.042 165.306 129.479c5.59375 0.494141 11.6357 1.27539 10.5674 10.8779
c5.11133 34.0127 -19.0107 157.047 20.7334 160.194c188.164 6.7998 115.097 -5.66309 129.846 -158.321c-0.482422 -9.32715 4.04297 -11.877 12.29 -11.6123c44.7979 0.585938 89.6191 4.02051 134.36 0.563477c40.9502 2.43555 18.3555 -73.2734 23.8809 -99.6465z" />
    <glyph glyph-name="comma" unicode="," horiz-adv-x="195" 
d="M145.712 31.1455c1.48145 -11.5791 -1.90234 -22.4092 -9.0127 -30.9785c-15.3809 -18.6426 -31.2441 -37.0215 -48.1641 -54.3086c-12.7158 -12.9912 -28.2578 -10.8203 -40.2725 2.80273c-5.55957 6.31738 -5.96191 13.2207 -4.58398 20.5605
c1.48145 7.8916 4.52539 15.5645 5.3291 23.4902c1.17188 11.4756 1.32129 23.1113 1.19531 34.6436c-0.0693359 7.27148 -1.33301 14.5537 -2.25195 21.8135c-2.74512 21.457 6.91504 32.3008 27.0166 39.4453c8.19043 2.90625 17.0234 4.08984 21.79 5.18066
c8.5 -0.459961 12.9795 -0.276367 17.3096 -1c14.2891 -2.36621 24.6729 -9.05176 26.6367 -24.7422c1.55078 -12.3135 3.43457 -24.6045 5.00781 -36.9072z" />
    <glyph glyph-name="hyphen" unicode="-" horiz-adv-x="553" 
d="M496.59 465.562c0.792969 -34.1045 0.726562 -68.2676 0.0947266 -102.36c-0.321289 -17.7471 -3.95117 -22.3994 -15.2539 -23.9502c-6.50195 -0.895508 -13.0723 -0.413086 -19.6084 -0.413086c-102.186 0.0576172 -204.36 0.609375 -306.523 -0.137695
c-24.3408 -0.183594 -47.8193 0.517578 -72.1709 -0.666016c-22.3076 -1.05664 -27.6719 1.03418 -27.9707 37.6885c-0.195312 23.6279 -0.21875 47.2676 -0.000976562 70.8955c0.413086 42.8916 5.22559 50.7373 31.2773 50.7832
c62.9473 0.125977 125.871 0.0458984 188.818 0.0458984v0.505859c60.4893 0 120.979 0.0117188 181.468 -0.0224609c6.53613 0 13.0947 0.321289 19.5967 -0.597656c12.8076 -1.81445 19.8145 -11.5322 20.2734 -31.7715z" />
    <glyph glyph-name="period" unicode="." horiz-adv-x="238" 
d="M171.103 89.6709c13.7959 -10.625 19.377 -25.1914 16.7354 -42.5596c-0.217773 -1.44727 -0.975586 -2.8252 -1.06738 -4.26074c-2.66504 -39.6641 -30.8076 -55.5391 -62.7871 -52.9775c-24.0762 -1.57324 -43.8789 8.52344 -59.8799 26.2705
c-19.0684 21.1816 -19.5273 43.8447 -4.43359 66.4854c18.2871 27.4414 51.0469 40.8926 84.9902 22.8584c9.07422 -4.82422 18.3555 -9.60254 26.4424 -15.8164z" />
    <glyph glyph-name="slash" unicode="/" horiz-adv-x="423" 
d="M364.143 749.208c3.84766 -0.838867 5.52734 -4.67578 4.17188 -12.4863c-4.82422 -27.2812 -9.24707 -55.1133 -16.4834 -80.373c-2.05566 -7.21387 -4.58301 -13.9912 -6.39746 -21.4922c-2.10254 -8.79883 -3.14746 -18.6318 -5.04297 -27.626
c-3.40039 -16.2539 -8.13281 -31.6348 -11.9922 -47.6016c-4.00879 -16.3682 -7.8916 -32.7363 -11.8779 -49.0361c-8.43164 -34.3223 -16.6562 -68.7705 -24.1689 -103.862c-7.29395 -33.9434 -14.2549 -67.9551 -22.1924 -101.37
c-13.0264 -54.918 -26.0869 -112.995 -37.0107 -169.683c-0.988281 -5.04297 -2.24023 -9.87891 -3.28516 -14.876c-0.436523 -2.37793 -0.976562 -4.68652 -1.36719 -7.06445c-3.5957 -22.1465 -8.94824 -42.6162 -12.7275 -64.498
c-2.24023 -13.0029 -5.2959 -25.167 -8.55859 -37.2285c-1.17188 -6.07617 -2.35547 -12.1523 -3.44629 -18.2744c-1.84961 -10.625 -4.52637 -21.79 -6.44434 -32.3691c-4.56055 -24.9033 -7.40918 -28.5098 -22.9277 -28.6133
c-1.91797 -0.436523 -5.35254 -1.87207 -8.76367 -1.87207c-5.12305 0.0458984 -97.5107 0.0458984 -102.462 2.22852c-6.61621 2.86035 -9.71777 14.6914 -7.40918 26.7412c16.3115 83.9336 33.9434 168.017 50.7715 251.548
c7.32812 36.252 16.3564 71.0801 24.2939 106.873c8.55762 38.7451 16.667 77.835 24.9951 116.798c5.07715 23.7656 10.3037 47.4395 15.3008 71.3203c2.28613 10.8779 22.9854 97.4189 24.4785 102.014c-0.0576172 0 16.2646 72.3086 24.2021 106.126
c1.17188 4.98535 2.52734 9.83301 3.32031 15.0254c1.89551 12.21 6.50195 17.5049 12.7275 18.585c8.0293 1.38965 16.0586 2.41211 25.9141 3.84766c3.94043 -0.735352 96.7764 -1.58496 102.462 -2.90625z" />
    <glyph glyph-name="zero" unicode="0" horiz-adv-x="835" 
d="M424.592 -2.54004c-0.0234375 -0.25293 -0.0449219 -0.507812 -0.0683594 -0.772461c-0.207031 -2.0791 -100.038 5.78906 -109.503 7.87988c-126.365 27.8555 -210.437 141.012 -235.938 260.394c-16.874 78.9941 -3.23926 150.74 4.12402 229.332
c2.92871 31.29 23.6162 52.7129 40.0078 78.1445c19.8262 30.7734 46.0508 57.0781 75.0889 79.6377c1.19434 0.942383 2.46973 1.87305 3.45801 3.0332c34.6553 40.0889 84.2666 49.3125 132.844 58.2266c30.2217 5.52539 61.7754 6.46777 92.6289 5.6748
c33.9658 -0.849609 67.875 -5.49023 101.646 -9.66016c9.72949 -1.19434 19.0342 -6.17969 28.2812 -10.0391c12.8311 -5.36426 25.4209 -11.2451 38.0332 -17.0801c3.45703 -1.59668 7.04102 -3.33105 9.87793 -5.7666c42.6963 -36.7119 93.0195 -68.5186 112.26 -122.908
c30.0723 -84.9902 57.4678 -164.547 43.8672 -256.257c-7.45508 -50.2773 -31.7725 -96.7871 -52.0234 -143.021c-16.4834 -37.6309 -43.5342 -61.1211 -73.5146 -88.5059c-35.2188 -32.1514 -71.7578 -49.5771 -118.67 -61.3047
c-26.9248 -6.75391 -55.0674 -8.15527 -83.0723 -7.0293c-3.10156 0.125977 -6.20312 0.0224609 -9.32715 0.0224609zM433.554 577.859c-43.5693 -3.35449 -82.0713 -4.19336 -119.852 -28.1318c-50.4268 -31.9561 -78.5117 -85.1514 -84.7256 -142.711
c-6.11133 -56.5723 0.114258 -139.403 28.2109 -189.772c14.416 -25.8447 37.665 -46.291 63.7744 -60.96c116.556 -65.5088 250.996 9.25879 277.622 130.513c15.082 68.6904 15.2656 139.529 -22.7666 200.765c-27.832 44.8096 -83.9336 94.7773 -142.264 90.2979z" />
    <glyph glyph-name="one" unicode="1" horiz-adv-x="424" 
d="M58 596.55c4.93945 5.52539 9.48926 11.2012 14.6006 16.2783c26.8789 26.7178 54.1484 53.0684 80.7744 80.0391c13.8525 14.0254 29.543 21.0781 49.668 20.5957c33.5293 -0.78125 67.0703 0.263672 100.6 -0.196289
c29.9805 -0.413086 37.2168 -7.73047 37.2861 -36.7803c0.149414 -62.2812 2.6875 -124.688 -0.701172 -186.797c-4.6748 -85.9551 -1.64258 -171.83 -2.0791 -257.728c-0.241211 -48.083 2.36621 -96.1553 4.1123 -144.238
c0.654297 -17.6895 3.27344 -35.3213 3.66406 -52.999c0.413086 -18.5049 -7.97266 -28.2461 -26.2246 -28.7061c-39.4688 -0.999023 -78.96 -0.5625 -118.451 -0.803711c-12.084 -0.0693359 -20.5264 6.68457 -23.9492 16.7471
c-3.46875 10.2461 -4.21582 21.6758 -4.50293 32.6455c-0.287109 10.9932 2.15918 22.043 2.22852 33.0703c0.367188 68.1963 0.999023 136.416 0.355469 204.624c-0.654297 68.8398 -2.6416 137.668 -4.18066 206.496c-0.321289 14.7256 -4.47949 19.4922 -19.0566 22.5244
c-3.60645 0.769531 -7.4082 0.677734 -11.1299 0.976562c-13.0947 1.03418 -24.3633 5.46777 -33.3457 15.5762c-14.2666 16.0703 -29.0381 31.6924 -43.3965 47.7051c-2.32031 2.61914 -3.58398 6.22559 -6.27148 10.9697z" />
    <glyph glyph-name="two" unicode="2" horiz-adv-x="816" 
d="M355.168 153.909c4.36523 -3.40039 6.42383 -6.30664 8.96289 -6.74316c21.6406 -3.7793 43.2354 -8.43164 65.0605 -10.2461c31.0605 -2.57324 62.3047 -3.69922 93.4678 -4.00977c20.458 -0.207031 40.9277 2.36621 61.4082 3.25098
c11.4297 0.505859 22.9053 0.529297 34.3115 0.0234375c21.2617 -0.953125 42.501 -2.34277 63.7402 -3.80176c16.6787 -1.13672 33.3115 -2.74512 49.9902 -4.03125c9.10938 -0.701172 13.6807 -5.3418 14.2432 -14.0371
c1.96387 -29.8428 7.55762 -59.502 0.240234 -89.5283c-4.19238 -17.2305 -7.43164 -20.0449 -26.0059 -17.1045c-9.70605 1.53906 -19.7109 1.91797 -29.5898 1.89453c-171.681 -0.25293 -343.35 -0.52832 -515.03 -1.18262
c-25.0645 -0.103516 -50.1289 -2.68848 -75.2041 -3.14844c-8.91406 -0.171875 -18.1836 1.68945 -26.7988 4.15918c-9.75195 2.81445 -12.0381 7.27148 -8.19043 16.7939c8.30469 20.4463 16.46 41.0762 26.832 60.5811c11.751 22.1006 24.9951 43.627 39.3301 64.292
c8.76465 12.6357 20.6074 23.3301 31.4277 34.6104c8.19043 8.53418 18.5977 15.5186 25.0879 25.041c16.7129 24.4551 40.3867 41.6396 63.1416 59.9268c48.4512 38.9287 98.6709 76.0195 145.916 116.407c41.6621 35.6201 97.6143 47.0957 111.295 107.619
c1.19434 5.3418 0.976562 11.4873 -0.413086 16.8057c-7.7998 29.8428 -29.1309 46.3838 -58.5254 56.1475c-55.5498 18.4473 -103.3 3.54883 -145.881 -31.1523c-10.0508 -8.19043 -16.6094 -20.7568 -23.5361 -32.0137
c-4.41113 -7.17969 -9.44238 -10.9131 -18.0918 -10.6836c-51.7705 1.36719 -103.575 2.24023 -155.312 4.13574c-17.4482 0.631836 -21.4688 5.49023 -20.6533 22.0654c0.458984 9.31543 1.81445 19.1709 5.57031 27.6484c9.26953 20.8369 18.8379 41.7197 30.6582 61.2471
c16.6787 27.5801 44.4072 43.9023 72.9062 58.0537c74.4229 36.9531 152.98 57.7441 237.488 51.0703c37.125 -2.94043 73.8936 -9.29297 109.342 -20.6299c28.1309 -8.9707 55.8135 -19.2168 83.5195 -29.3252c12.5205 -4.58301 21.1357 -13.7842 28.6943 -24.3057
c36.4014 -50.6445 59.3633 -122.931 36.665 -183.581c-6.2373 -16.6787 -15.7373 -31.8984 -25.168 -46.9922c-20.4238 -32.6797 -48.9336 -52.0234 -78.9824 -75.3643c-25.4775 -19.792 -51.1387 -39.3428 -75.9961 -59.9268
c-47.9805 -39.7324 -94.4209 -79.373 -145.629 -114.971c-2.95215 -2.09082 -5.46777 -4.76758 -10.292 -8.99512z" />
    <glyph glyph-name="three" unicode="3" horiz-adv-x="795" 
d="M82.3652 501.13l-0.0839844 -0.0195312c-9.6377 1.92969 -15.2666 12.3018 -12.2568 21.6748c10.085 31.4043 22.5361 61.2354 38.4795 89.7109c15.3232 27.3496 39.8594 45.1084 66.6582 60.627c36.5166 21.1816 77.0186 32.6455 117.843 40.3994
c31.3584 5.93848 64.291 4.3877 96.5576 5.38672c42.6729 1.32129 85.1855 -0.895508 126.423 -12.75c35.126 -10.085 71.5508 -18.2754 101.934 -39.0322c32.5996 -22.2725 59.1572 -51.4492 80.166 -84.2441c8.95996 -14.002 12.0615 -32.002 15.9092 -48.6006
c7.01855 -30.21 11.3486 -60.9258 -2.75684 -90.4355c-6.60449 -13.8184 -14.8174 -26.9824 -23.1572 -39.9277c-7.27148 -11.3027 -14.6348 -22.6631 -23.7783 -32.5068c-9.45312 -10.1768 -7.69531 -19.458 -0.619141 -28.6133
c7.94922 -10.2695 16.6562 -19.9756 24.6055 -30.2334c20.8027 -26.833 33.0361 -59.0996 31.7383 -93.2959c-1.13672 -29.9922 -6.76562 -73.6992 -27.3496 -96.7764c-30.9678 -34.7246 -53.8379 -68.5186 -99.3945 -86.0469
c-42.708 -16.4375 -86.6797 -28.8086 -131.765 -37.3203c-6.2373 -1.18359 -16.5635 -2.0332 -22.916 -2.10254c-24.2832 -0.25293 -48.624 -1.36719 -72.8262 -0.0576172c-35.8154 1.91797 -71.6768 4.57129 -107.217 9.16602
c-13.29 1.73438 -25.9141 9.36133 -38.4805 15.0928c-11.2803 5.13477 -21.5957 12.4404 -33.1055 16.8857c-44.1436 17.0576 -74.5723 46.9229 -91.791 89.8721c-8.25879 20.6299 -16.8965 41.1104 -25.0635 61.9814c-3.91699 10.1084 2.88281 21.3311 13.4961 23.5254
c3.7793 0.78125 7.44336 1.30957 11.0957 1.29785c33.7246 -0.171875 67.4385 -1.68848 101.187 -2.2627c18.4014 -0.298828 29.877 -9.62598 38.0674 -24.6963c10.2119 -18.7236 23.5596 -35.3223 44.5 -42.708c21.917 -7.75391 44.4541 -15.9551 67.3584 -18.5967
c36.4473 -4.2041 73.4111 -3.33105 109.101 7.78809c25.9375 8.0752 50.3242 19.1367 73.7002 33.1387c27.5801 16.5293 31.0371 67.2314 8.74121 87.2871c-22.4453 20.1592 -47.6357 34.5059 -77.2949 37.8604c-42.1797 4.7666 -84.7266 6.53516 -127.17 8.80957
c-24.501 1.30957 -30.4395 5.08887 -37.1016 28.3262c-5.00781 17.5059 -6.75391 34.8047 -0.125977 52.5859c7.05273 18.9414 20.1934 29.4404 40.5596 31.0029c24.8574 1.92969 49.749 3.40039 74.6406 4.96289c38.6641 2.41211 75.043 10.418 106.688 34.4824
c35.1035 26.707 42.3174 75.0205 6.84668 106c-15.1621 13.2559 -31.6914 23.2383 -52.0117 25.8691c-26.1318 3.37695 -52.2988 7.56934 -78.5576 8.74121c-48.9795 2.20508 -94.6504 -9.87891 -135.394 -36.792c-10.7285 -7.09863 -20.9404 -16.1846 -28.3838 -26.4189
c-15.9092 -21.8477 -35.8613 -32.1514 -63.6592 -30.4854c-24.1914 1.45898 -48.543 0.494141 -72.8145 0.551758c-3.80176 0.0234375 -7.55762 0.161133 -11.2217 0.896484z" />
    <glyph glyph-name="four" unicode="4" horiz-adv-x="754" 
d="M73.0068 456.492c0.241211 48.9336 1.68848 97.9131 4.54883 146.755c1.09082 18.6885 2.97461 36.998 -0.368164 55.6406c-1.50488 8.41992 -1.11426 17.3105 -0.333008 25.9023c1.50488 16.4375 10.1426 25.5234 27.1201 25.96
c35.0117 0.918945 70.0693 0.757812 105.093 0.413086c12.1074 -0.137695 17.6328 -4.93945 19.4473 -16.7598c7.04102 -46.2686 12.417 -92.5713 6.03027 -139.472c-1.83789 -13.4854 -0.803711 -27.3613 -0.849609 -41.042
c-0.0917969 -34.6211 -0.195312 -69.2188 0.0224609 -103.828c0.125977 -19.0332 3.66406 -23.2148 23.3867 -23.4326c43.2246 -0.459961 86.4717 -0.379883 129.708 0.389648c22.9736 0.413086 45.8779 3.10059 68.8398 4.04297
c24.8115 1.02246 50.1631 13.7617 50.9668 46.085c0.413086 16.5068 2.79102 32.9561 2.95215 49.4395c0.540039 58.3867 0.482422 116.785 0.700195 175.207c0.0234375 5.7666 -0.275391 11.625 0.769531 17.2422c3.22754 17.4824 18.1836 29.8535 39.9629 31.8408
c25.0527 2.29688 50.0713 4.91602 75.4229 0.849609c21.0898 -3.38867 36.4131 -13.876 40.4102 -34.4834c2.98633 -15.3809 3.34277 -31.3594 3.53809 -47.0957c0.171875 -12.877 -2.40137 -25.7646 -2.4248 -38.6416
c-0.195312 -114.626 -0.494141 -229.275 0.137695 -343.901c0.275391 -51.8164 2.42383 -103.633 4.12402 -155.427c0.608398 -18.6426 2.6416 -37.2627 3.53711 -55.9053c0.264648 -5.63965 -0.389648 -11.5664 -1.96289 -17
c-2.40039 -8.25879 -7.86816 -13.5537 -17.7236 -13.5537c-39.5146 -0.0341797 -79.0293 -0.275391 -118.544 -0.482422c-11.9688 -0.0693359 -20.4805 5.11133 -22.709 16.6094c-2.0332 10.4648 -4.16992 21.458 -2.92969 31.8418
c4.07812 34.5059 3.49219 68.7705 -0.137695 103.266c-1.79199 17.1611 -0.540039 34.5977 -1.7002 51.8623c-1.66602 24.8115 -11.9121 44.4766 -37.8955 53.2871c-4.14648 1.40137 -8.61523 2.96387 -12.8994 2.88379
c-25.2598 -0.505859 -50.542 -1.43652 -75.8125 -2.34375c-4.43359 -0.149414 -8.86719 -0.953125 -13.3125 -1.09082c-58.0195 -1.7002 -116.062 -3.19336 -174.093 -5.08887c-18.5508 -0.608398 -37.0439 -2.99805 -55.5723 -3.19336
c-14.749 -0.125977 -29.6357 1.0918 -44.2812 3.06738c-20.125 2.71094 -20.2402 3.27344 -20.4121 23.0762c-0.195312 22.3535 -0.0458984 44.6953 -0.0458984 67.0488c0.333008 0.0458984 -2.88281 73.3887 -2.71094 110.031z" />
    <glyph glyph-name="five" unicode="5" horiz-adv-x="810" 
d="M459.892 710.625c28.0166 -0.171875 48.1553 -0.365234 77.6758 0.370117c13.4736 0.356445 29.6934 0.81543 40.6865 0.30957c24.1914 -1.16016 49.3359 1.12598 73.5156 -0.30957c5.88086 -0.356445 14.0479 0.734375 19.8604 -0.000976562
c19.8486 -2.53809 19.0791 -3.68652 23.2715 -24.4316c6.14551 -30.3711 5.83496 -60.834 -1.55078 -90.9639c-3.41113 -13.8994 -5.78906 -15.3467 -19.9297 -15.7031c-6.61621 -0.161133 -13.2666 0.333008 -19.8828 0.149414
c-41.8691 -1.18359 -83.7266 -3.48047 -125.596 -3.48047c-44.8213 -0.0234375 -89.6543 3.14648 -134.476 2.83594c-26.293 -0.195312 -52.54 -4.59473 -78.833 -6.8916c-10.2461 -0.895508 -20.584 -0.918945 -30.8418 -1.82617
c-17.4141 -1.58496 -21.5029 -5.37598 -23.4326 -22.9043c-1.86133 -16.9893 -4.34277 -34.1279 -4.04395 -51.1396c0.516602 -28.9922 16.3916 -42.374 39.0898 -46.3604c13.6807 -2.41211 27.6943 -3.74414 41.5469 -3.88184
c62.5908 -0.643555 125.228 0.217773 187.796 -1.36719c32.9092 -0.827148 65.6689 -5.14648 97.2686 -16.3916c38.0098 -13.4854 65.21 -37.8945 83.9443 -74.3301c26.0059 -50.6221 35.7354 -104.059 31.3594 -160.32
c-3.12402 -40.1924 -13.0947 -77.9268 -44.0742 -106.62c-12.3945 -11.4863 -23.5137 -24.374 -35.9648 -35.7686c-5.33008 -4.87012 -12.2109 -8.67188 -19.0566 -11.0156c-47.1641 -16.2197 -92.8809 -37.7578 -143.802 -40.2041
c-20.4922 -0.988281 -40.9727 -3.50391 -61.4766 -3.81445c-39.7559 -0.574219 -79.5459 0.378906 -119.324 -0.172852c-36.1719 -0.505859 -71.7461 4.68652 -107.366 9.70605c-8.5459 1.20605 -17.0459 4.75586 -24.96 8.52344
c-21.917 10.4756 -43.9717 20.8477 -65.084 32.8516c-12.6699 7.17969 -24.5361 16.415 -35.2646 26.3857c-11.1074 10.3262 -11.3252 16.6787 -3.65234 29.6816c4.50293 7.62695 9.85547 14.9092 15.8174 21.4336c10.5332 11.4863 21.5723 22.5479 32.8408 33.2764
c16.0586 15.2773 19.5156 15.748 38.9512 5.99609c23.7314 -11.9121 47.2676 -24.5361 73.71 -29.0391c19.4697 -3.31934 39.123 -6.70801 58.7881 -7.43164c33.8281 -1.22949 67.748 -0.930664 101.622 -0.310547c47.8994 0.884766 94.8682 8.27051 140.758 22.6982
c37.8486 11.9121 49.9668 55.1709 46.6582 80.3037c-3.34277 25.4434 -16.8516 43.8906 -39.251 56.0205c-21.6064 11.7051 -43.3164 21.0781 -68.8398 20.8135c-27.8438 -0.287109 -55.7217 3.14746 -83.6113 3.79102c-82.3711 1.94141 -164.766 3.19336 -247.125 5.01953
c-11.6934 0.264648 -23.3643 2.11426 -35.0117 3.63086c-9.26953 1.22949 -14.2773 7.27148 -15.2998 16.4609c-0.5625 5.16895 -0.367188 10.4639 -0.367188 15.7021c0.0234375 101.738 -0.0458984 203.511 0.298828 305.237
c0.0458984 10.3037 1.79199 20.8027 4.28418 30.8193c3.67578 14.8066 14.2324 22.1699 29.0615 22.8818c8.08691 0.402344 16.1963 0.287109 24.3057 0.287109c53.0225 0.0234375 106.057 0 159.079 0c0.0917969 -0.125977 97.3154 -0.195312 145.928 -0.505859z" />
    <glyph glyph-name="six" unicode="6" horiz-adv-x="734" 
d="M556.417 711.716c6.22559 -1.97559 8.47949 -9.79785 4.41309 -14.9092c-1.74609 -2.19434 -3.51465 -4.29688 -5.39844 -6.28418c-38.5957 -40.4336 -77.6504 -80.3955 -115.74 -121.276c-10.3496 -11.1074 -19.585 -24.0762 -26.2471 -37.7109
c-11.751 -23.9844 0.275391 -46.4639 26.2012 -51.8398c12.8535 -2.65332 25.9365 -4.13477 38.8594 -6.48926c24.8457 -4.53711 47.1992 -15.5303 68.7715 -28.1885c15.2891 -8.95996 30.7959 -17.7705 44.9131 -28.373c9.69434 -7.28223 23.249 -21.6289 30.3359 -31.4619
c14.9326 -20.6992 26.2588 -43.4199 34.9541 -67.749c14.8408 -41.5586 14.209 -82.9336 -3.25098 -122.632c-14.1865 -32.2432 -31.7959 -63.1084 -49.9219 -93.3418c-7.27148 -12.1533 -18.8389 -22.6406 -30.4863 -31.0029
c-25.1104 -18.0684 -50.7139 -35.7354 -77.6162 -50.8867c-16.3574 -9.21191 -34.3799 -15.1738 -52.9658 -17.7812c-56.0781 -7.8916 -113.535 -6.52441 -168.913 5.65137c-27.7979 6.11133 -54.9873 14.9102 -81.0508 26.3398
c-25.041 10.9697 -51.6094 22.3418 -68.0811 44.959c-4.04297 5.55957 -7.64941 11.4404 -11.0264 17.4365c-22.1807 39.4336 -38.4004 80.4756 -44.7988 125.975c-7.38574 52.4824 2.87207 100.463 25.6387 147.421c19.8486 40.9385 45.4756 76.8916 77.3398 109.181
c23.6738 23.9844 44.4307 50.875 66.8525 76.1689c15.0938 17.0352 30.6816 33.6562 46.2803 50.209c26.707 28.3721 53.6553 56.5146 80.4189 84.8184c12.6924 13.4277 27.4531 21.4453 46.5322 20.8594c19.7803 -0.574219 39.5723 -0.470703 59.3525 0.0458984
c21.9053 0.551758 43.7764 1.97656 65.6699 2.88379c6.36328 0.264648 12.6348 -0.0224609 18.9639 -2.02148zM344.661 127.248c15.0938 2.19434 30.4297 3.41309 45.2705 6.75586c77.1445 17.4365 109.376 83.4619 106.826 137.415
c-2.49219 52.4258 -27.7168 91.9863 -82.084 102.015c-43.1904 7.9834 -85.8291 6.04199 -127.457 -8.68359c-6.5127 -2.29688 -15.5645 -8.24707 -20.2285 -13.3477c-34.874 -38.2051 -58.8125 -81.0625 -56.2051 -135.797
c1.28613 -27.0166 13.6572 -46.7627 35.666 -59.5479c30.0264 -17.46 62.5684 -28.2119 98.2119 -28.8096z" />
    <glyph glyph-name="seven" unicode="7" horiz-adv-x="705" 
d="M129.049 13.8623c6.4668 11.1191 13.4141 23.1582 20.4326 35.1504c3.36523 5.74316 7.11035 11.3027 10.1201 17.207c48.8066 95.6611 97.7979 191.208 146.146 287.1c29.2793 58.0889 58.1455 116.396 80.9922 177.436
c8.69531 23.249 -6.29492 48.7725 -31.543 51.7012c-8.08691 0.942383 -16.3457 0.344727 -24.5127 0.368164c-74.3994 0.125977 -148.787 0.171875 -223.152 0.516602c-8.06348 0.0458984 -16.2188 1.45898 -24.1328 3.14746
c-15.3809 3.2627 -19.4238 7.91504 -20.9512 23.7324c-1.64258 16.8965 -2.92871 33.8047 -4.21484 50.7246c-0.333008 4.41113 -0.287109 8.89062 0 13.3242c2.15918 32.542 8.06348 38.2051 40.3408 38.1133c153.979 -0.390625 307.982 -0.723633 461.974 -1.43555
c22.2041 -0.115234 44.4541 -1.94141 66.6123 -3.65332c5.70898 -0.436523 11.5332 -2.71094 16.7256 -5.30664c5.88086 -2.95215 8.35059 -8.38574 5.92676 -14.9902c-2.80273 -7.62695 -5.37598 -15.3809 -8.91406 -22.6631
c-23.6279 -48.6006 -44.3613 -98.9814 -72.2969 -145.021c-20.125 -33.1738 -33.2656 -69.1045 -51.9658 -102.542c-15.8857 -28.3955 -32.3467 -56.5381 -46.9463 -85.5654c-37.9404 -75.3984 -74.8242 -151.337 -112.501 -226.862
c-12.5439 -25.1562 -26.5352 -49.6113 -39.3545 -74.6299c-8.69531 -16.9893 -21.6865 -24.7432 -41.1104 -24.4561c-42.3975 0.631836 -84.7949 0.0576172 -127.216 0.103516c-7.21387 -0.0458984 -15.2773 -1.76855 -20.458 8.50098z" />
    <glyph glyph-name="eight" unicode="8" horiz-adv-x="814" 
d="M407.85 -3.4248c-11.7627 0 -23.4971 0.310547 -35.2598 -0.0800781c-59.2949 -1.88379 -114.454 13.7041 -168.086 36.5977c-22.3535 9.5459 -42.3633 17.9658 -58.9502 36.5059c-10.7402 12.0039 -19.8262 25.3975 -30.5889 37.3662
c-6.31738 7.03027 -13.2324 13.5889 -18.6084 21.3652c-8.25879 11.958 -9.14355 26.8447 -12.3252 40.6748c-3.99707 17.3906 -7.9834 34.873 -9.25879 52.7119c-2.29688 32.0254 8.83398 61.6387 29.4414 87.4609c8.98242 11.2451 16.8047 23.3867 25.1328 35.126
c6.68555 9.40723 6.07715 18.666 -0.550781 27.8779c-10.9014 15.2197 -21.8711 30.4053 -32.5654 45.7861c-18.3789 26.4658 -25.96 55.3545 -20.4805 87.2529c1.57324 9.13184 1.37793 18.5508 3.16992 27.6367c5.27246 26.7637 13.21 50.4609 33.1162 69.8848
c21.5488 21.0439 32.3691 50.6104 61.3047 63.6826c38.5264 17.4258 76.7773 36.0801 118.577 45.1318c17.7695 3.84766 36.125 6.20215 54.3086 6.8457c33.7822 1.19434 67.6338 0.791992 101.462 0.746094c67.7256 -0.0693359 130.294 -18.9883 188.302 -51.8174
c18.1377 -10.2695 34.2646 -24.1221 46.7051 -41.5586c8.64941 -12.1641 19.5615 -22.7891 29.2559 -34.2646c2.75684 -3.27344 5.73145 -6.7998 7.0752 -10.6826c10.1885 -29.0381 20.8252 -57.9619 20.2852 -89.3779
c-0.608398 -35.6895 -11.8887 -67.1289 -36.6084 -93.8926c-22.6631 -24.5586 -23.7998 -51.7363 -1.98633 -77.5811c26.2705 -31.1064 42.1562 -65.8887 37.6533 -106.311c-2.38965 -21.4805 -4.33105 -45.3154 -12.5781 -65.498
c-8.37402 -20.4922 -24.3984 -36.8037 -37.6543 -54.1367c-7.95996 -10.4072 -15.2197 -21.5264 -25.0527 -30.1758c-17.8965 -15.748 -43.7646 -25.1328 -65.2676 -35.0225c-23.6855 -10.9014 -48.1982 -20.2627 -73.8477 -25.3281
c-25.96 -5.13477 -52.1494 -7.50098 -78.6611 -6.86914c-12.498 0.298828 -24.9961 0.0458984 -37.459 -0.0576172zM407.153 296.759c-12.498 0 -24.9834 -0.115234 -37.4922 0.0341797c-33.1045 0.402344 -63.7744 -7.67285 -92.25 -24.1562
c-28.7861 -16.6787 -39.2734 -44.4072 -28.8662 -75.3408c6.36328 -18.873 19.7793 -32.1289 36.5156 -41.3301c39.2041 -21.5488 82.2334 -30.2217 126.859 -29.1992c20.3428 0.470703 40.8232 4.10059 60.7988 8.27051c31.9678 6.65039 61.0176 18.4932 82.4062 44.9355
c20.6533 25.5117 17.7705 61.5 -5.30664 81.0508c-19.8262 16.7822 -41.4785 29.7627 -68.0469 32.2549c-24.7656 2.35449 -74.5947 3.97461 -74.6182 3.48047zM405.787 421.825c9.5459 0 19.1289 0.228516 28.6748 -0.0585938
c27.0508 -0.792969 52.2295 6.62793 76.708 16.6787c18.5967 7.62695 35.0342 18.4131 44.7402 36.4131c16.0244 29.7158 15.2773 60.3506 -18.792 82.1758c-12.7393 8.16699 -26.6387 15.4385 -41.043 20.2051c-39.124 12.9805 -78.9834 19.2637 -120.898 13.4053
c-33.2656 -4.66406 -64.3369 -13.4287 -93.2148 -30.0381c-24.3408 -14.002 -37.7002 -33.2998 -33.1973 -62.0625c2.0791 -13.21 8.10938 -24.3057 16.6553 -34.3682c17.793 -20.9746 42.6846 -30.7041 68.3115 -36.4932
c23.3408 -5.29492 71.9639 -6.63867 72.0557 -5.85742z" />
    <glyph glyph-name="nine" unicode="9" horiz-adv-x="706" 
d="M122.694 15.0459c4.3418 6.07617 8.62012 13.4199 14.1797 19.5996c31.2783 34.6895 63.0273 68.9082 94.2363 103.633c16.0586 17.8623 31.7959 36.0459 46.8555 54.7461c10.0166 12.4404 13.7959 27.7295 14.3125 43.4434
c0.436523 13.29 -4.14648 19.0332 -16.9424 19.251c-40.0078 0.677734 -73.6299 18.5508 -106.804 37.8711c-9.78711 5.70898 -19.2979 11.8887 -28.7744 18.0566c-17.6436 11.4756 -30.3828 27.3154 -40.457 45.5449c-15.4951 28.0625 -27.0273 57.6289 -31.1162 89.4238
c-4.06641 31.5889 2.62988 62.1094 16.3447 90.4355c12.2793 25.3857 27.4531 49.3926 40.8467 74.2617c13.8525 25.6963 39.709 40.7783 63.1875 56.5498c23.3291 15.668 47.9336 30.4746 74.583 39.7441c25.7188 8.94824 56.0781 9.30469 83.1289 10.4883
c17.5518 0.757812 35.3447 -1.57422 52.9082 -3.65332c16.8281 -1.9873 33.6562 -4.62891 50.1855 -8.35059c40.5137 -9.15527 76.708 -29.085 113.661 -46.9238c5.44434 -2.61914 10.1191 -7.90332 13.7256 -12.9805c32.1279 -45.0625 53.7803 -94.915 60.4541 -149.707
c5.15723 -42.4434 0.895508 -84.7256 -19.4014 -123.758c-13.6807 -26.293 -23.8691 -54.5508 -43.1895 -77.6738c-12.6816 -15.1855 -25.8916 -29.9111 -38.918 -44.7979c-27.4766 -31.3818 -54.9639 -62.7178 -82.4629 -94.0879
c-1.86133 -2.11328 -3.7334 -4.26172 -5.70898 -6.29492c-39.71 -41.3984 -79.7871 -82.4521 -118.969 -124.345c-13.6807 -14.6455 -28.8662 -20.6992 -48.9336 -20.2627c-44.7412 0.999023 -89.5166 0.125977 -134.269 0.34375
c-7.94922 0 -17.5635 -2.95215 -22.6641 9.44238zM353.893 349.843c12.6924 2.18262 33.082 4.51367 52.8281 9.40723c15.0703 3.74512 28.8428 11.3838 40.1914 22.7324c46.4062 46.498 50.8174 114.867 3.5498 164.949
c-36.8721 39.0547 -82.5664 49.1748 -133.992 33.2432c-25.9482 -8.04102 -47.4863 -22.4229 -60.9834 -46.1084c-8.30469 -14.5537 -15.1396 -30.2441 -20.3887 -46.1758c-8.13281 -24.7197 -6.92676 -49.8301 1.74609 -74.5039
c7.53516 -21.5029 20.2627 -38.0664 41.5703 -48.2324c21.5947 -10.3154 44.2119 -14.0713 75.4785 -15.3115z" />
    <glyph glyph-name="colon" unicode=":" horiz-adv-x="229" 
d="M161.891 188.571c4.41113 -31.7266 6.22559 -63.4668 -0.241211 -95.1123c-3.72168 -18.1602 -5.24902 -19.2168 -23.3633 -19.5156c-13.3135 -0.217773 -26.6836 -0.482422 -39.9512 0.275391c-21.1123 1.22949 -33.8516 14.1865 -34.9883 35.5859
c-0.677734 12.5898 -0.137695 25.2598 -0.137695 37.8955h0.115234c0 11.1426 -0.608398 22.3535 0.195312 33.4385c0.620117 8.0293 1.73438 16.5869 5.20312 23.6279c2.60742 5.22656 9.18945 11.6133 14.3008 11.8887c18.333 0.988281 37.0449 1.24121 55.1592 -1.37793
c18.0225 -2.5957 21.1465 -8.38477 23.708 -26.7061zM63.334 486.179c-0.677734 12.6006 -0.114258 25.2812 -0.114258 37.8936h0.115234c0 11.1533 -0.608398 22.3643 0.195312 33.4375c0.620117 8.05176 1.73438 16.6094 5.20312 23.6504
c2.60742 5.23828 9.18945 11.625 14.3008 11.8896c18.333 0.988281 37.0449 1.25293 55.1592 -1.37793c18.0225 -2.5957 21.1465 -8.39648 23.6846 -26.7295c4.41113 -31.7383 6.22559 -63.4648 -0.241211 -95.1104c-3.72168 -18.1602 -5.24902 -19.2051 -23.3633 -19.4922
c-13.3135 -0.217773 -26.6836 -0.482422 -39.9512 0.287109c-21.1123 1.19434 -33.8281 14.1631 -34.9883 35.5518z" />
    <glyph glyph-name="semicolon" unicode=";" horiz-adv-x="238" 
d="M167.119 564.758c4.41113 -31.7725 6.24707 -63.5342 -0.231445 -95.2031c-3.7334 -18.1719 -5.26074 -19.2168 -23.3867 -19.5039c-13.3242 -0.217773 -26.7061 -0.482422 -39.9844 0.287109c-21.1357 1.20605 -33.8516 14.1748 -35.0117 35.5859
c-0.677734 12.6123 -0.115234 25.3047 -0.115234 37.9287h0.115234c0 11.165 -0.608398 22.376 0.195312 33.4609c0.620117 8.06348 1.73438 16.6328 5.20312 23.6738c2.60742 5.23828 9.18945 11.6367 14.3125 11.9014c18.333 0.988281 37.0684 1.25293 55.1943 -1.37793
c18.0342 -2.5957 21.1699 -8.4082 23.709 -26.7529zM167.129 188.072c3.23926 -42.4092 12.0938 -92.8594 -13.292 -129.605c0.631836 0.711914 -15.9209 -35.7471 -25.8682 -44.0869c-12.8535 0.803711 -27.7178 0.631836 -40.3184 1.03418
c-6.99512 0.229492 -12.7842 5.19141 -14.2432 12.0371c-1.48145 6.93848 -2.15918 14.0371 -2.45801 21.124c-0.207031 4.97363 0.25293 10.0508 -0.413086 14.9902c-1.75781 13.0605 -1.26367 26.3965 -2.25195 39.5371
c-1.04492 13.8301 -2.34277 27.6602 -2.28516 41.5479c0.0693359 14.9561 0.838867 30.2568 4.51465 44.8223c2.53906 10.0508 7.07617 22.6865 17.6787 26.7188c27.2002 -1.76855 77.3857 11.958 78.9365 -28.1191z" />
    <glyph glyph-name="less" unicode="&#x3c;" horiz-adv-x="430" 
d="M223.814 341.433c34.1729 -75.3184 94.9033 -139.565 136.049 -212.023c12.3594 -94.6621 -42.4326 -89.252 -115.947 -85.875c-58.0078 78.4893 -51.8623 96.4893 -90.6416 130.789c-29.6357 52.9883 -86.6445 102.037 -90.2744 164.364
c2.14844 60.2939 53.2295 108.504 79.7637 159.907c34.6211 46.7393 65.4053 98.6475 100.83 142.86c16.4492 4.83594 41.3184 0 58.5488 0c14.1748 0 30.8418 2.75684 43.374 -5.39844c23.8008 -17.8164 14.4502 -55.5508 15.0127 -81.3955
c-48.2676 -68.668 -88.9648 -144.147 -136.715 -213.229z" />
    <glyph glyph-name="equal" unicode="=" horiz-adv-x="630" 
d="M107.813 369.207c-70.4941 -6.71973 -33.0361 88.9297 -39.8477 131.201c5.06543 42.5693 85.0938 8.82129 117.325 18.9756c118.13 2.32031 236.846 6.86914 354.872 2.29785c12.3828 -1.44727 21.2617 -5.30664 20.1816 -16.1387
c-6.77734 -41.2949 12.5205 -83.5205 -0.896484 -122.908c-69.7705 -29.3486 -162.342 -2.66504 -239.269 -10.7168c-70.793 -2.48145 -141.7 -1.62012 -212.366 -2.71094zM560.034 257.417c-3.51465 -27.7637 23.0771 -85.082 -18.2861 -91.4912
c-144.331 -5.84668 -289.466 -0.207031 -433.923 -4.26172c-44.9014 -2.42383 -43.4199 23.8115 -41.9609 54.2051c8.93652 36.2979 -22.25 110.41 43.4307 97.5107c143.263 -6.03027 287.513 8.55762 430.879 0.757812c33.001 -1.24023 15.4727 -35.9414 19.8604 -56.7207z
" />
    <glyph glyph-name="greater" unicode="&#x3e;" horiz-adv-x="430" 
d="M287.119 498.594c26.5342 -51.4033 77.626 -99.6113 79.7744 -159.905c-3.62988 -62.3271 -60.6387 -111.376 -90.2744 -164.364c-38.7793 -34.2998 -32.6338 -52.2998 -90.6416 -130.789c-73.5264 -3.38867 -128.307 -8.78711 -115.947 85.875
c41.1455 72.458 101.864 136.703 136.037 212.021c-47.75 69.0928 -88.4473 144.561 -136.715 213.229c0.551758 25.834 -8.78711 63.5684 15.0137 81.3955c12.5439 8.15527 29.1992 5.39844 43.374 5.39844c17.2305 0 42.0879 4.83594 58.5488 0
c35.4248 -44.2012 66.209 -96.1094 100.83 -142.86z" />
    <glyph glyph-name="question" unicode="?" horiz-adv-x="678" 
d="M353.826 97.8037c18.1602 -3.65234 19.2295 -5.12305 19.4941 -22.8926c0.195312 -13.0723 0.459961 -26.1787 -0.30957 -39.2275c-1.19434 -20.7334 -14.1631 -33.2197 -35.5518 -34.3564c-12.5781 -0.666016 -25.2598 -0.125977 -37.8955 -0.125977v0.103516
c-11.1533 0 -22.3418 -0.620117 -33.4375 0.195312c-8.0293 0.597656 -16.5986 1.7002 -23.6289 5.11133c-5.21484 2.53809 -11.624 9.00488 -11.8887 14.0244c-0.988281 18 -1.25293 36.3672 1.37793 54.1602c2.5957 17.7129 8.41992 20.7803 26.7295 23.2725
c31.7383 4.30762 63.4648 6.08789 95.1104 -0.264648zM592.912 598.912c10.9121 -27.9131 21.0762 -55.8271 21.5127 -86.1172c0.516602 -41.3291 -15.5645 -76.4326 -43.5811 -106.447c-27.1201 -29.0498 -58.1914 -53.873 -90.3887 -77.4551
c-24.9492 -18.2871 -50.4961 -36.3555 -67.1523 -62.9355c-8.46582 -13.5195 -16.9434 -27.6367 -21.6875 -42.6152c-11.4062 -36.0801 -35.7119 -44.8213 -70.4824 -42.0068c-22.1465 1.79199 -44.1553 5.03125 -66.1982 7.70801
c-21.6182 2.6416 -25.2246 6.71973 -25.3281 27.6602c-0.183594 34.2764 14.29 63.4639 34.2422 90.2627c25.0645 33.6904 56.5615 61.4307 88.3105 88.9648c22.1123 19.1602 48.2559 34.4033 63.9463 60.1455c0.735352 1.24023 1.91895 2.25098 2.64258 3.51465
c8.30469 14.5537 17.1611 29.1416 13.0947 46.7969c-5.44434 23.6055 -17.5742 42.834 -39.4453 55.5264c-31.8867 18.5049 -66.6689 19.9639 -101.6 14.5303c-28.7402 -4.45703 -48.5088 -23.7432 -65.3594 -45.9355c-9.26953 -12.2334 -18.9072 -24.2021 -28.958 -35.8154
c-12.7041 -14.6338 -29.8535 -18.4248 -48.4502 -16.5176c-20.6299 2.10254 -41.1562 5.08887 -61.7178 7.68457c-23.7197 2.97461 -29.6465 9.86621 -26.5566 33.127c1.33203 9.99316 4.31836 19.8262 7.31641 29.5205c4.91602 15.9893 10.8428 31.6689 15.6445 47.6816
c9.58008 31.8984 31.1064 53.873 59.835 69.9658c43.041 24.0996 89.3896 39.1016 138.254 46.2695c13.8184 2.00977 28.2227 0.297852 42.3633 0.297852c65.9111 -0.0917969 129.64 -11.9346 191.024 -35.6895c38.1357 -14.7607 64.0615 -40.5713 78.7188 -78.1211z" />
    <glyph glyph-name="at" unicode="@" horiz-adv-x="936" 
d="M670.687 499.433c9.95898 -64.165 -9.06348 -131.971 5.3291 -194.757c13.1289 -14.3125 41.0762 -12.498 49.1973 6.5127c-0.229492 -0.711914 -0.5625 -1.41211 -0.873047 -2.08984c16.3223 30.6348 22.4102 65.4971 15.7939 99.7734
c-1.6084 90.7568 -65.4053 182.995 -158.643 202.155c-96.8672 25.7529 -234.524 2.60742 -302.951 -69.6787c-19.1826 -20.3779 -36.4238 -51.668 -51.9082 -77.8809c-28.8428 -82.0264 -28.877 -178.883 16.9209 -250.882
c14.2549 -21.1357 33.9893 -39.917 53.3213 -57.3076c10.6826 -13.8643 40.5938 -19.2402 59.5586 -28.9004c66.1748 -38.251 114.166 -39.8018 201.454 -31.9561c34.3916 7.24805 67.7832 13.3018 100.164 27.0059c22.2041 6.71973 53.4248 26.0977 71.8037 2.87109
c5.11133 -6.59375 7.08691 -14.9795 10.3027 -22.4229c7.4209 -10.8896 14.0947 -25.7305 16.8174 -39.0439c2.1709 -14.9102 -3.6875 -26.3281 -17.9883 -31.6807c-49.8525 -18.6543 -98.1084 -35.6436 -151.35 -39.4229
c-62.5908 -4.03223 -124.32 -2.78027 -186.521 5.82324c-55.584 4.90527 -107.424 22.3994 -154.187 49.9326c-36.0449 28.8203 -82.543 56.7334 -109.95 96.2021c-90.0215 122.139 -91.0898 320.641 7.82227 433.602c3.06738 5.96191 7.65039 11.4297 12.1992 15.7031
c32.3467 48.0723 98.9004 85.542 160.699 99.7744c111.146 43.1211 226.863 35.8496 339.089 2.91699c60.5352 -12.8193 114.167 -47.5088 148.846 -98.498c19.7686 -31.2666 47.0498 -63.6133 47.7158 -101.244c32.082 -94.4092 7.31641 -282.573 -102.646 -306.569
c-24.6621 -13.2441 -69.9658 -16.3682 -102.91 -9.49902c-32.3232 6.75391 -61.1553 24.0762 -94.9033 21.457c-54.9873 -10.7168 -101.152 -18.792 -160.86 -0.964844c-146.353 37.585 -163.491 263.081 -14.7842 310.946c78.96 20.1934 162.985 20.2275 243.783 9.92383
c17.3799 -3.30859 46.1768 1.76855 49.6572 -21.8018zM558.013 368.853c3.79102 35.6201 -16.1035 60.9277 -56.043 71.2432c-5.3877 1.37793 -13.7158 3.02051 -22.8818 3.02051c-14.9668 0 -43.3164 0.390625 -53.4365 -8.01758
c-32.5645 -27.3496 -35 -57.9277 -30.4629 -86.3115l0.310547 -3.44629v-6.63965c-0.103516 -4.57129 -0.103516 -8.31641 0 -12.1182c0.52832 -15.7021 12.543 -27.5684 26.9814 -38.4346c17.7012 -13.1982 37.2061 -19.1484 57.7559 -17.5977
c20.125 1.53906 39.6182 9.49902 56.1934 20.8252c2.75684 1.88379 5.44434 3.87109 8.01758 5.99609c7.38574 6.12207 8.84473 23.0996 9.98145 31.875c1.71191 13.1406 2.14844 26.4307 3.58398 39.6055z" />
    <glyph glyph-name="bracketleft" unicode="[" horiz-adv-x="344" 
d="M79.6328 220.854l-0.0146484 -0.0224609c0.264648 50.4961 2.83789 100.992 2.67676 151.499c-0.161133 49.1406 -3.61816 98.2119 -3.27344 147.295c0.402344 63.4756 2.96387 37.7227 4.04395 101.198c0.631836 38.1357 -0.677734 49.5762 -0.677734 87.7119
c0.0341797 27.5684 6.29492 41.9385 44.1777 41.9385c47.5439 0 104.656 -0.631836 131.432 -0.976562c8.55762 -0.115234 15.2197 -6.88086 15.2197 -15.209v-65.0381c0 -9.74121 -8.10938 -17.6328 -18.1143 -17.6328h-27.7285
c-1.5625 -8.13281 -2.11426 -16.541 -2.06836 -25.1787c0.436523 -80.1543 -1.24023 -87.1152 -3.07812 -167.27c-1.34375 -58.8809 0.758789 -126.939 -1.71094 -193.241c-0.115234 -50.5068 2.69922 -100.899 1.19434 -151.338
c-0.125977 -3.67578 -1.125 -7.33984 -1.52734 -10.9463c0.52832 -5.59375 1.99902 -35.6895 2.27441 -41.2607c0.470703 -9.94727 1.66504 19.8262 3.18164 -25.5928c0.0800781 -2.18262 -0.18457 -4.3877 -0.333984 -6.57031h22.0205
c14.2891 0 25.8682 -11.2686 25.8682 -25.1787v-47.0156c0 -13.6465 -11.2344 -24.7422 -25.2363 -25.167c-31.6113 -0.964844 -48.6572 -2.67676 -92.582 -2.01074c-24.2021 0.390625 -28.3486 -1.74609 -52.2295 2.74512
c-19.0684 3.65234 -21.5146 6.35156 -21.7217 25.7178c-0.402344 38.3545 0.574219 85.5996 0.574219 123.908c0 87.4834 -2.80273 50.1514 -2.36621 137.635z" />
    <glyph glyph-name="backslash" unicode="\" horiz-adv-x="423" 
d="M367.003 -40.293c2.34375 -12.0264 -0.744141 -23.8115 -7.39453 -26.7402c-4.92773 -2.1709 -97.3154 -2.1709 -102.484 -2.22852c-3.42285 0 -6.87988 1.44727 -8.76367 1.89551c-15.5186 0.115234 -18.3672 3.65332 -22.9277 28.6143
c-1.91797 10.5908 -4.61719 21.6982 -6.44336 32.3691c-1.09082 6.12207 -2.2627 12.21 -3.45703 18.2861c-3.25098 12.1182 -6.31836 24.2598 -8.55859 37.2168c-3.76758 21.8936 -9.12012 42.374 -12.7158 64.4971c-0.402344 2.37793 -0.930664 4.68652 -1.36719 7.06445
c-1.05664 4.99707 -2.34277 9.83301 -3.2959 14.876c-10.9014 56.6982 -23.9277 114.775 -37 169.682c-7.9375 33.415 -14.9219 67.416 -22.1934 101.382c-7.5127 35.1035 -15.749 69.5518 -24.1807 103.852c-4.03223 16.3115 -7.92578 32.6689 -11.8662 49.0371
c-3.85938 15.9092 -8.5918 31.29 -12.0146 47.5898c-1.87207 8.99414 -2.94043 18.8379 -5.03125 27.6367c-1.74609 7.55859 -4.35352 14.2783 -6.40918 21.4922c-7.19043 25.2598 -11.6133 53.0918 -16.4375 80.373c-1.36719 7.82227 0.390625 11.624 4.2041 12.4629
c5.65137 1.32129 98.5332 2.1709 102.462 2.90625c9.86719 -1.4248 17.8965 -2.45898 25.9141 -3.84863c6.22559 -1.10254 10.7744 -6.38672 12.6582 -18.5967c0.849609 -5.22656 2.19336 -10.0742 3.3418 -15.0254c7.9834 -33.7705 24.2373 -106.125 24.2373 -106.125
c1.49316 -4.60645 22.1924 -91.1016 24.4785 -102.025c4.99707 -23.8691 10.2119 -47.543 15.3008 -71.3203c8.32812 -38.8945 16.4375 -78.0527 24.9951 -116.798c7.95996 -35.793 16.9766 -70.6436 24.2939 -106.873c16.8164 -83.5771 34.4482 -167.614 50.7705 -251.548
l-0.0917969 -0.137695z" />
    <glyph glyph-name="bracketright" unicode="]" horiz-adv-x="344" 
d="M263.552 220.82c0.436523 -87.4834 -2.35742 -50.1416 -2.35742 -137.625c0 -38.3086 0.976562 -85.5537 0.574219 -123.908c-0.207031 -19.3662 -2.65332 -22.0654 -21.7217 -25.7178c-23.8809 -4.49121 -28.0273 -2.35449 -52.2295 -2.74512
c-43.9248 -0.666016 -60.9707 1.0459 -92.582 2.01074c-14.0137 0.436523 -25.2363 11.5322 -25.2363 25.167v47.0156c0 13.9102 11.5791 25.1787 25.8682 25.1787h22.0205c-0.149414 2.18262 -0.414062 4.3877 -0.333984 6.57031
c1.5166 45.4189 2.71094 15.6455 3.18164 25.5928c0.275391 5.57129 1.74609 35.667 2.27441 41.2607c-0.402344 3.60645 -1.40137 7.27051 -1.52734 10.9463c-1.50488 50.4385 1.30957 100.831 1.19434 151.338c-2.46973 66.3018 -0.367188 134.36 -1.71094 193.241
c-1.83789 80.1543 -3.51465 87.1152 -3.07812 167.27c0.0458984 8.6377 -0.505859 17.0459 -2.06836 25.1787h-27.7061c-10.0049 0 -18.1143 7.8916 -18.1143 17.6328v65.0381c0 8.32812 6.66211 15.1055 15.2197 15.209
c26.7754 0.344727 83.8877 0.976562 131.432 0.976562c37.8604 0 44.1211 -14.3701 44.1553 -41.9385c0 -38.1357 -1.30957 -49.5762 -0.677734 -87.7119c1.08008 -63.4639 3.6416 -37.7217 4.03223 -101.186c0.344727 -49.083 -3.1123 -98.1543 -3.27344 -147.295
c-0.161133 -50.5068 2.41211 -101.003 2.67676 -151.499h-0.0117188z" />
    <glyph glyph-name="underscore" unicode="_" horiz-adv-x="557" 
d="M464.84 -27.1885c9.40723 -3.94043 11.4209 -14.4521 12.5117 -24.25h-0.0693359c-1.01074 -25.1211 0.873047 -27.3721 -5.7666 -32.0127h-375.054c-1.40137 0.321289 -2.88281 0.470703 -4.28418 0.827148c-10.5449 3.6416 -9.13184 2.46973 -12.1758 27.9932
c-0.0458984 16.6904 6.5127 28.4756 27.8662 28.832c55.9746 3.85938 110.916 -3.43457 165.386 0.229492c62.6826 -1.63086 128.949 3.6416 191.586 -1.61914z" />
    <glyph glyph-name="a" unicode="A" horiz-adv-x="860" 
d="M840.632 16.9648c-0.125977 -7.13281 -5.72656 -13.0117 -12.8486 -13.4707c-34.2539 -2.22852 -69.6211 -2.38965 -102.186 -0.655273c-8.0293 0.424805 -16.001 -0.287109 -24.0303 -0.827148c-22.4102 -1.50488 -32.3926 21.7441 -40.5371 40.9385
c-4.47949 10.5791 -10.1426 20.6992 -14.3809 31.3701c-10.0391 25.167 -29.498 39.2148 -56.0781 41.7539c-39.0088 3.70996 -78.2822 7.23633 -117.429 6.99512c-58.8691 -0.356445 -117.75 -3.75684 -176.608 -6.3877
c-36.0107 -1.61914 -65.0381 -17.0918 -74.5723 -51.7354c-16.4492 -59.8574 -63.3154 -66.1865 -120.267 -61.9707c-11.8545 0.873047 -23.7432 0.344727 -35.5977 -0.550781c-20.2969 -1.53906 -36.9756 3.48047 -51.0928 18.8838
c3.12402 7.81055 5.35254 15.1045 8.80957 21.7666c25.374 48.8418 50.002 98.0508 76.7773 146.169c53.0684 95.3174 93.6738 196.159 139.173 294.818c30.5547 66.2324 61.2812 132.396 90.9971 198.973c7.48926 16.7822 21.1699 23.1572 36.9062 23.709
c44.6484 1.61914 89.3779 1.53906 134.073 1.59668c23.3867 0.0458984 34.4824 -16.3115 43.166 -34.001c18.0684 -36.792 35.9307 -73.6992 52.8271 -111.008c22.6865 -50.0703 43.3281 -101.025 66.7266 -150.786c53.9307 -114.729 108.837 -229.046 163.789 -343.305
c6.04199 -12.4629 12.6924 -34.6787 12.3818 -52.2764zM437.729 208.681c0 0.125977 44.8691 -1.50293 66.9463 0.805664c44.3154 4.60645 61.8896 37.332 43.3496 76.1572c-23.1455 48.4736 -45.418 97.3496 -68.4375 145.869
c-3.80176 8.00586 -8.80957 15.8164 -14.7715 22.4102c-18.2988 20.251 -35.1729 20.4004 -57.0664 0.941406c-5.52539 -4.90527 -8.67285 -12.6934 -11.8662 -19.6426c-13.8994 -30.1758 -27.4766 -60.5352 -41.0879 -90.8369
c-10.9697 -24.4551 -22.7666 -48.623 -32.3926 -73.5723c-7.90332 -20.5498 -2.37793 -38.6992 15.9316 -49.2207c11.8887 -6.83496 26.4883 -10.9238 40.3184 -12.3828c19.4697 -2.06738 39.3535 -0.52832 59.0762 -0.52832z" />
    <glyph glyph-name="a" unicode="&#xe5;" horiz-adv-x="860" 
d="M840.632 16.9648c-0.125977 -7.13281 -5.72656 -13.0117 -12.8486 -13.4707c-34.2539 -2.22852 -69.6211 -2.38965 -102.186 -0.655273c-8.0293 0.424805 -16.001 -0.287109 -24.0303 -0.827148c-22.4102 -1.50488 -32.3926 21.7441 -40.5371 40.9385
c-4.47949 10.5791 -10.1426 20.6992 -14.3809 31.3701c-10.0391 25.167 -29.498 39.2148 -56.0781 41.7539c-39.0088 3.70996 -78.2822 7.23633 -117.429 6.99512c-58.8691 -0.356445 -117.75 -3.75684 -176.608 -6.3877
c-36.0107 -1.61914 -65.0381 -17.0918 -74.5723 -51.7354c-16.4492 -59.8574 -63.3154 -66.1865 -120.267 -61.9707c-11.8545 0.873047 -23.7432 0.344727 -35.5977 -0.550781c-20.2969 -1.53906 -36.9756 3.48047 -51.0928 18.8838
c3.12402 7.81055 5.35254 15.1045 8.80957 21.7666c25.374 48.8418 50.002 98.0508 76.7773 146.169c53.0684 95.3174 93.6738 196.159 139.173 294.818c30.5547 66.2324 61.2812 132.396 90.9971 198.973c7.48926 16.7822 21.1699 23.1572 36.9062 23.709
c44.6484 1.61914 89.3779 1.53906 134.073 1.59668c23.3867 0.0458984 34.4824 -16.3115 43.166 -34.001c18.0684 -36.792 35.9307 -73.6992 52.8271 -111.008c22.6865 -50.0703 43.3281 -101.025 66.7266 -150.786c53.9307 -114.729 108.837 -229.046 163.789 -343.305
c6.04199 -12.4629 12.6924 -34.6787 12.3818 -52.2764zM437.729 208.681c0 0.125977 44.8691 -1.50293 66.9463 0.805664c44.3154 4.60645 61.8896 37.332 43.3496 76.1572c-23.1455 48.4736 -45.418 97.3496 -68.4375 145.869
c-3.80176 8.00586 -8.80957 15.8164 -14.7715 22.4102c-18.2988 20.251 -35.1729 20.4004 -57.0664 0.941406c-5.52539 -4.90527 -8.67285 -12.6934 -11.8662 -19.6426c-13.8994 -30.1758 -27.4766 -60.5352 -41.0879 -90.8369
c-10.9697 -24.4551 -22.7666 -48.623 -32.3926 -73.5723c-7.90332 -20.5498 -2.37793 -38.6992 15.9316 -49.2207c11.8887 -6.83496 26.4883 -10.9238 40.3184 -12.3828c19.4697 -2.06738 39.3535 -0.52832 59.0762 -0.52832z" />
    <glyph glyph-name="a" unicode="&#xe4;" horiz-adv-x="860" 
d="M840.632 16.9648c-0.125977 -7.13281 -5.72656 -13.0117 -12.8486 -13.4707c-34.2539 -2.22852 -69.6211 -2.38965 -102.186 -0.655273c-8.0293 0.424805 -16.001 -0.287109 -24.0303 -0.827148c-22.4102 -1.50488 -32.3926 21.7441 -40.5371 40.9385
c-4.47949 10.5791 -10.1426 20.6992 -14.3809 31.3701c-10.0391 25.167 -29.498 39.2148 -56.0781 41.7539c-39.0088 3.70996 -78.2822 7.23633 -117.429 6.99512c-58.8691 -0.356445 -117.75 -3.75684 -176.608 -6.3877
c-36.0107 -1.61914 -65.0381 -17.0918 -74.5723 -51.7354c-16.4492 -59.8574 -63.3154 -66.1865 -120.267 -61.9707c-11.8545 0.873047 -23.7432 0.344727 -35.5977 -0.550781c-20.2969 -1.53906 -36.9756 3.48047 -51.0928 18.8838
c3.12402 7.81055 5.35254 15.1045 8.80957 21.7666c25.374 48.8418 50.002 98.0508 76.7773 146.169c53.0684 95.3174 93.6738 196.159 139.173 294.818c30.5547 66.2324 61.2812 132.396 90.9971 198.973c7.48926 16.7822 21.1699 23.1572 36.9062 23.709
c44.6484 1.61914 89.3779 1.53906 134.073 1.59668c23.3867 0.0458984 34.4824 -16.3115 43.166 -34.001c18.0684 -36.792 35.9307 -73.6992 52.8271 -111.008c22.6865 -50.0703 43.3281 -101.025 66.7266 -150.786c53.9307 -114.729 108.837 -229.046 163.789 -343.305
c6.04199 -12.4629 12.6924 -34.6787 12.3818 -52.2764zM437.729 208.681c0 0.125977 44.8691 -1.50293 66.9463 0.805664c44.3154 4.60645 61.8896 37.332 43.3496 76.1572c-23.1455 48.4736 -45.418 97.3496 -68.4375 145.869
c-3.80176 8.00586 -8.80957 15.8164 -14.7715 22.4102c-18.2988 20.251 -35.1729 20.4004 -57.0664 0.941406c-5.52539 -4.90527 -8.67285 -12.6934 -11.8662 -19.6426c-13.8994 -30.1758 -27.4766 -60.5352 -41.0879 -90.8369
c-10.9697 -24.4551 -22.7666 -48.623 -32.3926 -73.5723c-7.90332 -20.5498 -2.37793 -38.6992 15.9316 -49.2207c11.8887 -6.83496 26.4883 -10.9238 40.3184 -12.3828c19.4697 -2.06738 39.3535 -0.52832 59.0762 -0.52832z" />
    <glyph glyph-name="a" unicode="&#xe2;" horiz-adv-x="860" 
d="M840.632 16.9648c-0.125977 -7.13281 -5.72656 -13.0117 -12.8486 -13.4707c-34.2539 -2.22852 -69.6211 -2.38965 -102.186 -0.655273c-8.0293 0.424805 -16.001 -0.287109 -24.0303 -0.827148c-22.4102 -1.50488 -32.3926 21.7441 -40.5371 40.9385
c-4.47949 10.5791 -10.1426 20.6992 -14.3809 31.3701c-10.0391 25.167 -29.498 39.2148 -56.0781 41.7539c-39.0088 3.70996 -78.2822 7.23633 -117.429 6.99512c-58.8691 -0.356445 -117.75 -3.75684 -176.608 -6.3877
c-36.0107 -1.61914 -65.0381 -17.0918 -74.5723 -51.7354c-16.4492 -59.8574 -63.3154 -66.1865 -120.267 -61.9707c-11.8545 0.873047 -23.7432 0.344727 -35.5977 -0.550781c-20.2969 -1.53906 -36.9756 3.48047 -51.0928 18.8838
c3.12402 7.81055 5.35254 15.1045 8.80957 21.7666c25.374 48.8418 50.002 98.0508 76.7773 146.169c53.0684 95.3174 93.6738 196.159 139.173 294.818c30.5547 66.2324 61.2812 132.396 90.9971 198.973c7.48926 16.7822 21.1699 23.1572 36.9062 23.709
c44.6484 1.61914 89.3779 1.53906 134.073 1.59668c23.3867 0.0458984 34.4824 -16.3115 43.166 -34.001c18.0684 -36.792 35.9307 -73.6992 52.8271 -111.008c22.6865 -50.0703 43.3281 -101.025 66.7266 -150.786c53.9307 -114.729 108.837 -229.046 163.789 -343.305
c6.04199 -12.4629 12.6924 -34.6787 12.3818 -52.2764zM437.729 208.681c0 0.125977 44.8691 -1.50293 66.9463 0.805664c44.3154 4.60645 61.8896 37.332 43.3496 76.1572c-23.1455 48.4736 -45.418 97.3496 -68.4375 145.869
c-3.80176 8.00586 -8.80957 15.8164 -14.7715 22.4102c-18.2988 20.251 -35.1729 20.4004 -57.0664 0.941406c-5.52539 -4.90527 -8.67285 -12.6934 -11.8662 -19.6426c-13.8994 -30.1758 -27.4766 -60.5352 -41.0879 -90.8369
c-10.9697 -24.4551 -22.7666 -48.623 -32.3926 -73.5723c-7.90332 -20.5498 -2.37793 -38.6992 15.9316 -49.2207c11.8887 -6.83496 26.4883 -10.9238 40.3184 -12.3828c19.4697 -2.06738 39.3535 -0.52832 59.0762 -0.52832z" />
    <glyph glyph-name="a" unicode="&#xc5;" horiz-adv-x="860" 
d="M840.632 16.9648c-0.125977 -7.13281 -5.72656 -13.0117 -12.8486 -13.4707c-34.2539 -2.22852 -69.6211 -2.38965 -102.186 -0.655273c-8.0293 0.424805 -16.001 -0.287109 -24.0303 -0.827148c-22.4102 -1.50488 -32.3926 21.7441 -40.5371 40.9385
c-4.47949 10.5791 -10.1426 20.6992 -14.3809 31.3701c-10.0391 25.167 -29.498 39.2148 -56.0781 41.7539c-39.0088 3.70996 -78.2822 7.23633 -117.429 6.99512c-58.8691 -0.356445 -117.75 -3.75684 -176.608 -6.3877
c-36.0107 -1.61914 -65.0381 -17.0918 -74.5723 -51.7354c-16.4492 -59.8574 -63.3154 -66.1865 -120.267 -61.9707c-11.8545 0.873047 -23.7432 0.344727 -35.5977 -0.550781c-20.2969 -1.53906 -36.9756 3.48047 -51.0928 18.8838
c3.12402 7.81055 5.35254 15.1045 8.80957 21.7666c25.374 48.8418 50.002 98.0508 76.7773 146.169c53.0684 95.3174 93.6738 196.159 139.173 294.818c30.5547 66.2324 61.2812 132.396 90.9971 198.973c7.48926 16.7822 21.1699 23.1572 36.9062 23.709
c44.6484 1.61914 89.3779 1.53906 134.073 1.59668c23.3867 0.0458984 34.4824 -16.3115 43.166 -34.001c18.0684 -36.792 35.9307 -73.6992 52.8271 -111.008c22.6865 -50.0703 43.3281 -101.025 66.7266 -150.786c53.9307 -114.729 108.837 -229.046 163.789 -343.305
c6.04199 -12.4629 12.6924 -34.6787 12.3818 -52.2764zM437.729 208.681c0 0.125977 44.8691 -1.50293 66.9463 0.805664c44.3154 4.60645 61.8896 37.332 43.3496 76.1572c-23.1455 48.4736 -45.418 97.3496 -68.4375 145.869
c-3.80176 8.00586 -8.80957 15.8164 -14.7715 22.4102c-18.2988 20.251 -35.1729 20.4004 -57.0664 0.941406c-5.52539 -4.90527 -8.67285 -12.6934 -11.8662 -19.6426c-13.8994 -30.1758 -27.4766 -60.5352 -41.0879 -90.8369
c-10.9697 -24.4551 -22.7666 -48.623 -32.3926 -73.5723c-7.90332 -20.5498 -2.37793 -38.6992 15.9316 -49.2207c11.8887 -6.83496 26.4883 -10.9238 40.3184 -12.3828c19.4697 -2.06738 39.3535 -0.52832 59.0762 -0.52832z" />
    <glyph glyph-name="a" unicode="&#xc4;" horiz-adv-x="860" 
d="M840.632 16.9648c-0.125977 -7.13281 -5.72656 -13.0117 -12.8486 -13.4707c-34.2539 -2.22852 -69.6211 -2.38965 -102.186 -0.655273c-8.0293 0.424805 -16.001 -0.287109 -24.0303 -0.827148c-22.4102 -1.50488 -32.3926 21.7441 -40.5371 40.9385
c-4.47949 10.5791 -10.1426 20.6992 -14.3809 31.3701c-10.0391 25.167 -29.498 39.2148 -56.0781 41.7539c-39.0088 3.70996 -78.2822 7.23633 -117.429 6.99512c-58.8691 -0.356445 -117.75 -3.75684 -176.608 -6.3877
c-36.0107 -1.61914 -65.0381 -17.0918 -74.5723 -51.7354c-16.4492 -59.8574 -63.3154 -66.1865 -120.267 -61.9707c-11.8545 0.873047 -23.7432 0.344727 -35.5977 -0.550781c-20.2969 -1.53906 -36.9756 3.48047 -51.0928 18.8838
c3.12402 7.81055 5.35254 15.1045 8.80957 21.7666c25.374 48.8418 50.002 98.0508 76.7773 146.169c53.0684 95.3174 93.6738 196.159 139.173 294.818c30.5547 66.2324 61.2812 132.396 90.9971 198.973c7.48926 16.7822 21.1699 23.1572 36.9062 23.709
c44.6484 1.61914 89.3779 1.53906 134.073 1.59668c23.3867 0.0458984 34.4824 -16.3115 43.166 -34.001c18.0684 -36.792 35.9307 -73.6992 52.8271 -111.008c22.6865 -50.0703 43.3281 -101.025 66.7266 -150.786c53.9307 -114.729 108.837 -229.046 163.789 -343.305
c6.04199 -12.4629 12.6924 -34.6787 12.3818 -52.2764zM437.729 208.681c0 0.125977 44.8691 -1.50293 66.9463 0.805664c44.3154 4.60645 61.8896 37.332 43.3496 76.1572c-23.1455 48.4736 -45.418 97.3496 -68.4375 145.869
c-3.80176 8.00586 -8.80957 15.8164 -14.7715 22.4102c-18.2988 20.251 -35.1729 20.4004 -57.0664 0.941406c-5.52539 -4.90527 -8.67285 -12.6934 -11.8662 -19.6426c-13.8994 -30.1758 -27.4766 -60.5352 -41.0879 -90.8369
c-10.9697 -24.4551 -22.7666 -48.623 -32.3926 -73.5723c-7.90332 -20.5498 -2.37793 -38.6992 15.9316 -49.2207c11.8887 -6.83496 26.4883 -10.9238 40.3184 -12.3828c19.4697 -2.06738 39.3535 -0.52832 59.0762 -0.52832z" />
    <glyph glyph-name="a" unicode="&#xc2;" horiz-adv-x="860" 
d="M840.632 16.9648c-0.125977 -7.13281 -5.72656 -13.0117 -12.8486 -13.4707c-34.2539 -2.22852 -69.6211 -2.38965 -102.186 -0.655273c-8.0293 0.424805 -16.001 -0.287109 -24.0303 -0.827148c-22.4102 -1.50488 -32.3926 21.7441 -40.5371 40.9385
c-4.47949 10.5791 -10.1426 20.6992 -14.3809 31.3701c-10.0391 25.167 -29.498 39.2148 -56.0781 41.7539c-39.0088 3.70996 -78.2822 7.23633 -117.429 6.99512c-58.8691 -0.356445 -117.75 -3.75684 -176.608 -6.3877
c-36.0107 -1.61914 -65.0381 -17.0918 -74.5723 -51.7354c-16.4492 -59.8574 -63.3154 -66.1865 -120.267 -61.9707c-11.8545 0.873047 -23.7432 0.344727 -35.5977 -0.550781c-20.2969 -1.53906 -36.9756 3.48047 -51.0928 18.8838
c3.12402 7.81055 5.35254 15.1045 8.80957 21.7666c25.374 48.8418 50.002 98.0508 76.7773 146.169c53.0684 95.3174 93.6738 196.159 139.173 294.818c30.5547 66.2324 61.2812 132.396 90.9971 198.973c7.48926 16.7822 21.1699 23.1572 36.9062 23.709
c44.6484 1.61914 89.3779 1.53906 134.073 1.59668c23.3867 0.0458984 34.4824 -16.3115 43.166 -34.001c18.0684 -36.792 35.9307 -73.6992 52.8271 -111.008c22.6865 -50.0703 43.3281 -101.025 66.7266 -150.786c53.9307 -114.729 108.837 -229.046 163.789 -343.305
c6.04199 -12.4629 12.6924 -34.6787 12.3818 -52.2764zM437.729 208.681c0 0.125977 44.8691 -1.50293 66.9463 0.805664c44.3154 4.60645 61.8896 37.332 43.3496 76.1572c-23.1455 48.4736 -45.418 97.3496 -68.4375 145.869
c-3.80176 8.00586 -8.80957 15.8164 -14.7715 22.4102c-18.2988 20.251 -35.1729 20.4004 -57.0664 0.941406c-5.52539 -4.90527 -8.67285 -12.6934 -11.8662 -19.6426c-13.8994 -30.1758 -27.4766 -60.5352 -41.0879 -90.8369
c-10.9697 -24.4551 -22.7666 -48.623 -32.3926 -73.5723c-7.90332 -20.5498 -2.37793 -38.6992 15.9316 -49.2207c11.8887 -6.83496 26.4883 -10.9238 40.3184 -12.3828c19.4697 -2.06738 39.3535 -0.52832 59.0762 -0.52832z" />
    <glyph glyph-name="a" unicode="a" horiz-adv-x="860" 
d="M840.632 16.9648c-0.125977 -7.13281 -5.72656 -13.0117 -12.8486 -13.4707c-34.2539 -2.22852 -69.6211 -2.38965 -102.186 -0.655273c-8.0293 0.424805 -16.001 -0.287109 -24.0303 -0.827148c-22.4102 -1.50488 -32.3926 21.7441 -40.5371 40.9385
c-4.47949 10.5791 -10.1426 20.6992 -14.3809 31.3701c-10.0391 25.167 -29.498 39.2148 -56.0781 41.7539c-39.0088 3.70996 -78.2822 7.23633 -117.429 6.99512c-58.8691 -0.356445 -117.75 -3.75684 -176.608 -6.3877
c-36.0107 -1.61914 -65.0381 -17.0918 -74.5723 -51.7354c-16.4492 -59.8574 -63.3154 -66.1865 -120.267 -61.9707c-11.8545 0.873047 -23.7432 0.344727 -35.5977 -0.550781c-20.2969 -1.53906 -36.9756 3.48047 -51.0928 18.8838
c3.12402 7.81055 5.35254 15.1045 8.80957 21.7666c25.374 48.8418 50.002 98.0508 76.7773 146.169c53.0684 95.3174 93.6738 196.159 139.173 294.818c30.5547 66.2324 61.2812 132.396 90.9971 198.973c7.48926 16.7822 21.1699 23.1572 36.9062 23.709
c44.6484 1.61914 89.3779 1.53906 134.073 1.59668c23.3867 0.0458984 34.4824 -16.3115 43.166 -34.001c18.0684 -36.792 35.9307 -73.6992 52.8271 -111.008c22.6865 -50.0703 43.3281 -101.025 66.7266 -150.786c53.9307 -114.729 108.837 -229.046 163.789 -343.305
c6.04199 -12.4629 12.6924 -34.6787 12.3818 -52.2764zM437.729 208.681c0 0.125977 44.8691 -1.50293 66.9463 0.805664c44.3154 4.60645 61.8896 37.332 43.3496 76.1572c-23.1455 48.4736 -45.418 97.3496 -68.4375 145.869
c-3.80176 8.00586 -8.80957 15.8164 -14.7715 22.4102c-18.2988 20.251 -35.1729 20.4004 -57.0664 0.941406c-5.52539 -4.90527 -8.67285 -12.6934 -11.8662 -19.6426c-13.8994 -30.1758 -27.4766 -60.5352 -41.0879 -90.8369
c-10.9697 -24.4551 -22.7666 -48.623 -32.3926 -73.5723c-7.90332 -20.5498 -2.37793 -38.6992 15.9316 -49.2207c11.8887 -6.83496 26.4883 -10.9238 40.3184 -12.3828c19.4697 -2.06738 39.3535 -0.52832 59.0762 -0.52832z" />
    <glyph glyph-name="b" unicode="B" horiz-adv-x="789" 
d="M100.581 8.75195c-10.4189 4.96191 -17.0674 15.4727 -17.5264 26.9941c-1.83789 46.5557 -4.49121 94.9951 -4.70898 143.458c-0.677734 154.117 -0.149414 308.258 -0.103516 462.41c0 8.99414 -0.631836 18.0576 0.287109 26.9717
c1.79199 17.6318 17.1152 33.2197 34.9424 36.5391c2.56152 0.470703 5.24902 0.424805 7.86816 0.516602c69.4023 2.37793 139.368 5.74316 208.519 2.6875c80.5908 -3.5498 161.676 -2.42383 240.107 -26.3965c29.8652 -9.13184 71.0225 -36.1719 91.6182 -59.4668
c15.7715 -17.8271 31.3701 -36.0107 42.8916 -56.2275c22.5488 -39.583 8.19043 -138.231 -21.0664 -175.288c-7.8457 -9.93555 -14.7266 -20.584 -22.8818 -32.0479c8.21289 -11.9688 14.5303 -23.1572 22.7314 -32.7949
c66.3242 -77.9492 63.3145 -161.813 19.9746 -247.344c-21.1816 -41.8115 -58.5713 -63.9004 -107.091 -67.4727c-58.709 -4.31934 -117.763 -6.63965 -176.494 -8.23633c-59.9609 -1.62012 -119.934 -1.22949 -179.917 -0.379883
c-34.1504 0.482422 -68.3008 0.333008 -102.462 0.448242c-11.958 0.0117188 -23.9844 -0.413086 -36.6885 5.62891zM243.215 533.167c-0.494141 -29.0615 -0.217773 -58.1338 -0.148438 -89.8252c0.0234375 -8.00586 5.50293 -14.9902 13.2793 -16.8975
c9.90137 -2.43555 19.3086 -4.79004 28.7617 -5.03125c48.6006 -1.21777 97.2695 -2.14844 145.858 -0.770508c25.8906 0.735352 51.9307 5.12305 77.3623 10.3496c12.1992 2.50391 25.3281 8.52246 34.3105 16.793c42.3398 39.0898 21.8359 99.2002 -14.9902 117.797
c-18 9.08594 -39.3994 14.416 -59.708 15.9551c-46.9805 3.5957 -94.2139 4.38867 -141.378 5.18164c-14.1973 0.229492 -28.6934 -2.29785 -42.6953 -5.22656c-27.1895 -5.7207 -40.1699 -21.1475 -40.6523 -48.3252zM372.683 117.566
c2.7334 -0.298828 5.41016 -0.297852 8.14355 -0.0449219c8.68359 0.81543 34.8271 1.42383 48.6914 3.33105c32.1748 4.41113 64.7969 8.56934 95.708 17.7812c31.7949 9.46484 46.6357 32.3809 48.1631 67.6455c1.4248 32.7256 -18.665 58.9502 -51.9424 67.542
c-28.8086 7.43164 -58.7432 14.1172 -88.2754 14.542c-49.4043 0.700195 -98.9463 -3.15918 -148.351 -6.31836c-24.4209 -1.5625 -39.6748 -23.0312 -40.1455 -48.6123c-0.448242 -23.8008 -0.47168 -42.9375 0.711914 -63.9697
c2.2168 -39.6289 16.6328 -37.8604 43.4541 -42.1904c27.7178 -4.47949 55.8486 -6.69629 83.8418 -9.70605z" />
    <glyph glyph-name="b" unicode="b" horiz-adv-x="789" 
d="M100.581 8.75195c-10.4189 4.96191 -17.0674 15.4727 -17.5264 26.9941c-1.83789 46.5557 -4.49121 94.9951 -4.70898 143.458c-0.677734 154.117 -0.149414 308.258 -0.103516 462.41c0 8.99414 -0.631836 18.0576 0.287109 26.9717
c1.79199 17.6318 17.1152 33.2197 34.9424 36.5391c2.56152 0.470703 5.24902 0.424805 7.86816 0.516602c69.4023 2.37793 139.368 5.74316 208.519 2.6875c80.5908 -3.5498 161.676 -2.42383 240.107 -26.3965c29.8652 -9.13184 71.0225 -36.1719 91.6182 -59.4668
c15.7715 -17.8271 31.3701 -36.0107 42.8916 -56.2275c22.5488 -39.583 8.19043 -138.231 -21.0664 -175.288c-7.8457 -9.93555 -14.7266 -20.584 -22.8818 -32.0479c8.21289 -11.9688 14.5303 -23.1572 22.7314 -32.7949
c66.3242 -77.9492 63.3145 -161.813 19.9746 -247.344c-21.1816 -41.8115 -58.5713 -63.9004 -107.091 -67.4727c-58.709 -4.31934 -117.763 -6.63965 -176.494 -8.23633c-59.9609 -1.62012 -119.934 -1.22949 -179.917 -0.379883
c-34.1504 0.482422 -68.3008 0.333008 -102.462 0.448242c-11.958 0.0117188 -23.9844 -0.413086 -36.6885 5.62891zM243.215 533.167c-0.494141 -29.0615 -0.217773 -58.1338 -0.148438 -89.8252c0.0234375 -8.00586 5.50293 -14.9902 13.2793 -16.8975
c9.90137 -2.43555 19.3086 -4.79004 28.7617 -5.03125c48.6006 -1.21777 97.2695 -2.14844 145.858 -0.770508c25.8906 0.735352 51.9307 5.12305 77.3623 10.3496c12.1992 2.50391 25.3281 8.52246 34.3105 16.793c42.3398 39.0898 21.8359 99.2002 -14.9902 117.797
c-18 9.08594 -39.3994 14.416 -59.708 15.9551c-46.9805 3.5957 -94.2139 4.38867 -141.378 5.18164c-14.1973 0.229492 -28.6934 -2.29785 -42.6953 -5.22656c-27.1895 -5.7207 -40.1699 -21.1475 -40.6523 -48.3252zM372.683 117.566
c2.7334 -0.298828 5.41016 -0.297852 8.14355 -0.0449219c8.68359 0.81543 34.8271 1.42383 48.6914 3.33105c32.1748 4.41113 64.7969 8.56934 95.708 17.7812c31.7949 9.46484 46.6357 32.3809 48.1631 67.6455c1.4248 32.7256 -18.665 58.9502 -51.9424 67.542
c-28.8086 7.43164 -58.7432 14.1172 -88.2754 14.542c-49.4043 0.700195 -98.9463 -3.15918 -148.351 -6.31836c-24.4209 -1.5625 -39.6748 -23.0312 -40.1455 -48.6123c-0.448242 -23.8008 -0.47168 -42.9375 0.711914 -63.9697
c2.2168 -39.6289 16.6328 -37.8604 43.4541 -42.1904c27.7178 -4.47949 55.8486 -6.69629 83.8418 -9.70605z" />
    <glyph glyph-name="c" unicode="C" horiz-adv-x="787" 
d="M657.869 504.726c-8.74121 -4.21582 -19.2021 -3.33398 -27.0586 2.3291c-12.0498 8.68359 -23.0537 16.7354 -34.5977 23.9033c-59.708 36.9873 -122.207 52.0576 -193.977 44.1084c-99.6133 -11.0615 -153.785 -74.0322 -182.789 -159.16
c-28.0625 -82.3604 1.2627 -201.719 97.751 -254.925c33.8281 -18.6543 73.9512 -34.5635 113.385 -31.1406c59.7422 5.19238 138.07 12.2451 183.351 55.6074c7.55859 7.23633 16.7598 12.8076 25.3975 18.8379c14.4619 10.1084 32.5762 11.2568 44.6484 1.9873
c23.5361 -18.0684 53.4365 -30.6348 64.6016 -65.2559c-23.7314 -57.9043 -69.54 -93.6055 -126.342 -115.614c-26.6494 -10.3262 -54.0225 -19.4463 -82.418 -23.7305c-80.2119 -12.1182 -164.042 -10.6475 -243.036 8.13379
c-43.9365 10.4531 -85.5186 22.8701 -115.82 57.4111c-19.4355 22.1465 -43.5234 38.9971 -62.4648 61.2012c-19.7568 23.1689 -32.9893 50.9092 -44.0049 78.9482c-29.957 76.249 -30.8643 154.934 -20.5381 236.214c6.39844 50.4385 26.2012 92.5029 52.9766 131.546
c16.001 23.3525 42.6504 38.8711 63.4414 59.0645c35.0342 34.0811 79.7637 49.9326 122.333 69.9307c4.6748 2.20508 9.83203 4.37598 14.8633 4.64062c57.5371 3.05566 115.258 9.87891 172.576 7.2373c47.5547 -2.1709 97.1426 -4.69824 140.344 -30.7842
c34.793 -20.998 70.3906 -41.1113 102.76 -65.6006c26.9023 -20.3662 25.0303 -47.9463 -0.630859 -71.4248c-11.6475 -10.6709 -24.3057 -20.4805 -37.5273 -29.0146c-8.32812 -5.35254 -17.2988 -9.64844 -27.2236 -14.4502z" />
    <glyph glyph-name="c" unicode="&#xe7;" horiz-adv-x="787" 
d="M657.869 504.726c-8.74121 -4.21582 -19.2021 -3.33398 -27.0586 2.3291c-12.0498 8.68359 -23.0537 16.7354 -34.5977 23.9033c-59.708 36.9873 -122.207 52.0576 -193.977 44.1084c-99.6133 -11.0615 -153.785 -74.0322 -182.789 -159.16
c-28.0625 -82.3604 1.2627 -201.719 97.751 -254.925c33.8281 -18.6543 73.9512 -34.5635 113.385 -31.1406c59.7422 5.19238 138.07 12.2451 183.351 55.6074c7.55859 7.23633 16.7598 12.8076 25.3975 18.8379c14.4619 10.1084 32.5762 11.2568 44.6484 1.9873
c23.5361 -18.0684 53.4365 -30.6348 64.6016 -65.2559c-23.7314 -57.9043 -69.54 -93.6055 -126.342 -115.614c-26.6494 -10.3262 -54.0225 -19.4463 -82.418 -23.7305c-80.2119 -12.1182 -164.042 -10.6475 -243.036 8.13379
c-43.9365 10.4531 -85.5186 22.8701 -115.82 57.4111c-19.4355 22.1465 -43.5234 38.9971 -62.4648 61.2012c-19.7568 23.1689 -32.9893 50.9092 -44.0049 78.9482c-29.957 76.249 -30.8643 154.934 -20.5381 236.214c6.39844 50.4385 26.2012 92.5029 52.9766 131.546
c16.001 23.3525 42.6504 38.8711 63.4414 59.0645c35.0342 34.0811 79.7637 49.9326 122.333 69.9307c4.6748 2.20508 9.83203 4.37598 14.8633 4.64062c57.5371 3.05566 115.258 9.87891 172.576 7.2373c47.5547 -2.1709 97.1426 -4.69824 140.344 -30.7842
c34.793 -20.998 70.3906 -41.1113 102.76 -65.6006c26.9023 -20.3662 25.0303 -47.9463 -0.630859 -71.4248c-11.6475 -10.6709 -24.3057 -20.4805 -37.5273 -29.0146c-8.32812 -5.35254 -17.2988 -9.64844 -27.2236 -14.4502z" />
    <glyph glyph-name="c" unicode="&#xc7;" horiz-adv-x="787" 
d="M657.869 504.726c-8.74121 -4.21582 -19.2021 -3.33398 -27.0586 2.3291c-12.0498 8.68359 -23.0537 16.7354 -34.5977 23.9033c-59.708 36.9873 -122.207 52.0576 -193.977 44.1084c-99.6133 -11.0615 -153.785 -74.0322 -182.789 -159.16
c-28.0625 -82.3604 1.2627 -201.719 97.751 -254.925c33.8281 -18.6543 73.9512 -34.5635 113.385 -31.1406c59.7422 5.19238 138.07 12.2451 183.351 55.6074c7.55859 7.23633 16.7598 12.8076 25.3975 18.8379c14.4619 10.1084 32.5762 11.2568 44.6484 1.9873
c23.5361 -18.0684 53.4365 -30.6348 64.6016 -65.2559c-23.7314 -57.9043 -69.54 -93.6055 -126.342 -115.614c-26.6494 -10.3262 -54.0225 -19.4463 -82.418 -23.7305c-80.2119 -12.1182 -164.042 -10.6475 -243.036 8.13379
c-43.9365 10.4531 -85.5186 22.8701 -115.82 57.4111c-19.4355 22.1465 -43.5234 38.9971 -62.4648 61.2012c-19.7568 23.1689 -32.9893 50.9092 -44.0049 78.9482c-29.957 76.249 -30.8643 154.934 -20.5381 236.214c6.39844 50.4385 26.2012 92.5029 52.9766 131.546
c16.001 23.3525 42.6504 38.8711 63.4414 59.0645c35.0342 34.0811 79.7637 49.9326 122.333 69.9307c4.6748 2.20508 9.83203 4.37598 14.8633 4.64062c57.5371 3.05566 115.258 9.87891 172.576 7.2373c47.5547 -2.1709 97.1426 -4.69824 140.344 -30.7842
c34.793 -20.998 70.3906 -41.1113 102.76 -65.6006c26.9023 -20.3662 25.0303 -47.9463 -0.630859 -71.4248c-11.6475 -10.6709 -24.3057 -20.4805 -37.5273 -29.0146c-8.32812 -5.35254 -17.2988 -9.64844 -27.2236 -14.4502z" />
    <glyph glyph-name="c" unicode="c" horiz-adv-x="787" 
d="M657.869 504.726c-8.74121 -4.21582 -19.2021 -3.33398 -27.0586 2.3291c-12.0498 8.68359 -23.0537 16.7354 -34.5977 23.9033c-59.708 36.9873 -122.207 52.0576 -193.977 44.1084c-99.6133 -11.0615 -153.785 -74.0322 -182.789 -159.16
c-28.0625 -82.3604 1.2627 -201.719 97.751 -254.925c33.8281 -18.6543 73.9512 -34.5635 113.385 -31.1406c59.7422 5.19238 138.07 12.2451 183.351 55.6074c7.55859 7.23633 16.7598 12.8076 25.3975 18.8379c14.4619 10.1084 32.5762 11.2568 44.6484 1.9873
c23.5361 -18.0684 53.4365 -30.6348 64.6016 -65.2559c-23.7314 -57.9043 -69.54 -93.6055 -126.342 -115.614c-26.6494 -10.3262 -54.0225 -19.4463 -82.418 -23.7305c-80.2119 -12.1182 -164.042 -10.6475 -243.036 8.13379
c-43.9365 10.4531 -85.5186 22.8701 -115.82 57.4111c-19.4355 22.1465 -43.5234 38.9971 -62.4648 61.2012c-19.7568 23.1689 -32.9893 50.9092 -44.0049 78.9482c-29.957 76.249 -30.8643 154.934 -20.5381 236.214c6.39844 50.4385 26.2012 92.5029 52.9766 131.546
c16.001 23.3525 42.6504 38.8711 63.4414 59.0645c35.0342 34.0811 79.7637 49.9326 122.333 69.9307c4.6748 2.20508 9.83203 4.37598 14.8633 4.64062c57.5371 3.05566 115.258 9.87891 172.576 7.2373c47.5547 -2.1709 97.1426 -4.69824 140.344 -30.7842
c34.793 -20.998 70.3906 -41.1113 102.76 -65.6006c26.9023 -20.3662 25.0303 -47.9463 -0.630859 -71.4248c-11.6475 -10.6709 -24.3057 -20.4805 -37.5273 -29.0146c-8.32812 -5.35254 -17.2988 -9.64844 -27.2236 -14.4502z" />
    <glyph glyph-name="d" unicode="D" horiz-adv-x="893" 
d="M78.4414 678.244c1.74609 14.0371 12.1895 25.2354 25.9736 28.4053c6.73145 1.53906 13.2334 2.69922 19.7461 2.72266c128.858 0.367188 257.728 0.631836 386.562 -0.918945c31.0371 -0.367188 62.4414 -5.54785 92.8809 -12.1299
c80.5107 -17.4023 136.348 -69.5635 181.341 -134.693c42.7764 -61.8906 63.4062 -130.892 60.7754 -206.279c-2.71094 -78.041 -17.8271 -152.911 -62.9014 -218.535c-13.1289 -19.1484 -29.3486 -37.7451 -48.084 -51.1611
c-30.6807 -21.9629 -63.418 -41.915 -97.4414 -58.2607c-38.9512 -18.7002 -76.0645 -25.4434 -121.115 -25.4434c-36.999 0 -69.3682 3.67578 -107.274 2.19434c-13.3018 -0.516602 -36.666 -0.0224609 -50.1055 -0.389648
c-64.7393 -1.79199 -128.054 -1.79199 -194.378 1.18262c-73.4004 3.28516 -85.4043 5.16895 -85.1055 46.5322c1.06836 144.147 0.827148 288.352 0 432.499c-0.264648 46.9229 -4.87109 93.8232 -5.30762 140.735c-0.161133 17.4717 2.125 34.9434 4.43359 53.54z
M399.945 133.186c70.46 -0.321289 121.149 9.21582 166.062 25.9287c29.5439 11.0156 58.6279 23.2256 79.8779 48.1172c34.7705 40.7324 49.29 90.4932 47.8193 141.287c-1.61914 56.0322 -18.1143 110.318 -52.9766 156.978
c-25.2598 33.8057 -56.3203 58.0195 -99.6826 62.7637c-28.5674 3.12402 -57.1924 5.54785 -85.7939 8.28125c-20.7676 1.9873 -41.5469 5.78906 -62.2803 5.52441c-23.4102 -0.287109 -46.8545 -3.58398 -70.1152 -6.73145
c-16.748 -2.27441 -33.6562 -5.13477 -49.7373 -10.1201c-19.8262 -6.14551 -34.6445 -18.4014 -37.126 -41.042c-1.26367 -11.5791 -4.23828 -23.1006 -4.30762 -34.6562c-0.5625 -85.209 -0.608398 -170.418 -0.780273 -255.627
c-0.0234375 -10.4873 -0.390625 -21.0088 0.298828 -31.4502c2.38965 -35.7812 23.709 -56.9746 59.3408 -59.9033c36.4707 -2.97461 72.9297 -6.21387 109.4 -9.34961z" />
    <glyph glyph-name="d" unicode="d" horiz-adv-x="893" 
d="M78.4414 678.244c1.74609 14.0371 12.1895 25.2354 25.9736 28.4053c6.73145 1.53906 13.2334 2.69922 19.7461 2.72266c128.858 0.367188 257.728 0.631836 386.562 -0.918945c31.0371 -0.367188 62.4414 -5.54785 92.8809 -12.1299
c80.5107 -17.4023 136.348 -69.5635 181.341 -134.693c42.7764 -61.8906 63.4062 -130.892 60.7754 -206.279c-2.71094 -78.041 -17.8271 -152.911 -62.9014 -218.535c-13.1289 -19.1484 -29.3486 -37.7451 -48.084 -51.1611
c-30.6807 -21.9629 -63.418 -41.915 -97.4414 -58.2607c-38.9512 -18.7002 -76.0645 -25.4434 -121.115 -25.4434c-36.999 0 -69.3682 3.67578 -107.274 2.19434c-13.3018 -0.516602 -36.666 -0.0224609 -50.1055 -0.389648
c-64.7393 -1.79199 -128.054 -1.79199 -194.378 1.18262c-73.4004 3.28516 -85.4043 5.16895 -85.1055 46.5322c1.06836 144.147 0.827148 288.352 0 432.499c-0.264648 46.9229 -4.87109 93.8232 -5.30762 140.735c-0.161133 17.4717 2.125 34.9434 4.43359 53.54z
M399.945 133.186c70.46 -0.321289 121.149 9.21582 166.062 25.9287c29.5439 11.0156 58.6279 23.2256 79.8779 48.1172c34.7705 40.7324 49.29 90.4932 47.8193 141.287c-1.61914 56.0322 -18.1143 110.318 -52.9766 156.978
c-25.2598 33.8057 -56.3203 58.0195 -99.6826 62.7637c-28.5674 3.12402 -57.1924 5.54785 -85.7939 8.28125c-20.7676 1.9873 -41.5469 5.78906 -62.2803 5.52441c-23.4102 -0.287109 -46.8545 -3.58398 -70.1152 -6.73145
c-16.748 -2.27441 -33.6562 -5.13477 -49.7373 -10.1201c-19.8262 -6.14551 -34.6445 -18.4014 -37.126 -41.042c-1.26367 -11.5791 -4.23828 -23.1006 -4.30762 -34.6562c-0.5625 -85.209 -0.608398 -170.418 -0.780273 -255.627
c-0.0234375 -10.4873 -0.390625 -21.0088 0.298828 -31.4502c2.38965 -35.7812 23.709 -56.9746 59.3408 -59.9033c36.4707 -2.97461 72.9297 -6.21387 109.4 -9.34961z" />
    <glyph glyph-name="e" unicode="E" horiz-adv-x="748" 
d="M548.756 410.546c11.8311 -40.1465 9.87109 -78.0664 1.06055 -117.811c-0.942383 -4.25 -4.72168 -7.35156 -9.06348 -7.58105c-12.2793 -0.631836 -23.0312 -1.27539 -33.7715 -1.59668c-73.2969 -2.29688 -146.616 -4.14648 -219.913 -6.85742
c-24.2373 -0.895508 -45.04 -17.5742 -51.5303 -40.9502c-15.1855 -54.7227 12.5088 -91.7217 69.1729 -92.79c10.5107 -0.195312 21.0215 -0.25293 31.5322 -0.21875c98.5674 0.356445 197.123 0.816406 295.69 1.06934
c17.0693 0.0458984 34.2188 0.195312 51.208 -1.26367c17.7471 -1.52734 22.3643 -6.83398 23.8457 -24.7764c2.6416 -31.7842 -3.35449 -61.9141 -14.3818 -91.9629c-5.46777 -14.8867 -14.3359 -20.8945 -27.6035 -23.3184
c-7.65039 -1.40137 -15.7139 -0.482422 -23.6055 -0.494141c-168.212 -0.137695 -336.424 -0.263672 -504.636 -0.30957c-13.2324 0 -26.9365 -1.72266 -40.2383 4.88184c-9.15527 4.54883 -14.5996 14.2549 -14.5195 24.4785
c0.161133 19.0908 0.505859 40.1572 -0.263672 61.1777c-2.33203 65.1875 -4.79004 129.64 -4.25 194.953c0.505859 61.5693 1.48242 123.139 2.90723 184.685c1.37793 59.4434 -4.36523 118.692 -4.36523 178.125c-0.298828 10.166 1.61914 20.7686 4.50195 30.6016
c5.28418 18.1143 17.3564 28.7168 37.3438 28.5215c10.5107 -0.115234 21.0215 0.390625 31.5322 0.390625c165.593 -0.0234375 331.186 -0.0927734 496.755 -0.150391c6.57031 0 13.1748 0.344727 19.7109 -0.195312c19.125 -1.61914 30.623 -10.292 31.5879 -28.0615
c1.61914 -30.0488 1.72266 -60.2588 0.734375 -90.3193c-0.540039 -16.6328 -7.38574 -21.5488 -25.7412 -22.835c-10.4648 -0.74707 -21.0215 -0.172852 -31.543 -0.172852c-106.447 0.0800781 -212.906 0.482422 -319.331 -0.0917969
c-16.7021 -0.0917969 -33.3926 -4.58301 -50.0713 -7.25977c-3.8252 -0.608398 -7.69629 -1.72266 -11.2568 -3.25c-20.0215 -8.61523 -32.6221 -49.7266 -25.6953 -85.1289c6.24902 -31.9219 22.3535 -42.834 54.3896 -46.418
c71.9072 -8.04102 143.975 -6.12305 216.031 -6.42188c10.292 -0.0693359 20.5615 -0.0576172 31.9795 -0.0458984c5.35254 0 10.2803 -3.46875 11.7969 -8.60352z" />
    <glyph glyph-name="e" unicode="&#xeb;" horiz-adv-x="748" 
d="M548.756 410.546c11.8311 -40.1465 9.87109 -78.0664 1.06055 -117.811c-0.942383 -4.25 -4.72168 -7.35156 -9.06348 -7.58105c-12.2793 -0.631836 -23.0312 -1.27539 -33.7715 -1.59668c-73.2969 -2.29688 -146.616 -4.14648 -219.913 -6.85742
c-24.2373 -0.895508 -45.04 -17.5742 -51.5303 -40.9502c-15.1855 -54.7227 12.5088 -91.7217 69.1729 -92.79c10.5107 -0.195312 21.0215 -0.25293 31.5322 -0.21875c98.5674 0.356445 197.123 0.816406 295.69 1.06934
c17.0693 0.0458984 34.2188 0.195312 51.208 -1.26367c17.7471 -1.52734 22.3643 -6.83398 23.8457 -24.7764c2.6416 -31.7842 -3.35449 -61.9141 -14.3818 -91.9629c-5.46777 -14.8867 -14.3359 -20.8945 -27.6035 -23.3184
c-7.65039 -1.40137 -15.7139 -0.482422 -23.6055 -0.494141c-168.212 -0.137695 -336.424 -0.263672 -504.636 -0.30957c-13.2324 0 -26.9365 -1.72266 -40.2383 4.88184c-9.15527 4.54883 -14.5996 14.2549 -14.5195 24.4785
c0.161133 19.0908 0.505859 40.1572 -0.263672 61.1777c-2.33203 65.1875 -4.79004 129.64 -4.25 194.953c0.505859 61.5693 1.48242 123.139 2.90723 184.685c1.37793 59.4434 -4.36523 118.692 -4.36523 178.125c-0.298828 10.166 1.61914 20.7686 4.50195 30.6016
c5.28418 18.1143 17.3564 28.7168 37.3438 28.5215c10.5107 -0.115234 21.0215 0.390625 31.5322 0.390625c165.593 -0.0234375 331.186 -0.0927734 496.755 -0.150391c6.57031 0 13.1748 0.344727 19.7109 -0.195312c19.125 -1.61914 30.623 -10.292 31.5879 -28.0615
c1.61914 -30.0488 1.72266 -60.2588 0.734375 -90.3193c-0.540039 -16.6328 -7.38574 -21.5488 -25.7412 -22.835c-10.4648 -0.74707 -21.0215 -0.172852 -31.543 -0.172852c-106.447 0.0800781 -212.906 0.482422 -319.331 -0.0917969
c-16.7021 -0.0917969 -33.3926 -4.58301 -50.0713 -7.25977c-3.8252 -0.608398 -7.69629 -1.72266 -11.2568 -3.25c-20.0215 -8.61523 -32.6221 -49.7266 -25.6953 -85.1289c6.24902 -31.9219 22.3535 -42.834 54.3896 -46.418
c71.9072 -8.04102 143.975 -6.12305 216.031 -6.42188c10.292 -0.0693359 20.5615 -0.0576172 31.9795 -0.0458984c5.35254 0 10.2803 -3.46875 11.7969 -8.60352z" />
    <glyph glyph-name="e" unicode="&#xea;" horiz-adv-x="748" 
d="M548.756 410.546c11.8311 -40.1465 9.87109 -78.0664 1.06055 -117.811c-0.942383 -4.25 -4.72168 -7.35156 -9.06348 -7.58105c-12.2793 -0.631836 -23.0312 -1.27539 -33.7715 -1.59668c-73.2969 -2.29688 -146.616 -4.14648 -219.913 -6.85742
c-24.2373 -0.895508 -45.04 -17.5742 -51.5303 -40.9502c-15.1855 -54.7227 12.5088 -91.7217 69.1729 -92.79c10.5107 -0.195312 21.0215 -0.25293 31.5322 -0.21875c98.5674 0.356445 197.123 0.816406 295.69 1.06934
c17.0693 0.0458984 34.2188 0.195312 51.208 -1.26367c17.7471 -1.52734 22.3643 -6.83398 23.8457 -24.7764c2.6416 -31.7842 -3.35449 -61.9141 -14.3818 -91.9629c-5.46777 -14.8867 -14.3359 -20.8945 -27.6035 -23.3184
c-7.65039 -1.40137 -15.7139 -0.482422 -23.6055 -0.494141c-168.212 -0.137695 -336.424 -0.263672 -504.636 -0.30957c-13.2324 0 -26.9365 -1.72266 -40.2383 4.88184c-9.15527 4.54883 -14.5996 14.2549 -14.5195 24.4785
c0.161133 19.0908 0.505859 40.1572 -0.263672 61.1777c-2.33203 65.1875 -4.79004 129.64 -4.25 194.953c0.505859 61.5693 1.48242 123.139 2.90723 184.685c1.37793 59.4434 -4.36523 118.692 -4.36523 178.125c-0.298828 10.166 1.61914 20.7686 4.50195 30.6016
c5.28418 18.1143 17.3564 28.7168 37.3438 28.5215c10.5107 -0.115234 21.0215 0.390625 31.5322 0.390625c165.593 -0.0234375 331.186 -0.0927734 496.755 -0.150391c6.57031 0 13.1748 0.344727 19.7109 -0.195312c19.125 -1.61914 30.623 -10.292 31.5879 -28.0615
c1.61914 -30.0488 1.72266 -60.2588 0.734375 -90.3193c-0.540039 -16.6328 -7.38574 -21.5488 -25.7412 -22.835c-10.4648 -0.74707 -21.0215 -0.172852 -31.543 -0.172852c-106.447 0.0800781 -212.906 0.482422 -319.331 -0.0917969
c-16.7021 -0.0917969 -33.3926 -4.58301 -50.0713 -7.25977c-3.8252 -0.608398 -7.69629 -1.72266 -11.2568 -3.25c-20.0215 -8.61523 -32.6221 -49.7266 -25.6953 -85.1289c6.24902 -31.9219 22.3535 -42.834 54.3896 -46.418
c71.9072 -8.04102 143.975 -6.12305 216.031 -6.42188c10.292 -0.0693359 20.5615 -0.0576172 31.9795 -0.0458984c5.35254 0 10.2803 -3.46875 11.7969 -8.60352z" />
    <glyph glyph-name="e" unicode="&#xcb;" horiz-adv-x="748" 
d="M548.756 410.546c11.8311 -40.1465 9.87109 -78.0664 1.06055 -117.811c-0.942383 -4.25 -4.72168 -7.35156 -9.06348 -7.58105c-12.2793 -0.631836 -23.0312 -1.27539 -33.7715 -1.59668c-73.2969 -2.29688 -146.616 -4.14648 -219.913 -6.85742
c-24.2373 -0.895508 -45.04 -17.5742 -51.5303 -40.9502c-15.1855 -54.7227 12.5088 -91.7217 69.1729 -92.79c10.5107 -0.195312 21.0215 -0.25293 31.5322 -0.21875c98.5674 0.356445 197.123 0.816406 295.69 1.06934
c17.0693 0.0458984 34.2188 0.195312 51.208 -1.26367c17.7471 -1.52734 22.3643 -6.83398 23.8457 -24.7764c2.6416 -31.7842 -3.35449 -61.9141 -14.3818 -91.9629c-5.46777 -14.8867 -14.3359 -20.8945 -27.6035 -23.3184
c-7.65039 -1.40137 -15.7139 -0.482422 -23.6055 -0.494141c-168.212 -0.137695 -336.424 -0.263672 -504.636 -0.30957c-13.2324 0 -26.9365 -1.72266 -40.2383 4.88184c-9.15527 4.54883 -14.5996 14.2549 -14.5195 24.4785
c0.161133 19.0908 0.505859 40.1572 -0.263672 61.1777c-2.33203 65.1875 -4.79004 129.64 -4.25 194.953c0.505859 61.5693 1.48242 123.139 2.90723 184.685c1.37793 59.4434 -4.36523 118.692 -4.36523 178.125c-0.298828 10.166 1.61914 20.7686 4.50195 30.6016
c5.28418 18.1143 17.3564 28.7168 37.3438 28.5215c10.5107 -0.115234 21.0215 0.390625 31.5322 0.390625c165.593 -0.0234375 331.186 -0.0927734 496.755 -0.150391c6.57031 0 13.1748 0.344727 19.7109 -0.195312c19.125 -1.61914 30.623 -10.292 31.5879 -28.0615
c1.61914 -30.0488 1.72266 -60.2588 0.734375 -90.3193c-0.540039 -16.6328 -7.38574 -21.5488 -25.7412 -22.835c-10.4648 -0.74707 -21.0215 -0.172852 -31.543 -0.172852c-106.447 0.0800781 -212.906 0.482422 -319.331 -0.0917969
c-16.7021 -0.0917969 -33.3926 -4.58301 -50.0713 -7.25977c-3.8252 -0.608398 -7.69629 -1.72266 -11.2568 -3.25c-20.0215 -8.61523 -32.6221 -49.7266 -25.6953 -85.1289c6.24902 -31.9219 22.3535 -42.834 54.3896 -46.418
c71.9072 -8.04102 143.975 -6.12305 216.031 -6.42188c10.292 -0.0693359 20.5615 -0.0576172 31.9795 -0.0458984c5.35254 0 10.2803 -3.46875 11.7969 -8.60352z" />
    <glyph glyph-name="e" unicode="&#xca;" horiz-adv-x="748" 
d="M548.756 410.546c11.8311 -40.1465 9.87109 -78.0664 1.06055 -117.811c-0.942383 -4.25 -4.72168 -7.35156 -9.06348 -7.58105c-12.2793 -0.631836 -23.0312 -1.27539 -33.7715 -1.59668c-73.2969 -2.29688 -146.616 -4.14648 -219.913 -6.85742
c-24.2373 -0.895508 -45.04 -17.5742 -51.5303 -40.9502c-15.1855 -54.7227 12.5088 -91.7217 69.1729 -92.79c10.5107 -0.195312 21.0215 -0.25293 31.5322 -0.21875c98.5674 0.356445 197.123 0.816406 295.69 1.06934
c17.0693 0.0458984 34.2188 0.195312 51.208 -1.26367c17.7471 -1.52734 22.3643 -6.83398 23.8457 -24.7764c2.6416 -31.7842 -3.35449 -61.9141 -14.3818 -91.9629c-5.46777 -14.8867 -14.3359 -20.8945 -27.6035 -23.3184
c-7.65039 -1.40137 -15.7139 -0.482422 -23.6055 -0.494141c-168.212 -0.137695 -336.424 -0.263672 -504.636 -0.30957c-13.2324 0 -26.9365 -1.72266 -40.2383 4.88184c-9.15527 4.54883 -14.5996 14.2549 -14.5195 24.4785
c0.161133 19.0908 0.505859 40.1572 -0.263672 61.1777c-2.33203 65.1875 -4.79004 129.64 -4.25 194.953c0.505859 61.5693 1.48242 123.139 2.90723 184.685c1.37793 59.4434 -4.36523 118.692 -4.36523 178.125c-0.298828 10.166 1.61914 20.7686 4.50195 30.6016
c5.28418 18.1143 17.3564 28.7168 37.3438 28.5215c10.5107 -0.115234 21.0215 0.390625 31.5322 0.390625c165.593 -0.0234375 331.186 -0.0927734 496.755 -0.150391c6.57031 0 13.1748 0.344727 19.7109 -0.195312c19.125 -1.61914 30.623 -10.292 31.5879 -28.0615
c1.61914 -30.0488 1.72266 -60.2588 0.734375 -90.3193c-0.540039 -16.6328 -7.38574 -21.5488 -25.7412 -22.835c-10.4648 -0.74707 -21.0215 -0.172852 -31.543 -0.172852c-106.447 0.0800781 -212.906 0.482422 -319.331 -0.0917969
c-16.7021 -0.0917969 -33.3926 -4.58301 -50.0713 -7.25977c-3.8252 -0.608398 -7.69629 -1.72266 -11.2568 -3.25c-20.0215 -8.61523 -32.6221 -49.7266 -25.6953 -85.1289c6.24902 -31.9219 22.3535 -42.834 54.3896 -46.418
c71.9072 -8.04102 143.975 -6.12305 216.031 -6.42188c10.292 -0.0693359 20.5615 -0.0576172 31.9795 -0.0458984c5.35254 0 10.2803 -3.46875 11.7969 -8.60352z" />
    <glyph glyph-name="e" unicode="e" horiz-adv-x="748" 
d="M548.756 410.546c11.8311 -40.1465 9.87109 -78.0664 1.06055 -117.811c-0.942383 -4.25 -4.72168 -7.35156 -9.06348 -7.58105c-12.2793 -0.631836 -23.0312 -1.27539 -33.7715 -1.59668c-73.2969 -2.29688 -146.616 -4.14648 -219.913 -6.85742
c-24.2373 -0.895508 -45.04 -17.5742 -51.5303 -40.9502c-15.1855 -54.7227 12.5088 -91.7217 69.1729 -92.79c10.5107 -0.195312 21.0215 -0.25293 31.5322 -0.21875c98.5674 0.356445 197.123 0.816406 295.69 1.06934
c17.0693 0.0458984 34.2188 0.195312 51.208 -1.26367c17.7471 -1.52734 22.3643 -6.83398 23.8457 -24.7764c2.6416 -31.7842 -3.35449 -61.9141 -14.3818 -91.9629c-5.46777 -14.8867 -14.3359 -20.8945 -27.6035 -23.3184
c-7.65039 -1.40137 -15.7139 -0.482422 -23.6055 -0.494141c-168.212 -0.137695 -336.424 -0.263672 -504.636 -0.30957c-13.2324 0 -26.9365 -1.72266 -40.2383 4.88184c-9.15527 4.54883 -14.5996 14.2549 -14.5195 24.4785
c0.161133 19.0908 0.505859 40.1572 -0.263672 61.1777c-2.33203 65.1875 -4.79004 129.64 -4.25 194.953c0.505859 61.5693 1.48242 123.139 2.90723 184.685c1.37793 59.4434 -4.36523 118.692 -4.36523 178.125c-0.298828 10.166 1.61914 20.7686 4.50195 30.6016
c5.28418 18.1143 17.3564 28.7168 37.3438 28.5215c10.5107 -0.115234 21.0215 0.390625 31.5322 0.390625c165.593 -0.0234375 331.186 -0.0927734 496.755 -0.150391c6.57031 0 13.1748 0.344727 19.7109 -0.195312c19.125 -1.61914 30.623 -10.292 31.5879 -28.0615
c1.61914 -30.0488 1.72266 -60.2588 0.734375 -90.3193c-0.540039 -16.6328 -7.38574 -21.5488 -25.7412 -22.835c-10.4648 -0.74707 -21.0215 -0.172852 -31.543 -0.172852c-106.447 0.0800781 -212.906 0.482422 -319.331 -0.0917969
c-16.7021 -0.0917969 -33.3926 -4.58301 -50.0713 -7.25977c-3.8252 -0.608398 -7.69629 -1.72266 -11.2568 -3.25c-20.0215 -8.61523 -32.6221 -49.7266 -25.6953 -85.1289c6.24902 -31.9219 22.3535 -42.834 54.3896 -46.418
c71.9072 -8.04102 143.975 -6.12305 216.031 -6.42188c10.292 -0.0693359 20.5615 -0.0576172 31.9795 -0.0458984c5.35254 0 10.2803 -3.46875 11.7969 -8.60352z" />
    <glyph glyph-name="f" unicode="F" horiz-adv-x="722" 
d="M551.386 297.941c-0.827148 -7.83398 -7.28516 -13.9355 -15.1768 -14.4062c-9.62598 -0.574219 -18.459 -1.10254 -27.2812 -1.13672c-31.5654 -0.115234 -63.165 1.24023 -94.6963 0.195312c-44.4541 -1.48145 -88.8848 -4.2959 -133.292 -7.14453
c-26.7754 -1.72266 -43.293 -18.0684 -45.0156 -44.4189c-2.71094 -41.4668 -5.70898 -82.9453 -6.55859 -124.47c-0.413086 -20.5381 2.58496 -61.9014 2.89551 -82.5889c0.402344 -26.9131 -10.8203 -20.0439 -37.4121 -20.7334
c-33.2998 -0.861328 -53.4014 -0.448242 -86.8164 -1.32129c-11.3604 -0.298828 -24.6621 5.26074 -26.2129 16.4834c-2.30859 16.7363 -2.33203 36.4014 -2.38965 53.1836c-0.701172 190.714 -0.264648 381.451 -1.4248 572.154
c-0.298828 49.6914 10.4072 64.4863 64.3262 63.4521c64.418 -1.21777 128.893 -0.0810547 193.345 0.654297c16.4717 0.183594 54.9639 1.0332 58.9385 0.470703c61.8105 -1.5625 175.196 2.29688 263.013 -1.63184
c1.30957 -0.0693359 2.63086 -0.0234375 3.92871 -0.0927734c25.1104 -1.21777 35.7354 -7.38574 37.9863 -30.2441c2.80273 -28.4639 2.36621 -57.4453 0.654297 -86.0586c-0.803711 -13.8066 -11.7734 -23.168 -26.6836 -24.4316
c-10.4531 -0.895508 -21.0322 -0.504883 -31.543 -0.481445c-105.229 0.171875 -210.459 0.757812 -315.654 0.217773c-18.0342 -0.0917969 -36.0566 -4.68652 -54.0215 -7.62695c-14.3125 -2.33203 -23.1689 -11.8203 -28.6709 -24.2949
c-11.5791 -26.2471 -10.7754 -52.9648 -2.20605 -79.9014c4.91602 -15.4609 17.2871 -22.5137 31.1631 -27.3262c6.00781 -2.09082 12.9111 -1.90723 19.4473 -2.125c72.0791 -2.33203 144.124 -4.88184 216.227 -6.68555
c40.0771 -0.999023 49.9668 -9.05078 50.7246 -48.3242c0.0917969 -4.83594 -0.310547 -9.70605 -0.954102 -14.4961c-2.83691 -20.8369 -4.3418 -35.1611 -6.63867 -56.8711z" />
    <glyph glyph-name="f" unicode="f" horiz-adv-x="722" 
d="M551.386 297.941c-0.827148 -7.83398 -7.28516 -13.9355 -15.1768 -14.4062c-9.62598 -0.574219 -18.459 -1.10254 -27.2812 -1.13672c-31.5654 -0.115234 -63.165 1.24023 -94.6963 0.195312c-44.4541 -1.48145 -88.8848 -4.2959 -133.292 -7.14453
c-26.7754 -1.72266 -43.293 -18.0684 -45.0156 -44.4189c-2.71094 -41.4668 -5.70898 -82.9453 -6.55859 -124.47c-0.413086 -20.5381 2.58496 -61.9014 2.89551 -82.5889c0.402344 -26.9131 -10.8203 -20.0439 -37.4121 -20.7334
c-33.2998 -0.861328 -53.4014 -0.448242 -86.8164 -1.32129c-11.3604 -0.298828 -24.6621 5.26074 -26.2129 16.4834c-2.30859 16.7363 -2.33203 36.4014 -2.38965 53.1836c-0.701172 190.714 -0.264648 381.451 -1.4248 572.154
c-0.298828 49.6914 10.4072 64.4863 64.3262 63.4521c64.418 -1.21777 128.893 -0.0810547 193.345 0.654297c16.4717 0.183594 54.9639 1.0332 58.9385 0.470703c61.8105 -1.5625 175.196 2.29688 263.013 -1.63184
c1.30957 -0.0693359 2.63086 -0.0234375 3.92871 -0.0927734c25.1104 -1.21777 35.7354 -7.38574 37.9863 -30.2441c2.80273 -28.4639 2.36621 -57.4453 0.654297 -86.0586c-0.803711 -13.8066 -11.7734 -23.168 -26.6836 -24.4316
c-10.4531 -0.895508 -21.0322 -0.504883 -31.543 -0.481445c-105.229 0.171875 -210.459 0.757812 -315.654 0.217773c-18.0342 -0.0917969 -36.0566 -4.68652 -54.0215 -7.62695c-14.3125 -2.33203 -23.1689 -11.8203 -28.6709 -24.2949
c-11.5791 -26.2471 -10.7754 -52.9648 -2.20605 -79.9014c4.91602 -15.4609 17.2871 -22.5137 31.1631 -27.3262c6.00781 -2.09082 12.9111 -1.90723 19.4473 -2.125c72.0791 -2.33203 144.124 -4.88184 216.227 -6.68555
c40.0771 -0.999023 49.9668 -9.05078 50.7246 -48.3242c0.0917969 -4.83594 -0.310547 -9.70605 -0.954102 -14.4961c-2.83691 -20.8369 -4.3418 -35.1611 -6.63867 -56.8711z" />
    <glyph glyph-name="g" unicode="G" horiz-adv-x="887" 
d="M609.503 370.365c17.0918 0 34.1836 0.473633 51.2412 -0.078125c56.251 -1.84961 112.524 -3.84863 168.752 -6.29492c20.6533 -0.884766 27.8672 -10.0859 25.4209 -30.2686c-10.0742 -83.3818 -44.1436 -155.622 -96.3164 -221.809
c-34.0469 -43.2012 -76.4443 -67.8857 -126.837 -86.5176c-48.5771 -17.9541 -98.1426 -27.4424 -148.891 -29.2461c-64.6699 -2.32031 -126.423 16.0127 -187.532 34.9893c-16.1729 5.03125 -31.5195 12.7041 -47.6465 17.9072
c-28.0391 9.05176 -45.3838 26.626 -66.3818 46.3721c-20.2285 20.2285 -41.7197 39.4346 -62.6602 58.9395c-17.1846 16.001 -26.0176 40.4902 -36.252 61.499c-22.8584 46.8887 -41.4326 96.9023 -37.9863 149.925c2.51562 38.6182 8.61523 77.168 15.7832 115.258
c8.58105 45.5908 50.3467 91.3076 82.1416 123.401c37.458 37.8027 84.8525 63.5908 133.844 83.3018c30.6465 12.3369 63.3037 18.3096 96.041 21.79c32.5078 3.44629 66.3135 7.33984 99.0166 7.05273h1.04492c47.0264 -0.608398 94.7197 -1.46973 140.759 -9.66016
c46.1992 -8.20117 90.251 -26.6943 126.342 -58.9258c17.8047 -15.9092 19.8262 -23.9609 5.18066 -43.5459c-17.1387 -22.916 -37.0908 -43.7412 -55.791 -65.4854c-12.084 -14.0596 -27.2119 -14.9326 -42.8916 -8.30469
c-14.4502 6.12207 -28.2227 13.8408 -42.2939 20.8594c-52.8506 26.3389 -107.148 33.8164 -166.948 26.4424c-53.1494 -6.55859 -97.8789 -24.2139 -139.104 -56.4805c-51.3799 -40.1924 -78.96 -90.6992 -82.2334 -156.495
c-2.90625 -58.4785 15.2773 -108.297 54.3896 -149.604c32.0361 -33.8398 74.4795 -52.2529 119.853 -62.9014c87.9424 -20.6074 159.93 -6.03125 240.877 27.6934c10.292 4.2959 19.9062 12.877 26.9014 21.7559c10.499 13.3018 20.2861 34.0234 14.7383 48.749
c-5.15723 13.6348 -19.2285 11.1074 -30.8994 11.1309c-51.2656 0.0917969 -102.565 -0.229492 -153.831 0.195312c-28.499 0.229492 -27.8906 1.84863 -37.3672 29.417c-8.43164 24.5127 1.48145 46.2227 6.68457 68.4844c2.7334 11.7275 15.7822 11.8994 26.5908 11.7959
c34.1846 -0.321289 68.3574 -0.59668 102.564 -0.87207c7.8916 -0.0693359 15.7832 0 23.6748 0c0.0234375 -0.195312 0.0234375 -0.333008 0.0234375 -0.470703z" />
    <glyph glyph-name="g" unicode="g" horiz-adv-x="887" 
d="M609.503 370.365c17.0918 0 34.1836 0.473633 51.2412 -0.078125c56.251 -1.84961 112.524 -3.84863 168.752 -6.29492c20.6533 -0.884766 27.8672 -10.0859 25.4209 -30.2686c-10.0742 -83.3818 -44.1436 -155.622 -96.3164 -221.809
c-34.0469 -43.2012 -76.4443 -67.8857 -126.837 -86.5176c-48.5771 -17.9541 -98.1426 -27.4424 -148.891 -29.2461c-64.6699 -2.32031 -126.423 16.0127 -187.532 34.9893c-16.1729 5.03125 -31.5195 12.7041 -47.6465 17.9072
c-28.0391 9.05176 -45.3838 26.626 -66.3818 46.3721c-20.2285 20.2285 -41.7197 39.4346 -62.6602 58.9395c-17.1846 16.001 -26.0176 40.4902 -36.252 61.499c-22.8584 46.8887 -41.4326 96.9023 -37.9863 149.925c2.51562 38.6182 8.61523 77.168 15.7832 115.258
c8.58105 45.5908 50.3467 91.3076 82.1416 123.401c37.458 37.8027 84.8525 63.5908 133.844 83.3018c30.6465 12.3369 63.3037 18.3096 96.041 21.79c32.5078 3.44629 66.3135 7.33984 99.0166 7.05273h1.04492c47.0264 -0.608398 94.7197 -1.46973 140.759 -9.66016
c46.1992 -8.20117 90.251 -26.6943 126.342 -58.9258c17.8047 -15.9092 19.8262 -23.9609 5.18066 -43.5459c-17.1387 -22.916 -37.0908 -43.7412 -55.791 -65.4854c-12.084 -14.0596 -27.2119 -14.9326 -42.8916 -8.30469
c-14.4502 6.12207 -28.2227 13.8408 -42.2939 20.8594c-52.8506 26.3389 -107.148 33.8164 -166.948 26.4424c-53.1494 -6.55859 -97.8789 -24.2139 -139.104 -56.4805c-51.3799 -40.1924 -78.96 -90.6992 -82.2334 -156.495
c-2.90625 -58.4785 15.2773 -108.297 54.3896 -149.604c32.0361 -33.8398 74.4795 -52.2529 119.853 -62.9014c87.9424 -20.6074 159.93 -6.03125 240.877 27.6934c10.292 4.2959 19.9062 12.877 26.9014 21.7559c10.499 13.3018 20.2861 34.0234 14.7383 48.749
c-5.15723 13.6348 -19.2285 11.1074 -30.8994 11.1309c-51.2656 0.0917969 -102.565 -0.229492 -153.831 0.195312c-28.499 0.229492 -27.8906 1.84863 -37.3672 29.417c-8.43164 24.5127 1.48145 46.2227 6.68457 68.4844c2.7334 11.7275 15.7822 11.8994 26.5908 11.7959
c34.1846 -0.321289 68.3574 -0.59668 102.564 -0.87207c7.8916 -0.0693359 15.7832 0 23.6748 0c0.0234375 -0.195312 0.0234375 -0.333008 0.0234375 -0.470703z" />
    <glyph glyph-name="h" unicode="H" horiz-adv-x="835" 
d="M86.5547 697.956c45.3262 17.7236 87.833 9.23633 129.449 10.2588c6.36328 0.171875 16.9883 -8.75293 18.7461 -15.208c4.93945 -18.0576 8.39648 -37.0225 8.6377 -55.6768c0.849609 -68.2891 0.171875 -136.612 0.0800781 -204.912
c0 -7.59277 -0.344727 -15.208 0.149414 -22.7666c1.44727 -21.6299 5.30664 -25.0186 29.0264 -26.5693c1.30957 -0.0800781 2.61914 -0.0458984 3.92871 -0.0458984c82.8076 -0.207031 165.627 -0.930664 248.435 -0.378906
c39.6182 0.275391 52.3223 11.4521 60.6729 49.7031c2.66504 12.1992 4.30762 24.7998 4.43359 37.2402c0.585938 59.4551 0.149414 118.91 0.803711 178.343c0.413086 37.3438 15.7246 58.4219 55.3193 60.3857c18.3555 0.907227 36.9297 0.550781 55.3086 -0.000976562
c28.0166 -0.827148 42.5703 -19.2285 48.1992 -45.8545c3.36523 -15.9092 5.90332 -32.2773 5.9834 -48.4619c0.378906 -68.8174 0.458984 -137.646 0.401367 -206.463c-0.0576172 -61.6494 -2.84863 -125.194 -1.74609 -187.59
c0.540039 -30.7383 3.75586 -61.5 2.75684 -92.0889c-1.04492 -32.1279 -1.49316 -64.6006 0.137695 -96.7061c1.18359 -23.3525 -5.20312 -28.2686 -30.4395 -28.7969c-31.543 -0.654297 -63.0967 -0.550781 -94.6504 -0.0449219
c-27.3613 0.424805 -37.1943 9.08594 -39.8135 35.9883c-1.45898 15.0479 -0.333008 30.3369 -0.458984 45.5107c-0.310547 36.6885 -0.149414 73.377 -1.18359 110.054c-0.597656 21.8359 -4.89355 43.293 -25.5693 56.5029c-17 10.8662 -38.917 10.3838 -58.376 12.0264
c-25.0869 2.11328 -50.2432 3.41113 -75.4219 3.88184c-30.0381 0.5625 -60.0986 -0.0458984 -90.0908 -1.82617c-24.0996 -1.43555 -58.8125 1.4248 -80.7637 -9.54492c-21.1582 -11.2227 -25.1094 -35.4941 -23.5586 -57.3877
c3.36523 -47.75 5.22656 -95.5811 7.68457 -143.366c0.333008 -6.30664 0.504883 -12.6592 0.378906 -18.9658c-0.551758 -28.2578 -4.38867 -32.1406 -34.7256 -32.6006c-30.2217 -0.470703 -60.4658 -0.585938 -90.6992 -0.103516
c-27.7402 0.448242 -37.0215 9.0293 -40.2725 35.6553c-0.608398 5.00781 -0.149414 10.1084 -0.149414 15.1738c-0.0917969 194.804 -0.378906 389.596 0.103516 584.399c0.0693359 19.8379 4.67578 39.6641 7.2832 60.2363z" />
    <glyph glyph-name="h" unicode="h" horiz-adv-x="835" 
d="M86.5547 697.956c45.3262 17.7236 87.833 9.23633 129.449 10.2588c6.36328 0.171875 16.9883 -8.75293 18.7461 -15.208c4.93945 -18.0576 8.39648 -37.0225 8.6377 -55.6768c0.849609 -68.2891 0.171875 -136.612 0.0800781 -204.912
c0 -7.59277 -0.344727 -15.208 0.149414 -22.7666c1.44727 -21.6299 5.30664 -25.0186 29.0264 -26.5693c1.30957 -0.0800781 2.61914 -0.0458984 3.92871 -0.0458984c82.8076 -0.207031 165.627 -0.930664 248.435 -0.378906
c39.6182 0.275391 52.3223 11.4521 60.6729 49.7031c2.66504 12.1992 4.30762 24.7998 4.43359 37.2402c0.585938 59.4551 0.149414 118.91 0.803711 178.343c0.413086 37.3438 15.7246 58.4219 55.3193 60.3857c18.3555 0.907227 36.9297 0.550781 55.3086 -0.000976562
c28.0166 -0.827148 42.5703 -19.2285 48.1992 -45.8545c3.36523 -15.9092 5.90332 -32.2773 5.9834 -48.4619c0.378906 -68.8174 0.458984 -137.646 0.401367 -206.463c-0.0576172 -61.6494 -2.84863 -125.194 -1.74609 -187.59
c0.540039 -30.7383 3.75586 -61.5 2.75684 -92.0889c-1.04492 -32.1279 -1.49316 -64.6006 0.137695 -96.7061c1.18359 -23.3525 -5.20312 -28.2686 -30.4395 -28.7969c-31.543 -0.654297 -63.0967 -0.550781 -94.6504 -0.0449219
c-27.3613 0.424805 -37.1943 9.08594 -39.8135 35.9883c-1.45898 15.0479 -0.333008 30.3369 -0.458984 45.5107c-0.310547 36.6885 -0.149414 73.377 -1.18359 110.054c-0.597656 21.8359 -4.89355 43.293 -25.5693 56.5029c-17 10.8662 -38.917 10.3838 -58.376 12.0264
c-25.0869 2.11328 -50.2432 3.41113 -75.4219 3.88184c-30.0381 0.5625 -60.0986 -0.0458984 -90.0908 -1.82617c-24.0996 -1.43555 -58.8125 1.4248 -80.7637 -9.54492c-21.1582 -11.2227 -25.1094 -35.4941 -23.5586 -57.3877
c3.36523 -47.75 5.22656 -95.5811 7.68457 -143.366c0.333008 -6.30664 0.504883 -12.6592 0.378906 -18.9658c-0.551758 -28.2578 -4.38867 -32.1406 -34.7256 -32.6006c-30.2217 -0.470703 -60.4658 -0.585938 -90.6992 -0.103516
c-27.7402 0.448242 -37.0215 9.0293 -40.2725 35.6553c-0.608398 5.00781 -0.149414 10.1084 -0.149414 15.1738c-0.0917969 194.804 -0.378906 389.596 0.103516 584.399c0.0693359 19.8379 4.67578 39.6641 7.2832 60.2363z" />
    <glyph glyph-name="i" unicode="I" horiz-adv-x="319" 
d="M79.5488 354.111h-0.516602c0 96.833 -0.0117188 193.666 0.0224609 290.511c0 10.4648 -0.321289 20.9756 0.597656 31.3828c1.81445 20.5039 11.5322 31.7148 31.7715 32.4502c34.0928 1.26367 68.2773 1.16016 102.37 0.149414
c17.7471 -0.516602 22.3994 -6.34082 23.9502 -24.4326c0.895508 -10.4072 0.413086 -20.918 0.413086 -31.3828c-0.0576172 -163.583 -0.609375 -327.154 0.137695 -490.714c0.171875 -38.9629 5.63965 -77.9141 6.82324 -116.9
c1.06836 -35.7119 -7.19043 -42.9482 -43.8447 -43.4189c-23.6279 -0.310547 -47.2676 -0.356445 -70.8955 0c-42.8916 0.654297 -50.7373 8.37305 -50.7832 50.0703c-0.125977 100.762 -0.0458984 201.512 -0.0458984 302.285z" />
    <glyph glyph-name="i" unicode="&#xef;" horiz-adv-x="319" 
d="M79.5488 354.111h-0.516602c0 96.833 -0.0117188 193.666 0.0224609 290.511c0 10.4648 -0.321289 20.9756 0.597656 31.3828c1.81445 20.5039 11.5322 31.7148 31.7715 32.4502c34.0928 1.26367 68.2773 1.16016 102.37 0.149414
c17.7471 -0.516602 22.3994 -6.34082 23.9502 -24.4326c0.895508 -10.4072 0.413086 -20.918 0.413086 -31.3828c-0.0576172 -163.583 -0.609375 -327.154 0.137695 -490.714c0.171875 -38.9629 5.63965 -77.9141 6.82324 -116.9
c1.06836 -35.7119 -7.19043 -42.9482 -43.8447 -43.4189c-23.6279 -0.310547 -47.2676 -0.356445 -70.8955 0c-42.8916 0.654297 -50.7373 8.37305 -50.7832 50.0703c-0.125977 100.762 -0.0458984 201.512 -0.0458984 302.285z" />
    <glyph glyph-name="i" unicode="&#xee;" horiz-adv-x="319" 
d="M79.5488 354.111h-0.516602c0 96.833 -0.0117188 193.666 0.0224609 290.511c0 10.4648 -0.321289 20.9756 0.597656 31.3828c1.81445 20.5039 11.5322 31.7148 31.7715 32.4502c34.0928 1.26367 68.2773 1.16016 102.37 0.149414
c17.7471 -0.516602 22.3994 -6.34082 23.9502 -24.4326c0.895508 -10.4072 0.413086 -20.918 0.413086 -31.3828c-0.0576172 -163.583 -0.609375 -327.154 0.137695 -490.714c0.171875 -38.9629 5.63965 -77.9141 6.82324 -116.9
c1.06836 -35.7119 -7.19043 -42.9482 -43.8447 -43.4189c-23.6279 -0.310547 -47.2676 -0.356445 -70.8955 0c-42.8916 0.654297 -50.7373 8.37305 -50.7832 50.0703c-0.125977 100.762 -0.0458984 201.512 -0.0458984 302.285z" />
    <glyph glyph-name="i" unicode="&#xcf;" horiz-adv-x="319" 
d="M79.5488 354.111h-0.516602c0 96.833 -0.0117188 193.666 0.0224609 290.511c0 10.4648 -0.321289 20.9756 0.597656 31.3828c1.81445 20.5039 11.5322 31.7148 31.7715 32.4502c34.0928 1.26367 68.2773 1.16016 102.37 0.149414
c17.7471 -0.516602 22.3994 -6.34082 23.9502 -24.4326c0.895508 -10.4072 0.413086 -20.918 0.413086 -31.3828c-0.0576172 -163.583 -0.609375 -327.154 0.137695 -490.714c0.171875 -38.9629 5.63965 -77.9141 6.82324 -116.9
c1.06836 -35.7119 -7.19043 -42.9482 -43.8447 -43.4189c-23.6279 -0.310547 -47.2676 -0.356445 -70.8955 0c-42.8916 0.654297 -50.7373 8.37305 -50.7832 50.0703c-0.125977 100.762 -0.0458984 201.512 -0.0458984 302.285z" />
    <glyph glyph-name="i" unicode="&#xce;" horiz-adv-x="319" 
d="M79.5488 354.111h-0.516602c0 96.833 -0.0117188 193.666 0.0224609 290.511c0 10.4648 -0.321289 20.9756 0.597656 31.3828c1.81445 20.5039 11.5322 31.7148 31.7715 32.4502c34.0928 1.26367 68.2773 1.16016 102.37 0.149414
c17.7471 -0.516602 22.3994 -6.34082 23.9502 -24.4326c0.895508 -10.4072 0.413086 -20.918 0.413086 -31.3828c-0.0576172 -163.583 -0.609375 -327.154 0.137695 -490.714c0.171875 -38.9629 5.63965 -77.9141 6.82324 -116.9
c1.06836 -35.7119 -7.19043 -42.9482 -43.8447 -43.4189c-23.6279 -0.310547 -47.2676 -0.356445 -70.8955 0c-42.8916 0.654297 -50.7373 8.37305 -50.7832 50.0703c-0.125977 100.762 -0.0458984 201.512 -0.0458984 302.285z" />
    <glyph glyph-name="i" unicode="i" horiz-adv-x="319" 
d="M79.5488 354.111h-0.516602c0 96.833 -0.0117188 193.666 0.0224609 290.511c0 10.4648 -0.321289 20.9756 0.597656 31.3828c1.81445 20.5039 11.5322 31.7148 31.7715 32.4502c34.0928 1.26367 68.2773 1.16016 102.37 0.149414
c17.7471 -0.516602 22.3994 -6.34082 23.9502 -24.4326c0.895508 -10.4072 0.413086 -20.918 0.413086 -31.3828c-0.0576172 -163.583 -0.609375 -327.154 0.137695 -490.714c0.171875 -38.9629 5.63965 -77.9141 6.82324 -116.9
c1.06836 -35.7119 -7.19043 -42.9482 -43.8447 -43.4189c-23.6279 -0.310547 -47.2676 -0.356445 -70.8955 0c-42.8916 0.654297 -50.7373 8.37305 -50.7832 50.0703c-0.125977 100.762 -0.0458984 201.512 -0.0458984 302.285z" />
    <glyph glyph-name="j" unicode="J" horiz-adv-x="699" 
d="M464.396 459.479c0 62.7295 -0.336914 125.427 0.133789 188.167c0.310547 41.1455 4.96289 46.6934 48.3027 55.0898c19.0566 3.69922 38.7676 5.44531 58.2031 5.61719c37.4355 0.344727 58.8584 -29.1191 58.2148 -55.1025
c-1.59668 -65.6699 -4.42285 -128.882 0 -194.482c4.65234 -69.001 0.896484 -138.151 -0.861328 -207.187c-1.45898 -57.7549 -24.8691 -111.777 -56.1934 -161.078c-14.749 -23.2373 -39.25 -37.0791 -63.3145 -50.4385
c-69.4492 -38.5957 -145.284 -55.2627 -223.244 -43.9482c-65.21 9.45312 -131.235 25.0752 -184.626 67.9092c-34.9883 28.0732 -58.7656 65.0947 -76.6621 104.908c-11.6934 25.9941 0.631836 40.1689 31.543 40.7549c34.1846 0.643555 68.4385 -0.849609 102.543 1.08008
c24.5586 1.41309 43.2012 -4.9502 58.3066 -24.2021c16.2656 -20.7451 37.0449 -35.0693 64.085 -41.5596c88.8848 -21.2969 184.994 34.8965 183.834 130.099c-0.74707 61.4307 -0.138672 122.896 -0.264648 184.373z" />
    <glyph glyph-name="j" unicode="j" horiz-adv-x="699" 
d="M464.396 459.479c0 62.7295 -0.336914 125.427 0.133789 188.167c0.310547 41.1455 4.96289 46.6934 48.3027 55.0898c19.0566 3.69922 38.7676 5.44531 58.2031 5.61719c37.4355 0.344727 58.8584 -29.1191 58.2148 -55.1025
c-1.59668 -65.6699 -4.42285 -128.882 0 -194.482c4.65234 -69.001 0.896484 -138.151 -0.861328 -207.187c-1.45898 -57.7549 -24.8691 -111.777 -56.1934 -161.078c-14.749 -23.2373 -39.25 -37.0791 -63.3145 -50.4385
c-69.4492 -38.5957 -145.284 -55.2627 -223.244 -43.9482c-65.21 9.45312 -131.235 25.0752 -184.626 67.9092c-34.9883 28.0732 -58.7656 65.0947 -76.6621 104.908c-11.6934 25.9941 0.631836 40.1689 31.543 40.7549c34.1846 0.643555 68.4385 -0.849609 102.543 1.08008
c24.5586 1.41309 43.2012 -4.9502 58.3066 -24.2021c16.2656 -20.7451 37.0449 -35.0693 64.085 -41.5596c88.8848 -21.2969 184.994 34.8965 183.834 130.099c-0.74707 61.4307 -0.138672 122.896 -0.264648 184.373z" />
    <glyph glyph-name="k" unicode="K" horiz-adv-x="734" 
d="M264.645 508.941c1.5625 -5.61719 8.32129 -7.96973 13.0771 -4.59277c13.3359 9.47656 24.0527 16.5068 33.1504 25.0986c52.207 49.2324 104.438 98.4873 155.163 149.109c20.6758 20.6299 42.7988 29.7041 72.9512 29.3252
c38.3311 -0.482422 78.707 -0.195312 117.13 0.448242c16.127 0.275391 30.2783 2.67578 49.8633 -0.505859c6.375 -1.03418 9.29297 -8.59277 5.26074 -13.6357c-5.47949 -6.85742 -9.70703 -12.1641 -14.5771 -16.874
c-79.7871 -77.1338 -160.011 -153.842 -239.625 -231.147c-18.333 -17.8047 -35.2529 -37.0225 -52.0811 -56.1934c-19.1826 -21.8477 -21.8135 -40.376 -6.55957 -64.3262c9.94727 -15.5879 22.5713 -29.9922 35.9072 -43.1328
c47.2217 -46.5215 95.374 -92.1699 142.986 -138.312c36.7119 -35.5625 67.5771 -76.6045 110.319 -106.665c8.75293 -6.14551 20.4121 -13.1064 19.1025 -27.2119c-0.378906 -4.13477 -4.14648 -7.17871 -8.30469 -7.21289
c-60.1211 -0.505859 -120.323 -0.379883 -179.216 -1.18359c-13.5312 1.05664 -25.3857 2.44629 -36.1836 11.6934c-26.7295 22.9502 -51.2188 48.29 -77.2822 71.9873c-28.9814 26.3506 -58.4102 52.2881 -88.2295 77.7656
c-13.5088 11.5557 -28.4072 21.2969 -50.542 18.4707c-2.99805 -0.378906 -5.53711 -2.53809 -6.58203 -5.375c-3.15918 -8.60352 -7.59277 -17.9766 -7.59277 -27.3613c-0.0234375 -36.9297 0.516602 -73.9971 3.95117 -110.743
c3.05566 -32.7256 -7.12207 -46.4297 -42.0762 -46.8428c-33.1504 -0.402344 -66.3242 -0.666992 -99.4521 0.194336c-23.4678 0.620117 -28.7402 5.88086 -30.0264 28.7393c-2.6875 47.4053 -6.19141 94.8457 -6.45605 142.286
c-0.849609 156.357 -0.390625 312.715 -0.436523 469.084c0 3.97461 0.310547 7.97168 0.0234375 11.9229c-3.20508 45.085 18.6426 66.002 66.8525 63.3252c20.6533 -1.14844 41.4785 0.424805 62.1543 -0.643555c34.207 -1.72266 43.3848 -11.1299 43.9248 -43.7295
c0.505859 -30.4854 0.540039 -60.96 0.482422 -91.4229c0 -20.5264 6.53613 -39.2842 12.9229 -62.3379z" />
    <glyph glyph-name="k" unicode="k" horiz-adv-x="734" 
d="M264.645 508.941c1.5625 -5.61719 8.32129 -7.96973 13.0771 -4.59277c13.3359 9.47656 24.0527 16.5068 33.1504 25.0986c52.207 49.2324 104.438 98.4873 155.163 149.109c20.6758 20.6299 42.7988 29.7041 72.9512 29.3252
c38.3311 -0.482422 78.707 -0.195312 117.13 0.448242c16.127 0.275391 30.2783 2.67578 49.8633 -0.505859c6.375 -1.03418 9.29297 -8.59277 5.26074 -13.6357c-5.47949 -6.85742 -9.70703 -12.1641 -14.5771 -16.874
c-79.7871 -77.1338 -160.011 -153.842 -239.625 -231.147c-18.333 -17.8047 -35.2529 -37.0225 -52.0811 -56.1934c-19.1826 -21.8477 -21.8135 -40.376 -6.55957 -64.3262c9.94727 -15.5879 22.5713 -29.9922 35.9072 -43.1328
c47.2217 -46.5215 95.374 -92.1699 142.986 -138.312c36.7119 -35.5625 67.5771 -76.6045 110.319 -106.665c8.75293 -6.14551 20.4121 -13.1064 19.1025 -27.2119c-0.378906 -4.13477 -4.14648 -7.17871 -8.30469 -7.21289
c-60.1211 -0.505859 -120.323 -0.379883 -179.216 -1.18359c-13.5312 1.05664 -25.3857 2.44629 -36.1836 11.6934c-26.7295 22.9502 -51.2188 48.29 -77.2822 71.9873c-28.9814 26.3506 -58.4102 52.2881 -88.2295 77.7656
c-13.5088 11.5557 -28.4072 21.2969 -50.542 18.4707c-2.99805 -0.378906 -5.53711 -2.53809 -6.58203 -5.375c-3.15918 -8.60352 -7.59277 -17.9766 -7.59277 -27.3613c-0.0234375 -36.9297 0.516602 -73.9971 3.95117 -110.743
c3.05566 -32.7256 -7.12207 -46.4297 -42.0762 -46.8428c-33.1504 -0.402344 -66.3242 -0.666992 -99.4521 0.194336c-23.4678 0.620117 -28.7402 5.88086 -30.0264 28.7393c-2.6875 47.4053 -6.19141 94.8457 -6.45605 142.286
c-0.849609 156.357 -0.390625 312.715 -0.436523 469.084c0 3.97461 0.310547 7.97168 0.0234375 11.9229c-3.20508 45.085 18.6426 66.002 66.8525 63.3252c20.6533 -1.14844 41.4785 0.424805 62.1543 -0.643555c34.207 -1.72266 43.3848 -11.1299 43.9248 -43.7295
c0.505859 -30.4854 0.540039 -60.96 0.482422 -91.4229c0 -20.5264 6.53613 -39.2842 12.9229 -62.3379z" />
    <glyph glyph-name="l" unicode="L" horiz-adv-x="731" 
d="M90.6182 11.6689c-1.89551 0.81543 -3.47656 2.31934 -4.79785 4.35254c-7.66211 11.7734 -6.59375 40.9502 -6.68555 51.3574c-0.873047 98.3262 -1.4707 196.641 -0.918945 294.99c0.275391 49.0596 5.36426 98.1309 1.71191 147.168
s0.172852 97.2588 -1.53906 146.101c-0.310547 9.02832 0.195312 18.459 2.56152 27.1201c5.39844 19.6191 12.8076 25.7646 33.6787 26.1553c38.0898 0.74707 76.2031 0.21875 113.466 0.21875c21.0664 -20.7217 14.749 -44.4531 13.1758 -67.6104
c-1.30957 -19.252 -1.48145 -38.5957 -1.69922 -57.8936c-0.0576172 -5.06543 0.757812 -11.2568 0.183594 -16.1963c-2.72266 -124.355 0.195312 -237.167 -4.26172 -356.135c-1.30957 -34.8965 13.2207 -63.1768 64.1758 -67.748
c16.9893 -1.50488 34.1846 -0.655273 51.2764 -0.609375c61.8213 0.171875 123.654 -0.149414 185.453 0.941406c31.3125 0.5625 62.5908 4.80078 93.9033 5.375c16.7363 0.310547 33.748 -2.71094 50.2891 -5.9502c27.6826 -5.42188 26.9932 -6.55859 29.3477 -31.9443
c2.90625 -31.1631 -7.92578 -59.3174 -17.7588 -87.5059c-2.36621 -6.75391 -12.3252 -12.8076 -20.0674 -15.2539c-8.37402 -2.66504 -18.2295 -0.81543 -27.4307 -0.81543c-128.904 0.0234375 -257.82 0.436523 -386.713 -0.149414
c-54.0107 -0.229492 -115.718 -18.0342 -167.351 4.03223z" />
    <glyph glyph-name="l" unicode="l" horiz-adv-x="731" 
d="M90.6182 11.6689c-1.89551 0.81543 -3.47656 2.31934 -4.79785 4.35254c-7.66211 11.7734 -6.59375 40.9502 -6.68555 51.3574c-0.873047 98.3262 -1.4707 196.641 -0.918945 294.99c0.275391 49.0596 5.36426 98.1309 1.71191 147.168
s0.172852 97.2588 -1.53906 146.101c-0.310547 9.02832 0.195312 18.459 2.56152 27.1201c5.39844 19.6191 12.8076 25.7646 33.6787 26.1553c38.0898 0.74707 76.2031 0.21875 113.466 0.21875c21.0664 -20.7217 14.749 -44.4531 13.1758 -67.6104
c-1.30957 -19.252 -1.48145 -38.5957 -1.69922 -57.8936c-0.0576172 -5.06543 0.757812 -11.2568 0.183594 -16.1963c-2.72266 -124.355 0.195312 -237.167 -4.26172 -356.135c-1.30957 -34.8965 13.2207 -63.1768 64.1758 -67.748
c16.9893 -1.50488 34.1846 -0.655273 51.2764 -0.609375c61.8213 0.171875 123.654 -0.149414 185.453 0.941406c31.3125 0.5625 62.5908 4.80078 93.9033 5.375c16.7363 0.310547 33.748 -2.71094 50.2891 -5.9502c27.6826 -5.42188 26.9932 -6.55859 29.3477 -31.9443
c2.90625 -31.1631 -7.92578 -59.3174 -17.7588 -87.5059c-2.36621 -6.75391 -12.3252 -12.8076 -20.0674 -15.2539c-8.37402 -2.66504 -18.2295 -0.81543 -27.4307 -0.81543c-128.904 0.0234375 -257.82 0.436523 -386.713 -0.149414
c-54.0107 -0.229492 -115.718 -18.0342 -167.351 4.03223z" />
    <glyph glyph-name="m" unicode="M" horiz-adv-x="1011" 
d="M923.787 2.39941c-39.7441 0 -80.4756 -0.53418 -121.161 0.201172c-24.2598 0.448242 -29.6816 5.75488 -29.9111 29.8887c-0.631836 64.418 -0.356445 128.858 -0.402344 193.311c-0.0234375 13.9102 1.44727 27.9814 -0.436523 41.6396
c-1.5166 11.1191 -5.1123 23.0996 -11.6367 32.1631c-15.7373 21.8594 -40.8359 18.0576 -52.6211 -6.16797c-20.7109 -42.5811 -39.9053 -85.8398 -59.0762 -129.099c-17.9189 -40.4219 -34.7236 -81.3262 -52.4248 -121.828
c-10.0049 -22.8926 -31.6348 -33.5293 -58.0654 -29.4512c-19.918 3.06738 -39.9277 4.62988 -60.0869 4.45801c-19.332 -0.161133 -34.1035 5.80078 -44.9014 20.3545c-8.32812 11.2109 -16.8975 22.5254 -23.1689 34.8164
c-29.3945 57.6631 -57.8008 115.752 -87.0918 173.484c-6.27148 12.3711 -13.6807 24.4893 -22.3076 35.459c-17.333 22.1123 -44.8662 19.4814 -54.7451 -6.21484c-5.7207 -14.875 -7.68457 -31.8867 -7.4668 -47.876c0.413086 -30.0723 4.36426 -60.1104 5.49023 -90.1709
c1.26367 -34.0693 1.40137 -68.2197 1.30957 -102.335c-0.0693359 -28.2344 -4.33105 -32.2207 -34.5986 -32.6572c-31.543 -0.458984 -63.1201 -0.700195 -94.6514 0.0810547c-25.1562 0.608398 -34.7246 10.4521 -36.5625 34.7471
c-0.367188 5.04297 -0.171875 10.0967 -0.171875 15.1504c-0.0458984 194.574 -0.263672 389.148 0.149414 583.723c0.0341797 15.415 2.35449 30.8301 4.31836 45.6592c1.11426 8.44238 6.52441 15.8975 14.4043 19.1133c15.415 6.29492 30.4746 7.69629 46.0625 7.4668
c23.6396 -0.367188 47.3369 0.425781 70.9766 -0.321289c31.0146 -0.964844 54.3096 -12.417 67.8408 -41.9375c54.3438 -118.543 110.318 -236.362 166.133 -354.285c3.29688 -6.96094 10.9121 -18.54 14.8984 -25.1338c1.5625 -2.58496 2.46973 -5.59473 4.2041 -8.06445
c23.0771 -33.1963 53.1035 -33.9082 73.6533 1.01172c21.2393 36.1025 38.4004 74.4336 57.1924 111.857c1.67676 3.34277 1.91797 7.35156 3.53809 10.7627c40.0195 84.7373 81.6709 168.82 119.324 254.512c12.7158 28.958 33.1045 49.8867 61.9707 51.6094
c32.7598 1.95312 65.6006 0.988281 98.418 0c25.8906 -0.78125 36.7568 -17.8389 43.5342 -42.5928c3.58398 -13.1523 4.96191 -27.1895 5.03125 -40.8242c0.608398 -166.775 0.574219 -333.551 1.30957 -500.326c0.0917969 -21.2275 4.47949 -42.3857 5.52441 -63.6357
c0.930664 -18.6318 4.93945 -38.1475 -13.7949 -58.5479z" />
    <glyph glyph-name="m" unicode="m" horiz-adv-x="1011" 
d="M923.787 2.39941c-39.7441 0 -80.4756 -0.53418 -121.161 0.201172c-24.2598 0.448242 -29.6816 5.75488 -29.9111 29.8887c-0.631836 64.418 -0.356445 128.858 -0.402344 193.311c-0.0234375 13.9102 1.44727 27.9814 -0.436523 41.6396
c-1.5166 11.1191 -5.1123 23.0996 -11.6367 32.1631c-15.7373 21.8594 -40.8359 18.0576 -52.6211 -6.16797c-20.7109 -42.5811 -39.9053 -85.8398 -59.0762 -129.099c-17.9189 -40.4219 -34.7236 -81.3262 -52.4248 -121.828
c-10.0049 -22.8926 -31.6348 -33.5293 -58.0654 -29.4512c-19.918 3.06738 -39.9277 4.62988 -60.0869 4.45801c-19.332 -0.161133 -34.1035 5.80078 -44.9014 20.3545c-8.32812 11.2109 -16.8975 22.5254 -23.1689 34.8164
c-29.3945 57.6631 -57.8008 115.752 -87.0918 173.484c-6.27148 12.3711 -13.6807 24.4893 -22.3076 35.459c-17.333 22.1123 -44.8662 19.4814 -54.7451 -6.21484c-5.7207 -14.875 -7.68457 -31.8867 -7.4668 -47.876c0.413086 -30.0723 4.36426 -60.1104 5.49023 -90.1709
c1.26367 -34.0693 1.40137 -68.2197 1.30957 -102.335c-0.0693359 -28.2344 -4.33105 -32.2207 -34.5986 -32.6572c-31.543 -0.458984 -63.1201 -0.700195 -94.6514 0.0810547c-25.1562 0.608398 -34.7246 10.4521 -36.5625 34.7471
c-0.367188 5.04297 -0.171875 10.0967 -0.171875 15.1504c-0.0458984 194.574 -0.263672 389.148 0.149414 583.723c0.0341797 15.415 2.35449 30.8301 4.31836 45.6592c1.11426 8.44238 6.52441 15.8975 14.4043 19.1133c15.415 6.29492 30.4746 7.69629 46.0625 7.4668
c23.6396 -0.367188 47.3369 0.425781 70.9766 -0.321289c31.0146 -0.964844 54.3096 -12.417 67.8408 -41.9375c54.3438 -118.543 110.318 -236.362 166.133 -354.285c3.29688 -6.96094 10.9121 -18.54 14.8984 -25.1338c1.5625 -2.58496 2.46973 -5.59473 4.2041 -8.06445
c23.0771 -33.1963 53.1035 -33.9082 73.6533 1.01172c21.2393 36.1025 38.4004 74.4336 57.1924 111.857c1.67676 3.34277 1.91797 7.35156 3.53809 10.7627c40.0195 84.7373 81.6709 168.82 119.324 254.512c12.7158 28.958 33.1045 49.8867 61.9707 51.6094
c32.7598 1.95312 65.6006 0.988281 98.418 0c25.8906 -0.78125 36.7568 -17.8389 43.5342 -42.5928c3.58398 -13.1523 4.96191 -27.1895 5.03125 -40.8242c0.608398 -166.775 0.574219 -333.551 1.30957 -500.326c0.0917969 -21.2275 4.47949 -42.3857 5.52441 -63.6357
c0.930664 -18.6318 4.93945 -38.1475 -13.7949 -58.5479z" />
    <glyph glyph-name="n" unicode="N" horiz-adv-x="921" 
d="M266.773 416.623c-5.61719 1.74609 -11.6787 -0.685547 -14.7344 -5.7168c-14.1748 -23.3984 -13.9336 -49.5879 -14.5078 -74.2383c-0.942383 -40.2607 3.87012 -80.625 4.75488 -120.967c1.35547 -61.5459 1.88379 -123.104 1.83789 -184.673
c-0.0234375 -22.8125 -5.6748 -28.498 -27.4766 -29.0381c-34.1387 -0.873047 -68.335 -0.849609 -102.496 -0.206055c-20.6992 0.390625 -27.752 6.01953 -32.8984 25.4785c-1.78027 6.70801 -2.48047 13.6572 -2.49219 20.5957
c-0.378906 198.938 -0.711914 397.865 -0.757812 596.804c-0.0234375 57.0205 7.79883 64.8428 66.7031 64.751c91.71 -0.149414 75.2607 6.19141 136.496 -56.4688c91.6182 -93.7314 183.156 -187.532 275.085 -280.942c22.0205 -22.376 45.7979 -42.9141 74.9971 -55.9746
c25.3281 -11.3379 35.8613 -7.05371 43.0293 19.5381c2.99805 11.1191 2.90625 23.249 2.99805 34.9424c0.52832 87.7705 0.735352 175.518 1.06836 263.276c0.0234375 7.86816 -0.217773 15.7363 0.161133 23.582c1.67676 35.9072 14.7256 49.9551 50.1045 51.667
c23.6055 1.13672 47.3369 1.06738 70.9424 0.136719c23.3867 -0.930664 42.1904 -19.999 42.834 -43.3857c0.907227 -32.7031 0.298828 -65.4404 0.275391 -98.1895c-0.0234375 -61.5576 0.654297 -123.127 -0.414062 -184.685
c-0.964844 -56.0557 -5.57129 -112.088 -5.42188 -168.132c0.125977 -49.4961 4.65137 -98.9805 7.09766 -148.477c0.459961 -9.15527 0.483398 -18.333 0.368164 -27.499c-0.413086 -33.1279 -3.43457 -36.5166 -35.3789 -36.999
c-28.9238 -0.436523 -57.8477 0.52832 -86.7256 -0.494141c-21.2393 -0.769531 -38.1016 6.5127 -52.8271 21.2158c-114.121 114.086 -228.679 227.747 -342.282 342.351c-16.4609 16.6094 -29.2344 36.8604 -50.7373 48.0371
c-2.99805 1.55078 -6.21387 2.65332 -9.60254 3.70996z" />
    <glyph glyph-name="n" unicode="n" horiz-adv-x="921" 
d="M266.773 416.623c-5.61719 1.74609 -11.6787 -0.685547 -14.7344 -5.7168c-14.1748 -23.3984 -13.9336 -49.5879 -14.5078 -74.2383c-0.942383 -40.2607 3.87012 -80.625 4.75488 -120.967c1.35547 -61.5459 1.88379 -123.104 1.83789 -184.673
c-0.0234375 -22.8125 -5.6748 -28.498 -27.4766 -29.0381c-34.1387 -0.873047 -68.335 -0.849609 -102.496 -0.206055c-20.6992 0.390625 -27.752 6.01953 -32.8984 25.4785c-1.78027 6.70801 -2.48047 13.6572 -2.49219 20.5957
c-0.378906 198.938 -0.711914 397.865 -0.757812 596.804c-0.0234375 57.0205 7.79883 64.8428 66.7031 64.751c91.71 -0.149414 75.2607 6.19141 136.496 -56.4688c91.6182 -93.7314 183.156 -187.532 275.085 -280.942c22.0205 -22.376 45.7979 -42.9141 74.9971 -55.9746
c25.3281 -11.3379 35.8613 -7.05371 43.0293 19.5381c2.99805 11.1191 2.90625 23.249 2.99805 34.9424c0.52832 87.7705 0.735352 175.518 1.06836 263.276c0.0234375 7.86816 -0.217773 15.7363 0.161133 23.582c1.67676 35.9072 14.7256 49.9551 50.1045 51.667
c23.6055 1.13672 47.3369 1.06738 70.9424 0.136719c23.3867 -0.930664 42.1904 -19.999 42.834 -43.3857c0.907227 -32.7031 0.298828 -65.4404 0.275391 -98.1895c-0.0234375 -61.5576 0.654297 -123.127 -0.414062 -184.685
c-0.964844 -56.0557 -5.57129 -112.088 -5.42188 -168.132c0.125977 -49.4961 4.65137 -98.9805 7.09766 -148.477c0.459961 -9.15527 0.483398 -18.333 0.368164 -27.499c-0.413086 -33.1279 -3.43457 -36.5166 -35.3789 -36.999
c-28.9238 -0.436523 -57.8477 0.52832 -86.7256 -0.494141c-21.2393 -0.769531 -38.1016 6.5127 -52.8271 21.2158c-114.121 114.086 -228.679 227.747 -342.282 342.351c-16.4609 16.6094 -29.2344 36.8604 -50.7373 48.0371
c-2.99805 1.55078 -6.21387 2.65332 -9.60254 3.70996z" />
    <glyph glyph-name="o" unicode="O" horiz-adv-x="899" 
d="M449.118 -4.67578c-67.8525 -6.88086 -132.513 8.7207 -196.77 28.2939c-23.2373 7.09863 -43.3164 17.8154 -59.9258 36.1025c-8.74121 9.6377 -20.0322 16.8516 -29.8535 25.5352c-8.89062 7.87988 -18.3789 15.4033 -25.834 24.5928
c-40.043 49.3125 -71.0459 106.517 -83.8877 169.085c-6.44434 31.3818 -8.25879 63.6133 -5.78906 95.5352c2.60742 33.6904 5.77734 71.6191 14.7832 104.229c6.61621 23.9502 19.4238 45.5801 34.1953 65.3721c34.9199 46.8311 70.4365 89.5957 123.528 116.773
c35.46 18.1377 73.0791 35.873 112.421 43.374c97.1777 18.54 212.677 17.6211 305.73 -19.332c34.7012 -13.7842 63.0508 -37.5156 93.916 -57.3994c23.7773 -15.3232 42.7881 -36.5625 56.5723 -61.167c11.2109 -20.0215 17.5742 -42.2598 28.0732 -62.626
c10.8203 -21.0088 22.5713 -39.4795 28.832 -62.7061c17.6318 -65.3828 14.5762 -143.159 -15.4727 -203.878c-13.8418 -27.959 -23.9043 -59.6973 -39.7441 -86.0713c-16.7588 -27.9014 -37.4805 -51.748 -62.0732 -73.0557
c-73.7793 -63.8779 -158.333 -83.5547 -251.054 -82.6816c-9.24707 0.115234 -18.4365 0.0234375 -27.6484 0.0234375zM450.483 573.305c-35.2529 -3.69824 -68.3418 -2.15918 -101.711 -16.8623c-29.4521 -12.9805 -51.2656 -36.7119 -72.9873 -59.6514
c-22.6982 -23.9727 -41.2607 -43.1904 -51.2891 -75.709c-19.4121 -62.8672 -17.6436 -125.78 16.1387 -180.917c47.2676 -77.1797 119.909 -115.108 210.344 -117.016c32.4268 -0.689453 61.3271 12.5889 91.3076 20.7559c43.7529 11.9229 76.3174 40.8584 96.0635 82.2109
c10.4414 21.8477 17.6553 44.7754 27.6484 66.7266c11.9229 26.1787 20.6523 54.7119 16.873 83.7617c-3.66406 28.1543 -17.0234 55.1709 -30.3135 79.9014c-13.1523 24.4785 -31.876 45.8438 -53.1494 63.6025c-40.502 33.8174 -95.1328 58.8359 -148.925 53.1963z" />
    <glyph glyph-name="o" unicode="&#xf8;" horiz-adv-x="899" 
d="M449.118 -4.67578c-67.8525 -6.88086 -132.513 8.7207 -196.77 28.2939c-23.2373 7.09863 -43.3164 17.8154 -59.9258 36.1025c-8.74121 9.6377 -20.0322 16.8516 -29.8535 25.5352c-8.89062 7.87988 -18.3789 15.4033 -25.834 24.5928
c-40.043 49.3125 -71.0459 106.517 -83.8877 169.085c-6.44434 31.3818 -8.25879 63.6133 -5.78906 95.5352c2.60742 33.6904 5.77734 71.6191 14.7832 104.229c6.61621 23.9502 19.4238 45.5801 34.1953 65.3721c34.9199 46.8311 70.4365 89.5957 123.528 116.773
c35.46 18.1377 73.0791 35.873 112.421 43.374c97.1777 18.54 212.677 17.6211 305.73 -19.332c34.7012 -13.7842 63.0508 -37.5156 93.916 -57.3994c23.7773 -15.3232 42.7881 -36.5625 56.5723 -61.167c11.2109 -20.0215 17.5742 -42.2598 28.0732 -62.626
c10.8203 -21.0088 22.5713 -39.4795 28.832 -62.7061c17.6318 -65.3828 14.5762 -143.159 -15.4727 -203.878c-13.8418 -27.959 -23.9043 -59.6973 -39.7441 -86.0713c-16.7588 -27.9014 -37.4805 -51.748 -62.0732 -73.0557
c-73.7793 -63.8779 -158.333 -83.5547 -251.054 -82.6816c-9.24707 0.115234 -18.4365 0.0234375 -27.6484 0.0234375zM450.483 573.305c-35.2529 -3.69824 -68.3418 -2.15918 -101.711 -16.8623c-29.4521 -12.9805 -51.2656 -36.7119 -72.9873 -59.6514
c-22.6982 -23.9727 -41.2607 -43.1904 -51.2891 -75.709c-19.4121 -62.8672 -17.6436 -125.78 16.1387 -180.917c47.2676 -77.1797 119.909 -115.108 210.344 -117.016c32.4268 -0.689453 61.3271 12.5889 91.3076 20.7559c43.7529 11.9229 76.3174 40.8584 96.0635 82.2109
c10.4414 21.8477 17.6553 44.7754 27.6484 66.7266c11.9229 26.1787 20.6523 54.7119 16.873 83.7617c-3.66406 28.1543 -17.0234 55.1709 -30.3135 79.9014c-13.1523 24.4785 -31.876 45.8438 -53.1494 63.6025c-40.502 33.8174 -95.1328 58.8359 -148.925 53.1963z" />
    <glyph glyph-name="o" unicode="&#xf6;" horiz-adv-x="899" 
d="M449.118 -4.67578c-67.8525 -6.88086 -132.513 8.7207 -196.77 28.2939c-23.2373 7.09863 -43.3164 17.8154 -59.9258 36.1025c-8.74121 9.6377 -20.0322 16.8516 -29.8535 25.5352c-8.89062 7.87988 -18.3789 15.4033 -25.834 24.5928
c-40.043 49.3125 -71.0459 106.517 -83.8877 169.085c-6.44434 31.3818 -8.25879 63.6133 -5.78906 95.5352c2.60742 33.6904 5.77734 71.6191 14.7832 104.229c6.61621 23.9502 19.4238 45.5801 34.1953 65.3721c34.9199 46.8311 70.4365 89.5957 123.528 116.773
c35.46 18.1377 73.0791 35.873 112.421 43.374c97.1777 18.54 212.677 17.6211 305.73 -19.332c34.7012 -13.7842 63.0508 -37.5156 93.916 -57.3994c23.7773 -15.3232 42.7881 -36.5625 56.5723 -61.167c11.2109 -20.0215 17.5742 -42.2598 28.0732 -62.626
c10.8203 -21.0088 22.5713 -39.4795 28.832 -62.7061c17.6318 -65.3828 14.5762 -143.159 -15.4727 -203.878c-13.8418 -27.959 -23.9043 -59.6973 -39.7441 -86.0713c-16.7588 -27.9014 -37.4805 -51.748 -62.0732 -73.0557
c-73.7793 -63.8779 -158.333 -83.5547 -251.054 -82.6816c-9.24707 0.115234 -18.4365 0.0234375 -27.6484 0.0234375zM450.483 573.305c-35.2529 -3.69824 -68.3418 -2.15918 -101.711 -16.8623c-29.4521 -12.9805 -51.2656 -36.7119 -72.9873 -59.6514
c-22.6982 -23.9727 -41.2607 -43.1904 -51.2891 -75.709c-19.4121 -62.8672 -17.6436 -125.78 16.1387 -180.917c47.2676 -77.1797 119.909 -115.108 210.344 -117.016c32.4268 -0.689453 61.3271 12.5889 91.3076 20.7559c43.7529 11.9229 76.3174 40.8584 96.0635 82.2109
c10.4414 21.8477 17.6553 44.7754 27.6484 66.7266c11.9229 26.1787 20.6523 54.7119 16.873 83.7617c-3.66406 28.1543 -17.0234 55.1709 -30.3135 79.9014c-13.1523 24.4785 -31.876 45.8438 -53.1494 63.6025c-40.502 33.8174 -95.1328 58.8359 -148.925 53.1963z" />
    <glyph glyph-name="o" unicode="&#xf4;" horiz-adv-x="899" 
d="M449.118 -4.67578c-67.8525 -6.88086 -132.513 8.7207 -196.77 28.2939c-23.2373 7.09863 -43.3164 17.8154 -59.9258 36.1025c-8.74121 9.6377 -20.0322 16.8516 -29.8535 25.5352c-8.89062 7.87988 -18.3789 15.4033 -25.834 24.5928
c-40.043 49.3125 -71.0459 106.517 -83.8877 169.085c-6.44434 31.3818 -8.25879 63.6133 -5.78906 95.5352c2.60742 33.6904 5.77734 71.6191 14.7832 104.229c6.61621 23.9502 19.4238 45.5801 34.1953 65.3721c34.9199 46.8311 70.4365 89.5957 123.528 116.773
c35.46 18.1377 73.0791 35.873 112.421 43.374c97.1777 18.54 212.677 17.6211 305.73 -19.332c34.7012 -13.7842 63.0508 -37.5156 93.916 -57.3994c23.7773 -15.3232 42.7881 -36.5625 56.5723 -61.167c11.2109 -20.0215 17.5742 -42.2598 28.0732 -62.626
c10.8203 -21.0088 22.5713 -39.4795 28.832 -62.7061c17.6318 -65.3828 14.5762 -143.159 -15.4727 -203.878c-13.8418 -27.959 -23.9043 -59.6973 -39.7441 -86.0713c-16.7588 -27.9014 -37.4805 -51.748 -62.0732 -73.0557
c-73.7793 -63.8779 -158.333 -83.5547 -251.054 -82.6816c-9.24707 0.115234 -18.4365 0.0234375 -27.6484 0.0234375zM450.483 573.305c-35.2529 -3.69824 -68.3418 -2.15918 -101.711 -16.8623c-29.4521 -12.9805 -51.2656 -36.7119 -72.9873 -59.6514
c-22.6982 -23.9727 -41.2607 -43.1904 -51.2891 -75.709c-19.4121 -62.8672 -17.6436 -125.78 16.1387 -180.917c47.2676 -77.1797 119.909 -115.108 210.344 -117.016c32.4268 -0.689453 61.3271 12.5889 91.3076 20.7559c43.7529 11.9229 76.3174 40.8584 96.0635 82.2109
c10.4414 21.8477 17.6553 44.7754 27.6484 66.7266c11.9229 26.1787 20.6523 54.7119 16.873 83.7617c-3.66406 28.1543 -17.0234 55.1709 -30.3135 79.9014c-13.1523 24.4785 -31.876 45.8438 -53.1494 63.6025c-40.502 33.8174 -95.1328 58.8359 -148.925 53.1963z" />
    <glyph glyph-name="o" unicode="&#xd8;" horiz-adv-x="899" 
d="M449.118 -4.67578c-67.8525 -6.88086 -132.513 8.7207 -196.77 28.2939c-23.2373 7.09863 -43.3164 17.8154 -59.9258 36.1025c-8.74121 9.6377 -20.0322 16.8516 -29.8535 25.5352c-8.89062 7.87988 -18.3789 15.4033 -25.834 24.5928
c-40.043 49.3125 -71.0459 106.517 -83.8877 169.085c-6.44434 31.3818 -8.25879 63.6133 -5.78906 95.5352c2.60742 33.6904 5.77734 71.6191 14.7832 104.229c6.61621 23.9502 19.4238 45.5801 34.1953 65.3721c34.9199 46.8311 70.4365 89.5957 123.528 116.773
c35.46 18.1377 73.0791 35.873 112.421 43.374c97.1777 18.54 212.677 17.6211 305.73 -19.332c34.7012 -13.7842 63.0508 -37.5156 93.916 -57.3994c23.7773 -15.3232 42.7881 -36.5625 56.5723 -61.167c11.2109 -20.0215 17.5742 -42.2598 28.0732 -62.626
c10.8203 -21.0088 22.5713 -39.4795 28.832 -62.7061c17.6318 -65.3828 14.5762 -143.159 -15.4727 -203.878c-13.8418 -27.959 -23.9043 -59.6973 -39.7441 -86.0713c-16.7588 -27.9014 -37.4805 -51.748 -62.0732 -73.0557
c-73.7793 -63.8779 -158.333 -83.5547 -251.054 -82.6816c-9.24707 0.115234 -18.4365 0.0234375 -27.6484 0.0234375zM450.483 573.305c-35.2529 -3.69824 -68.3418 -2.15918 -101.711 -16.8623c-29.4521 -12.9805 -51.2656 -36.7119 -72.9873 -59.6514
c-22.6982 -23.9727 -41.2607 -43.1904 -51.2891 -75.709c-19.4121 -62.8672 -17.6436 -125.78 16.1387 -180.917c47.2676 -77.1797 119.909 -115.108 210.344 -117.016c32.4268 -0.689453 61.3271 12.5889 91.3076 20.7559c43.7529 11.9229 76.3174 40.8584 96.0635 82.2109
c10.4414 21.8477 17.6553 44.7754 27.6484 66.7266c11.9229 26.1787 20.6523 54.7119 16.873 83.7617c-3.66406 28.1543 -17.0234 55.1709 -30.3135 79.9014c-13.1523 24.4785 -31.876 45.8438 -53.1494 63.6025c-40.502 33.8174 -95.1328 58.8359 -148.925 53.1963z" />
    <glyph glyph-name="o" unicode="&#xd6;" horiz-adv-x="899" 
d="M449.118 -4.67578c-67.8525 -6.88086 -132.513 8.7207 -196.77 28.2939c-23.2373 7.09863 -43.3164 17.8154 -59.9258 36.1025c-8.74121 9.6377 -20.0322 16.8516 -29.8535 25.5352c-8.89062 7.87988 -18.3789 15.4033 -25.834 24.5928
c-40.043 49.3125 -71.0459 106.517 -83.8877 169.085c-6.44434 31.3818 -8.25879 63.6133 -5.78906 95.5352c2.60742 33.6904 5.77734 71.6191 14.7832 104.229c6.61621 23.9502 19.4238 45.5801 34.1953 65.3721c34.9199 46.8311 70.4365 89.5957 123.528 116.773
c35.46 18.1377 73.0791 35.873 112.421 43.374c97.1777 18.54 212.677 17.6211 305.73 -19.332c34.7012 -13.7842 63.0508 -37.5156 93.916 -57.3994c23.7773 -15.3232 42.7881 -36.5625 56.5723 -61.167c11.2109 -20.0215 17.5742 -42.2598 28.0732 -62.626
c10.8203 -21.0088 22.5713 -39.4795 28.832 -62.7061c17.6318 -65.3828 14.5762 -143.159 -15.4727 -203.878c-13.8418 -27.959 -23.9043 -59.6973 -39.7441 -86.0713c-16.7588 -27.9014 -37.4805 -51.748 -62.0732 -73.0557
c-73.7793 -63.8779 -158.333 -83.5547 -251.054 -82.6816c-9.24707 0.115234 -18.4365 0.0234375 -27.6484 0.0234375zM450.483 573.305c-35.2529 -3.69824 -68.3418 -2.15918 -101.711 -16.8623c-29.4521 -12.9805 -51.2656 -36.7119 -72.9873 -59.6514
c-22.6982 -23.9727 -41.2607 -43.1904 -51.2891 -75.709c-19.4121 -62.8672 -17.6436 -125.78 16.1387 -180.917c47.2676 -77.1797 119.909 -115.108 210.344 -117.016c32.4268 -0.689453 61.3271 12.5889 91.3076 20.7559c43.7529 11.9229 76.3174 40.8584 96.0635 82.2109
c10.4414 21.8477 17.6553 44.7754 27.6484 66.7266c11.9229 26.1787 20.6523 54.7119 16.873 83.7617c-3.66406 28.1543 -17.0234 55.1709 -30.3135 79.9014c-13.1523 24.4785 -31.876 45.8438 -53.1494 63.6025c-40.502 33.8174 -95.1328 58.8359 -148.925 53.1963z" />
    <glyph glyph-name="o" unicode="&#xd4;" horiz-adv-x="899" 
d="M449.118 -4.67578c-67.8525 -6.88086 -132.513 8.7207 -196.77 28.2939c-23.2373 7.09863 -43.3164 17.8154 -59.9258 36.1025c-8.74121 9.6377 -20.0322 16.8516 -29.8535 25.5352c-8.89062 7.87988 -18.3789 15.4033 -25.834 24.5928
c-40.043 49.3125 -71.0459 106.517 -83.8877 169.085c-6.44434 31.3818 -8.25879 63.6133 -5.78906 95.5352c2.60742 33.6904 5.77734 71.6191 14.7832 104.229c6.61621 23.9502 19.4238 45.5801 34.1953 65.3721c34.9199 46.8311 70.4365 89.5957 123.528 116.773
c35.46 18.1377 73.0791 35.873 112.421 43.374c97.1777 18.54 212.677 17.6211 305.73 -19.332c34.7012 -13.7842 63.0508 -37.5156 93.916 -57.3994c23.7773 -15.3232 42.7881 -36.5625 56.5723 -61.167c11.2109 -20.0215 17.5742 -42.2598 28.0732 -62.626
c10.8203 -21.0088 22.5713 -39.4795 28.832 -62.7061c17.6318 -65.3828 14.5762 -143.159 -15.4727 -203.878c-13.8418 -27.959 -23.9043 -59.6973 -39.7441 -86.0713c-16.7588 -27.9014 -37.4805 -51.748 -62.0732 -73.0557
c-73.7793 -63.8779 -158.333 -83.5547 -251.054 -82.6816c-9.24707 0.115234 -18.4365 0.0234375 -27.6484 0.0234375zM450.483 573.305c-35.2529 -3.69824 -68.3418 -2.15918 -101.711 -16.8623c-29.4521 -12.9805 -51.2656 -36.7119 -72.9873 -59.6514
c-22.6982 -23.9727 -41.2607 -43.1904 -51.2891 -75.709c-19.4121 -62.8672 -17.6436 -125.78 16.1387 -180.917c47.2676 -77.1797 119.909 -115.108 210.344 -117.016c32.4268 -0.689453 61.3271 12.5889 91.3076 20.7559c43.7529 11.9229 76.3174 40.8584 96.0635 82.2109
c10.4414 21.8477 17.6553 44.7754 27.6484 66.7266c11.9229 26.1787 20.6523 54.7119 16.873 83.7617c-3.66406 28.1543 -17.0234 55.1709 -30.3135 79.9014c-13.1523 24.4785 -31.876 45.8438 -53.1494 63.6025c-40.502 33.8174 -95.1328 58.8359 -148.925 53.1963z" />
    <glyph glyph-name="o" unicode="o" horiz-adv-x="899" 
d="M449.118 -4.67578c-67.8525 -6.88086 -132.513 8.7207 -196.77 28.2939c-23.2373 7.09863 -43.3164 17.8154 -59.9258 36.1025c-8.74121 9.6377 -20.0322 16.8516 -29.8535 25.5352c-8.89062 7.87988 -18.3789 15.4033 -25.834 24.5928
c-40.043 49.3125 -71.0459 106.517 -83.8877 169.085c-6.44434 31.3818 -8.25879 63.6133 -5.78906 95.5352c2.60742 33.6904 5.77734 71.6191 14.7832 104.229c6.61621 23.9502 19.4238 45.5801 34.1953 65.3721c34.9199 46.8311 70.4365 89.5957 123.528 116.773
c35.46 18.1377 73.0791 35.873 112.421 43.374c97.1777 18.54 212.677 17.6211 305.73 -19.332c34.7012 -13.7842 63.0508 -37.5156 93.916 -57.3994c23.7773 -15.3232 42.7881 -36.5625 56.5723 -61.167c11.2109 -20.0215 17.5742 -42.2598 28.0732 -62.626
c10.8203 -21.0088 22.5713 -39.4795 28.832 -62.7061c17.6318 -65.3828 14.5762 -143.159 -15.4727 -203.878c-13.8418 -27.959 -23.9043 -59.6973 -39.7441 -86.0713c-16.7588 -27.9014 -37.4805 -51.748 -62.0732 -73.0557
c-73.7793 -63.8779 -158.333 -83.5547 -251.054 -82.6816c-9.24707 0.115234 -18.4365 0.0234375 -27.6484 0.0234375zM450.483 573.305c-35.2529 -3.69824 -68.3418 -2.15918 -101.711 -16.8623c-29.4521 -12.9805 -51.2656 -36.7119 -72.9873 -59.6514
c-22.6982 -23.9727 -41.2607 -43.1904 -51.2891 -75.709c-19.4121 -62.8672 -17.6436 -125.78 16.1387 -180.917c47.2676 -77.1797 119.909 -115.108 210.344 -117.016c32.4268 -0.689453 61.3271 12.5889 91.3076 20.7559c43.7529 11.9229 76.3174 40.8584 96.0635 82.2109
c10.4414 21.8477 17.6553 44.7754 27.6484 66.7266c11.9229 26.1787 20.6523 54.7119 16.873 83.7617c-3.66406 28.1543 -17.0234 55.1709 -30.3135 79.9014c-13.1523 24.4785 -31.876 45.8438 -53.1494 63.6025c-40.502 33.8174 -95.1328 58.8359 -148.925 53.1963z" />
    <glyph glyph-name="p" unicode="P" horiz-adv-x="837" 
d="M79.0078 354.721l0.0371094 282.52c0 9.14355 -0.207031 18.333 0.298828 27.4531c1.57324 28.5332 8.25879 37.1143 35.6543 42.502c11.4297 2.25098 23.4795 1.96387 35.2529 2.00977c82.7617 0.333008 165.558 1.57324 248.297 0.263672
c61.4883 -0.976562 123.046 -3.88281 184.327 -8.70703c54.459 -4.27344 98.3838 -33.0703 137.853 -68.4727c33.668 -30.21 57.8242 -69.127 68.7598 -113.087c5.36426 -21.5723 7.67285 -43.8105 7.77637 -66.0146
c0.0800781 -16.4834 -2.04492 -32.8291 -4.18164 -49.1406c-1.90723 -14.6113 -1.94141 -29.7734 -4.98535 -44.1553c-5.65137 -26.707 -22.1807 -49.0488 -42.6963 -66.4746c-52.8271 -44.8789 -112.236 -75.0205 -183.201 -79.8447
c-24.5928 -1.67676 -48.8066 -1.06836 -73.3311 -0.597656c-33.8174 0.654297 -67.7266 -3.92871 -101.646 -5.19238c-28.8662 -1.06836 -57.9736 -2.86035 -86.6211 -0.287109c-45.3037 4.06641 -68.082 -21.9629 -64.6709 -61.833
c2.65332 -31.1982 1.82617 -62.7637 1.26367 -94.1221c-0.757812 -42.0869 -7.01855 -48.0029 -47.9805 -48.8301c-23.6514 -0.482422 -47.291 -0.999023 -70.9424 -0.654297c-23.8809 0.367188 -33.3232 7.97168 -37.6191 30.9795
c-1.90723 10.1543 -1.10352 20.8711 -1.10352 31.3242c-0.0693359 96.7871 -0.0458984 193.574 -0.0458984 290.361h-0.494141zM243.88 467.73l0.353516 0.0126953c0 -22.2266 0.207031 -44.4424 -0.0683594 -66.6689c-0.195312 -17.8271 8.5 -30.5547 24.1904 -36.8037
c11.7969 -4.69824 25.0293 -7.48926 37.7217 -7.94922c35.4248 -1.30957 71.2178 1.91797 106.252 -2.01074c40.6631 -4.56055 80.3955 2.95215 120.542 3.6416c21.6182 0.367188 43.4893 7.94824 64.5098 14.5762c35.1035 11.0498 48.4971 29.7959 50.1973 65.9443
c0.310547 6.53613 -0.102539 13.0723 0.242188 19.6084c2.99805 53.873 -28.9004 94.4102 -81.624 102.37c-44.9932 6.81152 -90.4688 12.1992 -135.91 14.0137c-36.3438 1.45898 -72.9863 -2.7334 -109.411 -5.69727c-19.3896 -1.57324 -38.5723 -5.70801 -57.8125 -9.0166
c-14.1172 -2.42383 -19.252 -12.0264 -19.2285 -25.3398c0.0693359 -22.2383 0.0458984 -44.4648 0.0458984 -66.6807z" />
    <glyph glyph-name="p" unicode="p" horiz-adv-x="837" 
d="M79.0078 354.721l0.0371094 282.52c0 9.14355 -0.207031 18.333 0.298828 27.4531c1.57324 28.5332 8.25879 37.1143 35.6543 42.502c11.4297 2.25098 23.4795 1.96387 35.2529 2.00977c82.7617 0.333008 165.558 1.57324 248.297 0.263672
c61.4883 -0.976562 123.046 -3.88281 184.327 -8.70703c54.459 -4.27344 98.3838 -33.0703 137.853 -68.4727c33.668 -30.21 57.8242 -69.127 68.7598 -113.087c5.36426 -21.5723 7.67285 -43.8105 7.77637 -66.0146
c0.0800781 -16.4834 -2.04492 -32.8291 -4.18164 -49.1406c-1.90723 -14.6113 -1.94141 -29.7734 -4.98535 -44.1553c-5.65137 -26.707 -22.1807 -49.0488 -42.6963 -66.4746c-52.8271 -44.8789 -112.236 -75.0205 -183.201 -79.8447
c-24.5928 -1.67676 -48.8066 -1.06836 -73.3311 -0.597656c-33.8174 0.654297 -67.7266 -3.92871 -101.646 -5.19238c-28.8662 -1.06836 -57.9736 -2.86035 -86.6211 -0.287109c-45.3037 4.06641 -68.082 -21.9629 -64.6709 -61.833
c2.65332 -31.1982 1.82617 -62.7637 1.26367 -94.1221c-0.757812 -42.0869 -7.01855 -48.0029 -47.9805 -48.8301c-23.6514 -0.482422 -47.291 -0.999023 -70.9424 -0.654297c-23.8809 0.367188 -33.3232 7.97168 -37.6191 30.9795
c-1.90723 10.1543 -1.10352 20.8711 -1.10352 31.3242c-0.0693359 96.7871 -0.0458984 193.574 -0.0458984 290.361h-0.494141zM243.88 467.73l0.353516 0.0126953c0 -22.2266 0.207031 -44.4424 -0.0683594 -66.6689c-0.195312 -17.8271 8.5 -30.5547 24.1904 -36.8037
c11.7969 -4.69824 25.0293 -7.48926 37.7217 -7.94922c35.4248 -1.30957 71.2178 1.91797 106.252 -2.01074c40.6631 -4.56055 80.3955 2.95215 120.542 3.6416c21.6182 0.367188 43.4893 7.94824 64.5098 14.5762c35.1035 11.0498 48.4971 29.7959 50.1973 65.9443
c0.310547 6.53613 -0.102539 13.0723 0.242188 19.6084c2.99805 53.873 -28.9004 94.4102 -81.624 102.37c-44.9932 6.81152 -90.4688 12.1992 -135.91 14.0137c-36.3438 1.45898 -72.9863 -2.7334 -109.411 -5.69727c-19.3896 -1.57324 -38.5723 -5.70801 -57.8125 -9.0166
c-14.1172 -2.42383 -19.252 -12.0264 -19.2285 -25.3398c0.0693359 -22.2383 0.0458984 -44.4648 0.0458984 -66.6807z" />
    <glyph glyph-name="q" unicode="Q" horiz-adv-x="925" 
d="M867.928 2.93945c-38.1357 -0.0117188 -74.1895 -0.0136719 -110.246 0.112305c-5.69727 0.0234375 -14.7607 1.57422 -20.1133 3.49219c-20.2627 7.24805 -40.6406 14.9668 -65.0273 24.041c-3.06738 1.13672 -6.42188 1.2627 -9.52344 0.263672
c-20.4922 -6.60449 -45.8662 -14.5879 -71.0449 -23.2031c-26.2246 -8.9707 -52.7363 -14.4727 -80.6494 -13.9326c-47.291 0.884766 -94.6279 -0.436523 -141.885 1.40137c-19.2285 0.74707 -38.3311 6.80078 -57.2725 11.3721
c-10.0967 2.43555 -19.4932 8.46582 -29.6592 10.0967c-60.7764 9.86719 -103.806 47.877 -142.39 92.5371c-40.0889 46.4297 -75.1582 96.2021 -84.4736 159.368c-4.57129 30.9453 -12.7266 61.9023 -8.43066 93.3877c3.7334 27.3955 6.11133 54.7451 9.12109 82.2217
c3.72168 34.0469 17.5742 66.0723 36.0449 95.0078c19.5391 30.5889 39.9277 59.5469 68.3232 82.5781c46.7969 37.9639 99.8193 64.7734 156.07 85.082c3.23926 1.17188 6.65039 1.83789 10.085 2.04492c48.2217 2.87207 96.6846 9.89062 144.596 7.14551
c58.2266 -3.34277 118.716 -5.13477 171.957 -32.5879c40.6973 -20.9863 81.8193 -43.5576 114.338 -76.375c16.3223 -16.4717 30.9678 -35.7812 40.6973 -56.9287c13.3242 -28.9463 28.877 -58.4326 40.6162 -87.8271c13.3594 -33.4609 15.002 -70.0459 17.4941 -105.552
c3.14746 -44.6836 -3.54883 -86.4033 -24.7305 -127.342c-16.0811 -31.0254 -25.0518 -66.1982 -15.208 -103.484c6.06543 -22.9854 18.9648 -40.2725 33.9775 -57.1348c11.4062 -12.7959 22.6514 -25.8906 32.5869 -40.0771
c7.4209 -10.9014 -2.06738 -25.6963 -15.2539 -25.708zM450.675 572.771c0 0 -0.106445 -0.0117188 -0.152344 -0.0117188c-5.87012 0 -13.7158 -0.0693359 -21.5723 0c-55.2852 0.458984 -102.449 -18.3682 -139.919 -60.8115
c-8.66113 -9.80957 -18.0576 -18.9531 -27.5801 -27.9238c-28.4639 -26.7988 -40.8232 -61.1787 -43.9473 -99.2568c-1.64258 -19.8955 -1.11426 -40.1006 -0.171875 -60.0879c2.14844 -45.373 18.4824 -84.8525 48.4971 -118.772
c40.2031 -45.4414 91.3193 -71.1143 149.098 -81.6816c54.918 -10.0391 105.069 13.7158 155.714 30.4746c8.27051 2.7334 15.1514 10.1426 22.2734 15.8975c43.4199 35.0234 62.5801 83.7275 74.8711 136.624c8.24707 35.4248 11.8428 70.6318 2.66504 106.39
c-20.3887 79.5801 -113.753 172.944 -219.775 159.16z" />
    <glyph glyph-name="q" unicode="q" horiz-adv-x="925" 
d="M867.928 2.93945c-38.1357 -0.0117188 -74.1895 -0.0136719 -110.246 0.112305c-5.69727 0.0234375 -14.7607 1.57422 -20.1133 3.49219c-20.2627 7.24805 -40.6406 14.9668 -65.0273 24.041c-3.06738 1.13672 -6.42188 1.2627 -9.52344 0.263672
c-20.4922 -6.60449 -45.8662 -14.5879 -71.0449 -23.2031c-26.2246 -8.9707 -52.7363 -14.4727 -80.6494 -13.9326c-47.291 0.884766 -94.6279 -0.436523 -141.885 1.40137c-19.2285 0.74707 -38.3311 6.80078 -57.2725 11.3721
c-10.0967 2.43555 -19.4932 8.46582 -29.6592 10.0967c-60.7764 9.86719 -103.806 47.877 -142.39 92.5371c-40.0889 46.4297 -75.1582 96.2021 -84.4736 159.368c-4.57129 30.9453 -12.7266 61.9023 -8.43066 93.3877c3.7334 27.3955 6.11133 54.7451 9.12109 82.2217
c3.72168 34.0469 17.5742 66.0723 36.0449 95.0078c19.5391 30.5889 39.9277 59.5469 68.3232 82.5781c46.7969 37.9639 99.8193 64.7734 156.07 85.082c3.23926 1.17188 6.65039 1.83789 10.085 2.04492c48.2217 2.87207 96.6846 9.89062 144.596 7.14551
c58.2266 -3.34277 118.716 -5.13477 171.957 -32.5879c40.6973 -20.9863 81.8193 -43.5576 114.338 -76.375c16.3223 -16.4717 30.9678 -35.7812 40.6973 -56.9287c13.3242 -28.9463 28.877 -58.4326 40.6162 -87.8271c13.3594 -33.4609 15.002 -70.0459 17.4941 -105.552
c3.14746 -44.6836 -3.54883 -86.4033 -24.7305 -127.342c-16.0811 -31.0254 -25.0518 -66.1982 -15.208 -103.484c6.06543 -22.9854 18.9648 -40.2725 33.9775 -57.1348c11.4062 -12.7959 22.6514 -25.8906 32.5869 -40.0771
c7.4209 -10.9014 -2.06738 -25.6963 -15.2539 -25.708zM450.675 572.771c0 0 -0.106445 -0.0117188 -0.152344 -0.0117188c-5.87012 0 -13.7158 -0.0693359 -21.5723 0c-55.2852 0.458984 -102.449 -18.3682 -139.919 -60.8115
c-8.66113 -9.80957 -18.0576 -18.9531 -27.5801 -27.9238c-28.4639 -26.7988 -40.8232 -61.1787 -43.9473 -99.2568c-1.64258 -19.8955 -1.11426 -40.1006 -0.171875 -60.0879c2.14844 -45.373 18.4824 -84.8525 48.4971 -118.772
c40.2031 -45.4414 91.3193 -71.1143 149.098 -81.6816c54.918 -10.0391 105.069 13.7158 155.714 30.4746c8.27051 2.7334 15.1514 10.1426 22.2734 15.8975c43.4199 35.0234 62.5801 83.7275 74.8711 136.624c8.24707 35.4248 11.8428 70.6318 2.66504 106.39
c-20.3887 79.5801 -113.753 172.944 -219.775 159.16z" />
    <glyph glyph-name="r" unicode="R" horiz-adv-x="879" 
d="M843.079 35.4697c4.85938 -4.31934 4.46777 -11.3398 5.20312 -20.2305c-2.32031 -7.71875 -6.4209 -13.7949 -9.98145 -13.9902c-48.3477 -2.6875 -95.5811 1.94141 -144.09 0.74707c-38.9971 -0.964844 -68.7939 10.9014 -95.6963 36.0342
c-43.0986 40.249 -87.2881 79.4189 -128.882 121.185c-32.5996 32.7373 -70.1494 48.3594 -115.936 46.9004c-21.0205 -0.677734 -42.0869 0.953125 -63.1191 0.367188c-36.0107 -0.999023 -53.1836 -17.46 -54.7002 -52.7812
c-0.78125 -18.2871 -0.0576172 -37.0107 -0.183594 -54.1719c-0.183594 -25.9717 1.5166 -47.0156 -0.654297 -69.8281c-1.7002 -17.9189 -13.0264 -26.5342 -32.4502 -27.2695c-30.2217 -1.13672 -60.5234 -1.50391 -90.7334 -0.87207
c-19.8486 0.413086 -25.0752 5.78906 -26.752 26.0742c-2.76855 33.7598 -6.17969 67.5996 -6.31738 101.428c-0.701172 170.44 -0.000976562 340.857 -0.782227 511.298c-0.217773 48.8877 6.58203 68.4844 69.6904 68.8867
c103.921 0.654297 207.842 0.918945 311.728 -0.207031c41.835 -0.459961 84.0029 -2.22852 125.274 -8.47754c37.4121 -5.66309 72.4922 -20.2627 104.195 -42.8799c71.5508 -51.0244 111.72 -117.486 107.769 -207.462
c-0.413086 -9.36133 -0.630859 -18.7686 -0.217773 -28.1191c2.2627 -51.7705 -18.1035 -94.0645 -53.9766 -130.811c-16.3916 -16.7822 -30.9111 -35.4707 -45.4189 -53.9639c-13.5654 -17.2764 -13.6914 -41.6396 -0.102539 -58.8926
c21.2158 -26.9365 43.9824 -52.9766 68.5293 -76.915c24.2598 -23.6514 52.1494 -43.5576 77.6045 -66.0488zM255.819 555.312c-7.66211 -2.95215 -12.7734 -10.3271 -12.7275 -18.5283c0.229492 -40.583 1.22852 -79.2822 -0.483398 -117.878
c-1.72266 -38.917 20.2402 -65.8877 65.4062 -63.5674c31.4736 1.61914 63.5332 2.92871 94.582 -1.20605c43.3965 -5.78906 85.8516 2.44727 128.651 3.56152c24.2139 0.631836 48.6924 9.05176 72.0908 16.8057c27.499 9.13184 42.3174 29.7617 43.3057 59.248
c0.298828 9.17773 0 18.3555 0.436523 27.5215c2.30859 48.3818 -27.2119 90.3428 -81.1885 99.2568c-29.5439 4.89355 -60.3174 3.2627 -89.4707 9.53418c-60.501 13.0264 -120.06 0.333984 -179.905 -2.8252c-13.4277 -0.689453 -26.5801 -6.47852 -40.6973 -11.9229z" />
    <glyph glyph-name="r" unicode="r" horiz-adv-x="879" 
d="M843.079 35.4697c4.85938 -4.31934 4.46777 -11.3398 5.20312 -20.2305c-2.32031 -7.71875 -6.4209 -13.7949 -9.98145 -13.9902c-48.3477 -2.6875 -95.5811 1.94141 -144.09 0.74707c-38.9971 -0.964844 -68.7939 10.9014 -95.6963 36.0342
c-43.0986 40.249 -87.2881 79.4189 -128.882 121.185c-32.5996 32.7373 -70.1494 48.3594 -115.936 46.9004c-21.0205 -0.677734 -42.0869 0.953125 -63.1191 0.367188c-36.0107 -0.999023 -53.1836 -17.46 -54.7002 -52.7812
c-0.78125 -18.2871 -0.0576172 -37.0107 -0.183594 -54.1719c-0.183594 -25.9717 1.5166 -47.0156 -0.654297 -69.8281c-1.7002 -17.9189 -13.0264 -26.5342 -32.4502 -27.2695c-30.2217 -1.13672 -60.5234 -1.50391 -90.7334 -0.87207
c-19.8486 0.413086 -25.0752 5.78906 -26.752 26.0742c-2.76855 33.7598 -6.17969 67.5996 -6.31738 101.428c-0.701172 170.44 -0.000976562 340.857 -0.782227 511.298c-0.217773 48.8877 6.58203 68.4844 69.6904 68.8867
c103.921 0.654297 207.842 0.918945 311.728 -0.207031c41.835 -0.459961 84.0029 -2.22852 125.274 -8.47754c37.4121 -5.66309 72.4922 -20.2627 104.195 -42.8799c71.5508 -51.0244 111.72 -117.486 107.769 -207.462
c-0.413086 -9.36133 -0.630859 -18.7686 -0.217773 -28.1191c2.2627 -51.7705 -18.1035 -94.0645 -53.9766 -130.811c-16.3916 -16.7822 -30.9111 -35.4707 -45.4189 -53.9639c-13.5654 -17.2764 -13.6914 -41.6396 -0.102539 -58.8926
c21.2158 -26.9365 43.9824 -52.9766 68.5293 -76.915c24.2598 -23.6514 52.1494 -43.5576 77.6045 -66.0488zM255.819 555.312c-7.66211 -2.95215 -12.7734 -10.3271 -12.7275 -18.5283c0.229492 -40.583 1.22852 -79.2822 -0.483398 -117.878
c-1.72266 -38.917 20.2402 -65.8877 65.4062 -63.5674c31.4736 1.61914 63.5332 2.92871 94.582 -1.20605c43.3965 -5.78906 85.8516 2.44727 128.651 3.56152c24.2139 0.631836 48.6924 9.05176 72.0908 16.8057c27.499 9.13184 42.3174 29.7617 43.3057 59.248
c0.298828 9.17773 0 18.3555 0.436523 27.5215c2.30859 48.3818 -27.2119 90.3428 -81.1885 99.2568c-29.5439 4.89355 -60.3174 3.2627 -89.4707 9.53418c-60.501 13.0264 -120.06 0.333984 -179.905 -2.8252c-13.4277 -0.689453 -26.5801 -6.47852 -40.6973 -11.9229z" />
    <glyph glyph-name="s" unicode="S" horiz-adv-x="786" 
d="M112.712 182.569c6.08789 4.66406 14.3408 5.51074 21.5088 2.77734c45.7402 -17.46 87.2305 -33.1162 128.514 -49.2666c62.499 -24.4434 128.146 -26.7178 193.425 -19.9404c41.3066 4.27344 82.1533 16.8398 113.121 47.084
c34.7363 33.9316 27.5342 85.4033 -14.8174 109.146c-26.4424 14.8184 -55.4697 22.9971 -86.7256 22.6064c-23.1807 -0.287109 -46.3613 -0.873047 -69.4609 1.04492c-36.0342 2.99805 -71.9531 7.36328 -107.826 11.7744
c-24.5703 3.02148 -49.6455 4.96289 -73.2734 11.4531c-54.8496 15.082 -103.806 38.4346 -138.69 85.5645c-48.6006 65.6924 -25.168 154.726 17.6084 204.578c59.8232 69.6904 138.933 94.1113 227.679 101.417c28.6016 2.34375 57.3418 6.47852 85.9092 5.68555
c85.415 -2.32031 168.35 -18.9189 248.86 -45.7979c41.9268 -13.9912 45.5566 -33.8057 26.9824 -82.5439c-1.75781 -4.59473 -3.94043 -9.09766 -6.58203 -13.2441c-21.4453 -33.748 -35.5742 -34.2764 -63.7285 -24.2939
c-40.2148 14.2783 -81.8086 26.4658 -123.873 34.1846c-76.123 13.9678 -151.487 7.5127 -223.062 -22.3525c-25.6035 -10.6943 -48.7607 -26.5801 -46.6016 -58.582c2.18262 -32.2666 21.4805 -53.7354 51.748 -64.5215c43.1211 -15.3467 88.7354 -20.2061 134.43 -22.3086
c26.2471 -1.19434 52.6201 0.712891 78.8906 -0.332031c58.376 -2.30859 113.903 -15.9092 164.514 -44.0859c64.7393 -36.0449 98.3262 -107.688 89.1025 -175.654c-4.14648 -30.5664 -7.65039 -62.6836 -32.4277 -86.3691
c-13.75 -13.1406 -28.8096 -25.0752 -43.8115 -36.918c-6.99512 -5.52539 -17.3105 -7.97168 -22.6982 -14.4268c-26.5342 -31.9443 -65.4629 -39.3301 -103.002 -50.1738c-42.8574 -12.3828 -87.4834 -16.9658 -132.029 -14.8525
c-45.6143 2.15918 -91.3887 -4.14746 -136.899 6.78809c-64.7852 15.5762 -129.433 30.8535 -187.877 63.1426c-9.00586 4.98535 -19.3096 9.47656 -25.4893 16.8857c-4.7666 5.7207 -7.82227 17.1152 -5.11133 23.4443c13.5195 31.4736 34.6895 57.4219 61.6943 78.0869z
" />
    <glyph glyph-name="s" unicode="s" horiz-adv-x="786" 
d="M112.712 182.569c6.08789 4.66406 14.3408 5.51074 21.5088 2.77734c45.7402 -17.46 87.2305 -33.1162 128.514 -49.2666c62.499 -24.4434 128.146 -26.7178 193.425 -19.9404c41.3066 4.27344 82.1533 16.8398 113.121 47.084
c34.7363 33.9316 27.5342 85.4033 -14.8174 109.146c-26.4424 14.8184 -55.4697 22.9971 -86.7256 22.6064c-23.1807 -0.287109 -46.3613 -0.873047 -69.4609 1.04492c-36.0342 2.99805 -71.9531 7.36328 -107.826 11.7744
c-24.5703 3.02148 -49.6455 4.96289 -73.2734 11.4531c-54.8496 15.082 -103.806 38.4346 -138.69 85.5645c-48.6006 65.6924 -25.168 154.726 17.6084 204.578c59.8232 69.6904 138.933 94.1113 227.679 101.417c28.6016 2.34375 57.3418 6.47852 85.9092 5.68555
c85.415 -2.32031 168.35 -18.9189 248.86 -45.7979c41.9268 -13.9912 45.5566 -33.8057 26.9824 -82.5439c-1.75781 -4.59473 -3.94043 -9.09766 -6.58203 -13.2441c-21.4453 -33.748 -35.5742 -34.2764 -63.7285 -24.2939
c-40.2148 14.2783 -81.8086 26.4658 -123.873 34.1846c-76.123 13.9678 -151.487 7.5127 -223.062 -22.3525c-25.6035 -10.6943 -48.7607 -26.5801 -46.6016 -58.582c2.18262 -32.2666 21.4805 -53.7354 51.748 -64.5215c43.1211 -15.3467 88.7354 -20.2061 134.43 -22.3086
c26.2471 -1.19434 52.6201 0.712891 78.8906 -0.332031c58.376 -2.30859 113.903 -15.9092 164.514 -44.0859c64.7393 -36.0449 98.3262 -107.688 89.1025 -175.654c-4.14648 -30.5664 -7.65039 -62.6836 -32.4277 -86.3691
c-13.75 -13.1406 -28.8096 -25.0752 -43.8115 -36.918c-6.99512 -5.52539 -17.3105 -7.97168 -22.6982 -14.4268c-26.5342 -31.9443 -65.4629 -39.3301 -103.002 -50.1738c-42.8574 -12.3828 -87.4834 -16.9658 -132.029 -14.8525
c-45.6143 2.15918 -91.3887 -4.14746 -136.899 6.78809c-64.7852 15.5762 -129.433 30.8535 -187.877 63.1426c-9.00586 4.98535 -19.3096 9.47656 -25.4893 16.8857c-4.7666 5.7207 -7.82227 17.1152 -5.11133 23.4443c13.5195 31.4736 34.6895 57.4219 61.6943 78.0869z
" />
    <glyph glyph-name="t" unicode="T" horiz-adv-x="766" 
d="M302.675 280.24c0 71.0459 0.0595703 142.091 0.0136719 213.137c0 9.02832 0.183594 18.126 -0.585938 27.1201c-2.34375 27.0049 -11.5674 36.3438 -38.8369 38.9512c-10.418 0.988281 -20.9971 0.735352 -31.5186 0.769531
c-52.5518 0.264648 -105.104 0.0693359 -157.679 0.918945c-12.7852 0.217773 -26.248 2.03223 -37.9648 6.63867c-7.03027 2.75684 -15.9092 12.3252 -15.9785 18.9297c-0.344727 30.7842 -0.264648 61.9014 4.21484 92.249
c4.06641 27.5684 7.86816 28.6484 36.6191 28.9697c45.9814 0.516602 91.9854 0.436523 137.967 0.344727c157.667 -0.298828 315.311 -0.735352 472.978 -1.12598c6.57031 -0.0234375 13.1641 -0.517578 19.7119 -0.0693359
c38.584 2.65332 54.9639 -12.8887 53.3555 -52.8047c-0.792969 -19.332 0.608398 -38.7559 -0.0693359 -58.1113c-0.723633 -20.8486 -6.21387 -27.8213 -26.3389 -32.5654c-10.0049 -2.35449 -20.7676 -2.13672 -31.1631 -2.22852
c-52.5635 -0.448242 -105.115 -0.585938 -157.69 -0.918945c-9.17773 -0.0693359 -18.5742 0.436523 -27.5107 -1.17188c-26.8906 -4.79004 -40.9961 -20.6875 -41.6396 -47.6924c-0.608398 -25.8223 1.19531 -51.6904 0.207031 -77.4893
c-1.16016 -30.7617 -5.35254 -61.4541 -5.9043 -92.1924c-0.367188 -21.6641 4.43457 -43.374 4.67578 -65.0723c0.895508 -77.4893 0.826172 -154.979 1.09082 -232.491c0.0234375 -3.88281 0.0234375 -7.77637 -0.458984 -11.6133
c-2.60742 -20.2969 -11.8193 -29.4629 -33.2188 -30.1523c-26.2471 -0.838867 -52.5635 -0.81543 -78.8223 -0.0683594c-32.9326 0.930664 -44.3164 11.8203 -44.6377 45.2012c-0.700195 77.4893 -0.217773 155.002 -0.217773 232.515
c-0.229492 0.0234375 -0.390625 0.0234375 -0.597656 0.0234375z" />
    <glyph glyph-name="t" unicode="t" horiz-adv-x="766" 
d="M302.675 280.24c0 71.0459 0.0595703 142.091 0.0136719 213.137c0 9.02832 0.183594 18.126 -0.585938 27.1201c-2.34375 27.0049 -11.5674 36.3438 -38.8369 38.9512c-10.418 0.988281 -20.9971 0.735352 -31.5186 0.769531
c-52.5518 0.264648 -105.104 0.0693359 -157.679 0.918945c-12.7852 0.217773 -26.248 2.03223 -37.9648 6.63867c-7.03027 2.75684 -15.9092 12.3252 -15.9785 18.9297c-0.344727 30.7842 -0.264648 61.9014 4.21484 92.249
c4.06641 27.5684 7.86816 28.6484 36.6191 28.9697c45.9814 0.516602 91.9854 0.436523 137.967 0.344727c157.667 -0.298828 315.311 -0.735352 472.978 -1.12598c6.57031 -0.0234375 13.1641 -0.517578 19.7119 -0.0693359
c38.584 2.65332 54.9639 -12.8887 53.3555 -52.8047c-0.792969 -19.332 0.608398 -38.7559 -0.0693359 -58.1113c-0.723633 -20.8486 -6.21387 -27.8213 -26.3389 -32.5654c-10.0049 -2.35449 -20.7676 -2.13672 -31.1631 -2.22852
c-52.5635 -0.448242 -105.115 -0.585938 -157.69 -0.918945c-9.17773 -0.0693359 -18.5742 0.436523 -27.5107 -1.17188c-26.8906 -4.79004 -40.9961 -20.6875 -41.6396 -47.6924c-0.608398 -25.8223 1.19531 -51.6904 0.207031 -77.4893
c-1.16016 -30.7617 -5.35254 -61.4541 -5.9043 -92.1924c-0.367188 -21.6641 4.43457 -43.374 4.67578 -65.0723c0.895508 -77.4893 0.826172 -154.979 1.09082 -232.491c0.0234375 -3.88281 0.0234375 -7.77637 -0.458984 -11.6133
c-2.60742 -20.2969 -11.8193 -29.4629 -33.2188 -30.1523c-26.2471 -0.838867 -52.5635 -0.81543 -78.8223 -0.0683594c-32.9326 0.930664 -44.3164 11.8203 -44.6377 45.2012c-0.700195 77.4893 -0.217773 155.002 -0.217773 232.515
c-0.229492 0.0234375 -0.390625 0.0234375 -0.597656 0.0234375z" />
    <glyph glyph-name="u" unicode="U" horiz-adv-x="809" 
d="M739.417 447.855l0.665039 0.00390625c0 -57.0664 -0.700195 -114.133 0.18457 -171.164c1.03418 -66.6689 -21.9619 -126.159 -55.7559 -182.743c-13.0029 -21.7793 -35.126 -33.5996 -56.25 -46.1201c-60.5469 -35.873 -126.975 -50.0244 -197.641 -53.6543
c-76.8809 -3.97461 -147.409 17.0234 -217.283 42.4785c-16.7363 6.08789 -33.082 16.3916 -46.0625 28.3496c-55.6074 51.2305 -89.1943 112.776 -100.072 187.728c-5.41016 37.2168 0.850586 72.6416 0.850586 108.882
c0.0234375 97.6377 0.298828 195.252 0.563477 292.89c0.0234375 10.1201 -1.41211 20.9521 1.76953 30.1641c2.42383 7.01855 10.6025 16.5068 17.0928 17.207c36.3213 3.89355 72.9297 5.66211 109.435 7.69531c12.0039 0.654297 20.6992 -5.64062 23.0889 -16.748
c3.41113 -15.8975 7.0293 -32.1279 7.14453 -48.2441c0.677734 -103.955 -0.0693359 -207.944 0.757812 -311.899c0.25293 -34.0127 4.69824 -67.9561 22.8584 -98.293c32.8633 -54.9521 85.2314 -80.6133 148.271 -86.8164
c27.0166 -2.66504 54.4355 -3.06738 81.7393 5.81152c25.1904 8.20117 45.2002 22.2031 58.5244 42.5c21.8477 33.2314 36.6885 68.9551 36.1143 110.262c-1.49316 106.505 -0.574219 212.998 -1.01074 319.515c-0.25293 64.5898 14.335 76.6279 80.7051 76.9268
c6.57031 0.0117188 13.1865 -0.494141 19.7109 0.149414c44.2354 4.33008 68.6221 -23.2383 65.084 -60.915c-1.4248 -15.0938 -0.459961 -30.4053 -0.459961 -45.625c-0.0234375 -49.4502 -0.0234375 -98.8887 -0.0234375 -148.339z" />
    <glyph glyph-name="u" unicode="&#xfc;" horiz-adv-x="809" 
d="M739.417 447.855l0.665039 0.00390625c0 -57.0664 -0.700195 -114.133 0.18457 -171.164c1.03418 -66.6689 -21.9619 -126.159 -55.7559 -182.743c-13.0029 -21.7793 -35.126 -33.5996 -56.25 -46.1201c-60.5469 -35.873 -126.975 -50.0244 -197.641 -53.6543
c-76.8809 -3.97461 -147.409 17.0234 -217.283 42.4785c-16.7363 6.08789 -33.082 16.3916 -46.0625 28.3496c-55.6074 51.2305 -89.1943 112.776 -100.072 187.728c-5.41016 37.2168 0.850586 72.6416 0.850586 108.882
c0.0234375 97.6377 0.298828 195.252 0.563477 292.89c0.0234375 10.1201 -1.41211 20.9521 1.76953 30.1641c2.42383 7.01855 10.6025 16.5068 17.0928 17.207c36.3213 3.89355 72.9297 5.66211 109.435 7.69531c12.0039 0.654297 20.6992 -5.64062 23.0889 -16.748
c3.41113 -15.8975 7.0293 -32.1279 7.14453 -48.2441c0.677734 -103.955 -0.0693359 -207.944 0.757812 -311.899c0.25293 -34.0127 4.69824 -67.9561 22.8584 -98.293c32.8633 -54.9521 85.2314 -80.6133 148.271 -86.8164
c27.0166 -2.66504 54.4355 -3.06738 81.7393 5.81152c25.1904 8.20117 45.2002 22.2031 58.5244 42.5c21.8477 33.2314 36.6885 68.9551 36.1143 110.262c-1.49316 106.505 -0.574219 212.998 -1.01074 319.515c-0.25293 64.5898 14.335 76.6279 80.7051 76.9268
c6.57031 0.0117188 13.1865 -0.494141 19.7109 0.149414c44.2354 4.33008 68.6221 -23.2383 65.084 -60.915c-1.4248 -15.0938 -0.459961 -30.4053 -0.459961 -45.625c-0.0234375 -49.4502 -0.0234375 -98.8887 -0.0234375 -148.339z" />
    <glyph glyph-name="u" unicode="&#xfb;" horiz-adv-x="809" 
d="M739.417 447.855l0.665039 0.00390625c0 -57.0664 -0.700195 -114.133 0.18457 -171.164c1.03418 -66.6689 -21.9619 -126.159 -55.7559 -182.743c-13.0029 -21.7793 -35.126 -33.5996 -56.25 -46.1201c-60.5469 -35.873 -126.975 -50.0244 -197.641 -53.6543
c-76.8809 -3.97461 -147.409 17.0234 -217.283 42.4785c-16.7363 6.08789 -33.082 16.3916 -46.0625 28.3496c-55.6074 51.2305 -89.1943 112.776 -100.072 187.728c-5.41016 37.2168 0.850586 72.6416 0.850586 108.882
c0.0234375 97.6377 0.298828 195.252 0.563477 292.89c0.0234375 10.1201 -1.41211 20.9521 1.76953 30.1641c2.42383 7.01855 10.6025 16.5068 17.0928 17.207c36.3213 3.89355 72.9297 5.66211 109.435 7.69531c12.0039 0.654297 20.6992 -5.64062 23.0889 -16.748
c3.41113 -15.8975 7.0293 -32.1279 7.14453 -48.2441c0.677734 -103.955 -0.0693359 -207.944 0.757812 -311.899c0.25293 -34.0127 4.69824 -67.9561 22.8584 -98.293c32.8633 -54.9521 85.2314 -80.6133 148.271 -86.8164
c27.0166 -2.66504 54.4355 -3.06738 81.7393 5.81152c25.1904 8.20117 45.2002 22.2031 58.5244 42.5c21.8477 33.2314 36.6885 68.9551 36.1143 110.262c-1.49316 106.505 -0.574219 212.998 -1.01074 319.515c-0.25293 64.5898 14.335 76.6279 80.7051 76.9268
c6.57031 0.0117188 13.1865 -0.494141 19.7109 0.149414c44.2354 4.33008 68.6221 -23.2383 65.084 -60.915c-1.4248 -15.0938 -0.459961 -30.4053 -0.459961 -45.625c-0.0234375 -49.4502 -0.0234375 -98.8887 -0.0234375 -148.339z" />
    <glyph glyph-name="u" unicode="&#xdc;" horiz-adv-x="809" 
d="M739.417 447.855l0.665039 0.00390625c0 -57.0664 -0.700195 -114.133 0.18457 -171.164c1.03418 -66.6689 -21.9619 -126.159 -55.7559 -182.743c-13.0029 -21.7793 -35.126 -33.5996 -56.25 -46.1201c-60.5469 -35.873 -126.975 -50.0244 -197.641 -53.6543
c-76.8809 -3.97461 -147.409 17.0234 -217.283 42.4785c-16.7363 6.08789 -33.082 16.3916 -46.0625 28.3496c-55.6074 51.2305 -89.1943 112.776 -100.072 187.728c-5.41016 37.2168 0.850586 72.6416 0.850586 108.882
c0.0234375 97.6377 0.298828 195.252 0.563477 292.89c0.0234375 10.1201 -1.41211 20.9521 1.76953 30.1641c2.42383 7.01855 10.6025 16.5068 17.0928 17.207c36.3213 3.89355 72.9297 5.66211 109.435 7.69531c12.0039 0.654297 20.6992 -5.64062 23.0889 -16.748
c3.41113 -15.8975 7.0293 -32.1279 7.14453 -48.2441c0.677734 -103.955 -0.0693359 -207.944 0.757812 -311.899c0.25293 -34.0127 4.69824 -67.9561 22.8584 -98.293c32.8633 -54.9521 85.2314 -80.6133 148.271 -86.8164
c27.0166 -2.66504 54.4355 -3.06738 81.7393 5.81152c25.1904 8.20117 45.2002 22.2031 58.5244 42.5c21.8477 33.2314 36.6885 68.9551 36.1143 110.262c-1.49316 106.505 -0.574219 212.998 -1.01074 319.515c-0.25293 64.5898 14.335 76.6279 80.7051 76.9268
c6.57031 0.0117188 13.1865 -0.494141 19.7109 0.149414c44.2354 4.33008 68.6221 -23.2383 65.084 -60.915c-1.4248 -15.0938 -0.459961 -30.4053 -0.459961 -45.625c-0.0234375 -49.4502 -0.0234375 -98.8887 -0.0234375 -148.339z" />
    <glyph glyph-name="u" unicode="&#xdb;" horiz-adv-x="809" 
d="M739.417 447.855l0.665039 0.00390625c0 -57.0664 -0.700195 -114.133 0.18457 -171.164c1.03418 -66.6689 -21.9619 -126.159 -55.7559 -182.743c-13.0029 -21.7793 -35.126 -33.5996 -56.25 -46.1201c-60.5469 -35.873 -126.975 -50.0244 -197.641 -53.6543
c-76.8809 -3.97461 -147.409 17.0234 -217.283 42.4785c-16.7363 6.08789 -33.082 16.3916 -46.0625 28.3496c-55.6074 51.2305 -89.1943 112.776 -100.072 187.728c-5.41016 37.2168 0.850586 72.6416 0.850586 108.882
c0.0234375 97.6377 0.298828 195.252 0.563477 292.89c0.0234375 10.1201 -1.41211 20.9521 1.76953 30.1641c2.42383 7.01855 10.6025 16.5068 17.0928 17.207c36.3213 3.89355 72.9297 5.66211 109.435 7.69531c12.0039 0.654297 20.6992 -5.64062 23.0889 -16.748
c3.41113 -15.8975 7.0293 -32.1279 7.14453 -48.2441c0.677734 -103.955 -0.0693359 -207.944 0.757812 -311.899c0.25293 -34.0127 4.69824 -67.9561 22.8584 -98.293c32.8633 -54.9521 85.2314 -80.6133 148.271 -86.8164
c27.0166 -2.66504 54.4355 -3.06738 81.7393 5.81152c25.1904 8.20117 45.2002 22.2031 58.5244 42.5c21.8477 33.2314 36.6885 68.9551 36.1143 110.262c-1.49316 106.505 -0.574219 212.998 -1.01074 319.515c-0.25293 64.5898 14.335 76.6279 80.7051 76.9268
c6.57031 0.0117188 13.1865 -0.494141 19.7109 0.149414c44.2354 4.33008 68.6221 -23.2383 65.084 -60.915c-1.4248 -15.0938 -0.459961 -30.4053 -0.459961 -45.625c-0.0234375 -49.4502 -0.0234375 -98.8887 -0.0234375 -148.339z" />
    <glyph glyph-name="u" unicode="u" horiz-adv-x="809" 
d="M739.417 447.855l0.665039 0.00390625c0 -57.0664 -0.700195 -114.133 0.18457 -171.164c1.03418 -66.6689 -21.9619 -126.159 -55.7559 -182.743c-13.0029 -21.7793 -35.126 -33.5996 -56.25 -46.1201c-60.5469 -35.873 -126.975 -50.0244 -197.641 -53.6543
c-76.8809 -3.97461 -147.409 17.0234 -217.283 42.4785c-16.7363 6.08789 -33.082 16.3916 -46.0625 28.3496c-55.6074 51.2305 -89.1943 112.776 -100.072 187.728c-5.41016 37.2168 0.850586 72.6416 0.850586 108.882
c0.0234375 97.6377 0.298828 195.252 0.563477 292.89c0.0234375 10.1201 -1.41211 20.9521 1.76953 30.1641c2.42383 7.01855 10.6025 16.5068 17.0928 17.207c36.3213 3.89355 72.9297 5.66211 109.435 7.69531c12.0039 0.654297 20.6992 -5.64062 23.0889 -16.748
c3.41113 -15.8975 7.0293 -32.1279 7.14453 -48.2441c0.677734 -103.955 -0.0693359 -207.944 0.757812 -311.899c0.25293 -34.0127 4.69824 -67.9561 22.8584 -98.293c32.8633 -54.9521 85.2314 -80.6133 148.271 -86.8164
c27.0166 -2.66504 54.4355 -3.06738 81.7393 5.81152c25.1904 8.20117 45.2002 22.2031 58.5244 42.5c21.8477 33.2314 36.6885 68.9551 36.1143 110.262c-1.49316 106.505 -0.574219 212.998 -1.01074 319.515c-0.25293 64.5898 14.335 76.6279 80.7051 76.9268
c6.57031 0.0117188 13.1865 -0.494141 19.7109 0.149414c44.2354 4.33008 68.6221 -23.2383 65.084 -60.915c-1.4248 -15.0938 -0.459961 -30.4053 -0.459961 -45.625c-0.0234375 -49.4502 -0.0234375 -98.8887 -0.0234375 -148.339z" />
    <glyph glyph-name="v" unicode="V" horiz-adv-x="854" 
d="M16.0586 691.006c-0.287109 6.03027 4.2998 11.1543 10.2725 12.0156c16.5176 2.38965 32.6904 5.49121 48.8525 5.30762c29.9805 -0.367188 59.9492 -3.87109 89.9062 -5.93848c19.2285 -1.33203 30.7266 -12.4287 38.377 -28.6484
c23.6279 -50.2314 47.3135 -100.417 70.8955 -150.648c9.31543 -19.8379 18.4814 -39.7676 27.7285 -59.6514c26.6377 -57.3184 53.2412 -114.66 79.9941 -171.933c4.91602 -10.5332 9.34961 -21.5264 15.9316 -31.0146c21.0898 -30.5205 49.5654 -30.1299 67.1631 2.35449
c22.1465 40.8809 41.6738 83.1406 62.2461 124.849c1.7002 3.44629 2.42383 7.31738 4.04395 10.832c38.7676 84.3701 77.5811 168.717 116.486 253.029c4.33008 9.39648 8.22363 19.3672 14.5645 27.3389c5.14648 6.47852 12.2793 28.6826 19.7803 29.4521
c37.6992 3.85938 78.4316 -2.41211 116.28 0c3.91699 0.25293 13.9336 0.689453 17.7471 0c21.3994 -3.85938 22.916 -26.626 13.8994 -46.6016c-17.5176 -38.791 -34.5527 -77.9492 -54.5859 -115.522c-52.9541 -99.2803 -94.0879 -203.66 -140.333 -305.846
c-31.9795 -70.6895 -66.3818 -140.345 -98.292 -211.068c-9.64844 -21.377 -31.4736 -34.3574 -54.8604 -32.6807c-41.6973 2.98633 -83.4863 5.05371 -125.264 6.57031c-15.6904 0.5625 -23.2949 8.71777 -29.2676 21.457
c-20.8135 44.4189 -42.6611 88.3789 -63.0273 132.971c-25.1445 55.0791 -48.3135 111.065 -73.9629 165.926c-44.8438 95.8799 -90.6875 191.323 -136.703 286.663c-7.7998 16.1504 -16.7139 31.2559 -23.2617 47.9688c-4.90527 12.5205 -13.9795 19.5508 -14.6113 32.8184
z" />
    <glyph glyph-name="v" unicode="v" horiz-adv-x="854" 
d="M16.0586 691.006c-0.287109 6.03027 4.2998 11.1543 10.2725 12.0156c16.5176 2.38965 32.6904 5.49121 48.8525 5.30762c29.9805 -0.367188 59.9492 -3.87109 89.9062 -5.93848c19.2285 -1.33203 30.7266 -12.4287 38.377 -28.6484
c23.6279 -50.2314 47.3135 -100.417 70.8955 -150.648c9.31543 -19.8379 18.4814 -39.7676 27.7285 -59.6514c26.6377 -57.3184 53.2412 -114.66 79.9941 -171.933c4.91602 -10.5332 9.34961 -21.5264 15.9316 -31.0146c21.0898 -30.5205 49.5654 -30.1299 67.1631 2.35449
c22.1465 40.8809 41.6738 83.1406 62.2461 124.849c1.7002 3.44629 2.42383 7.31738 4.04395 10.832c38.7676 84.3701 77.5811 168.717 116.486 253.029c4.33008 9.39648 8.22363 19.3672 14.5645 27.3389c5.14648 6.47852 12.2793 28.6826 19.7803 29.4521
c37.6992 3.85938 78.4316 -2.41211 116.28 0c3.91699 0.25293 13.9336 0.689453 17.7471 0c21.3994 -3.85938 22.916 -26.626 13.8994 -46.6016c-17.5176 -38.791 -34.5527 -77.9492 -54.5859 -115.522c-52.9541 -99.2803 -94.0879 -203.66 -140.333 -305.846
c-31.9795 -70.6895 -66.3818 -140.345 -98.292 -211.068c-9.64844 -21.377 -31.4736 -34.3574 -54.8604 -32.6807c-41.6973 2.98633 -83.4863 5.05371 -125.264 6.57031c-15.6904 0.5625 -23.2949 8.71777 -29.2676 21.457
c-20.8135 44.4189 -42.6611 88.3789 -63.0273 132.971c-25.1445 55.0791 -48.3135 111.065 -73.9629 165.926c-44.8438 95.8799 -90.6875 191.323 -136.703 286.663c-7.7998 16.1504 -16.7139 31.2559 -23.2617 47.9688c-4.90527 12.5205 -13.9795 19.5508 -14.6113 32.8184
z" />
    <glyph glyph-name="w" unicode="W" horiz-adv-x="992" 
d="M680.522 297.275c3.00977 0.229492 6.06641 1.77344 9.14453 5.10449c6.70801 7.25977 11.8311 16.2998 16.7471 24.8115c7.21387 12.4971 12.4404 26.0166 16.9893 39.6631c31.29 93.9043 62.8789 187.728 94.4561 281.551
c18.8154 55.9062 25.501 60.9951 83.6699 62.2354c13.0605 0.275391 26.5576 0.631836 39.124 -2.27441c26.0859 -6.00781 32.0586 -17.0928 23.9951 -42.8691c-11.6709 -37.2861 -24.6162 -74.1816 -36.5049 -111.398
c-48.6348 -152.498 -97.1318 -305.064 -145.595 -457.62c-6.375 -20.0898 -11.4521 -40.6162 -18.2295 -60.5576c-8.24707 -24.2832 -30.7266 -37.0684 -56.3535 -36.0117c-22.4453 0.930664 -45.5908 0.207031 -67.8525 3.46973
c-5.97266 0.873047 -13.29 4.31934 -16.6094 9.00586c-9.72949 13.5771 -20.8145 27.3613 -25.834 42.8564c-14.8291 45.7402 -26.833 92.376 -40.3418 138.553c-4.70996 16.1045 -9.69531 32.2432 -16.208 47.6582c-3.35449 7.94922 -8.68457 14.9902 -15.1748 20.6758
c-24.7656 21.7441 -37.1709 21.3311 -55.1934 -3.65234c-7.9375 -11.0039 -17.8047 -30.7383 -22.2041 -43.5693c-19.7344 -57.5029 -38.8135 -115.235 -57.3535 -173.129c-11.6357 -36.2295 -23.168 -42.3408 -61.6367 -41.4219
c-13.2676 0.321289 -26.5352 -0.230469 -39.8027 -0.322266c-9.62598 -0.0693359 -30.876 -3.71094 -37.7334 4.7666c-1.84961 2.28613 -2.94043 5.06543 -3.99707 7.81055c-14.335 36.9531 -29.5889 73.6299 -41.9141 111.329
c-32.3809 98.9355 -62.7861 198.549 -94.6504 297.656c0 2.48145 -1.91797 5.9502 -2.67578 8.32812c-0.930664 2.89453 -1.86133 5.77734 -2.79199 8.67188c-1.86133 5.77734 -3.7334 11.5547 -5.60547 17.333c-3.74512 11.5557 -7.50098 23.1113 -11.2568 34.6553
c-7.52344 23.0996 -15.0928 46.1875 -22.6621 69.2646s-15.1504 46.165 -22.7197 69.2422c-3.7793 11.5439 -7.57031 23.0879 -11.3379 34.6318c-1.88379 5.77832 -3.76758 11.5449 -5.65137 17.3232c-2.51562 7.70801 -5.01953 14.9561 -4.73242 23.1924
c0.0234375 0.81543 0.103516 1.68848 0.620117 2.32031c2.15918 2.65332 9.02832 2.2168 12.0957 2.49219c4.75586 0.413086 9.52246 0.630859 14.3008 0.700195c18.2754 0.298828 36.5273 -1.0332 54.791 -1.41211c11.6475 -0.298828 24.7764 0.241211 36.4238 0
c26.0859 -0.540039 39.6289 -10.5566 47.0605 -34.2881c23.709 -75.7432 46.4414 -151.819 71.6084 -227.092c8.67285 -25.9482 18.4824 -51.4951 28.5332 -76.9268c4.53711 -11.4756 18.6084 -67.0029 32.6338 -66.4053c3.90527 0.161133 7.38574 2.44727 10.418 4.90527
c15.4033 12.4629 21.5947 30.1641 28.9688 47.8418c9.5 22.7666 16.3691 46.7051 23.3418 70.4365c23.0537 78.6152 45.625 157.402 68.4609 236.075c2.18262 7.48926 3.98633 15.2998 7.50098 22.1572c10.292 20.125 27.6602 27.9932 52.5059 25.7881
c20.9746 -1.86133 33.2998 -12.7852 38.4922 -32.8867c13.0029 -50.3574 25.7422 -100.75 39.5723 -150.878c15.208 -55.1592 31.1055 -110.123 47.4736 -164.938c3.65234 -12.2451 8.29297 -24.3174 14.7021 -35.4131c5.44434 -9.43066 16.6553 -30.3828 28.9922 -29.4404z
" />
    <glyph glyph-name="w" unicode="w" horiz-adv-x="992" 
d="M680.522 297.275c3.00977 0.229492 6.06641 1.77344 9.14453 5.10449c6.70801 7.25977 11.8311 16.2998 16.7471 24.8115c7.21387 12.4971 12.4404 26.0166 16.9893 39.6631c31.29 93.9043 62.8789 187.728 94.4561 281.551
c18.8154 55.9062 25.501 60.9951 83.6699 62.2354c13.0605 0.275391 26.5576 0.631836 39.124 -2.27441c26.0859 -6.00781 32.0586 -17.0928 23.9951 -42.8691c-11.6709 -37.2861 -24.6162 -74.1816 -36.5049 -111.398
c-48.6348 -152.498 -97.1318 -305.064 -145.595 -457.62c-6.375 -20.0898 -11.4521 -40.6162 -18.2295 -60.5576c-8.24707 -24.2832 -30.7266 -37.0684 -56.3535 -36.0117c-22.4453 0.930664 -45.5908 0.207031 -67.8525 3.46973
c-5.97266 0.873047 -13.29 4.31934 -16.6094 9.00586c-9.72949 13.5771 -20.8145 27.3613 -25.834 42.8564c-14.8291 45.7402 -26.833 92.376 -40.3418 138.553c-4.70996 16.1045 -9.69531 32.2432 -16.208 47.6582c-3.35449 7.94922 -8.68457 14.9902 -15.1748 20.6758
c-24.7656 21.7441 -37.1709 21.3311 -55.1934 -3.65234c-7.9375 -11.0039 -17.8047 -30.7383 -22.2041 -43.5693c-19.7344 -57.5029 -38.8135 -115.235 -57.3535 -173.129c-11.6357 -36.2295 -23.168 -42.3408 -61.6367 -41.4219
c-13.2676 0.321289 -26.5352 -0.230469 -39.8027 -0.322266c-9.62598 -0.0693359 -30.876 -3.71094 -37.7334 4.7666c-1.84961 2.28613 -2.94043 5.06543 -3.99707 7.81055c-14.335 36.9531 -29.5889 73.6299 -41.9141 111.329
c-32.3809 98.9355 -62.7861 198.549 -94.6504 297.656c0 2.48145 -1.91797 5.9502 -2.67578 8.32812c-0.930664 2.89453 -1.86133 5.77734 -2.79199 8.67188c-1.86133 5.77734 -3.7334 11.5547 -5.60547 17.333c-3.74512 11.5557 -7.50098 23.1113 -11.2568 34.6553
c-7.52344 23.0996 -15.0928 46.1875 -22.6621 69.2646s-15.1504 46.165 -22.7197 69.2422c-3.7793 11.5439 -7.57031 23.0879 -11.3379 34.6318c-1.88379 5.77832 -3.76758 11.5449 -5.65137 17.3232c-2.51562 7.70801 -5.01953 14.9561 -4.73242 23.1924
c0.0234375 0.81543 0.103516 1.68848 0.620117 2.32031c2.15918 2.65332 9.02832 2.2168 12.0957 2.49219c4.75586 0.413086 9.52246 0.630859 14.3008 0.700195c18.2754 0.298828 36.5273 -1.0332 54.791 -1.41211c11.6475 -0.298828 24.7764 0.241211 36.4238 0
c26.0859 -0.540039 39.6289 -10.5566 47.0605 -34.2881c23.709 -75.7432 46.4414 -151.819 71.6084 -227.092c8.67285 -25.9482 18.4824 -51.4951 28.5332 -76.9268c4.53711 -11.4756 18.6084 -67.0029 32.6338 -66.4053c3.90527 0.161133 7.38574 2.44727 10.418 4.90527
c15.4033 12.4629 21.5947 30.1641 28.9688 47.8418c9.5 22.7666 16.3691 46.7051 23.3418 70.4365c23.0537 78.6152 45.625 157.402 68.4609 236.075c2.18262 7.48926 3.98633 15.2998 7.50098 22.1572c10.292 20.125 27.6602 27.9932 52.5059 25.7881
c20.9746 -1.86133 33.2998 -12.7852 38.4922 -32.8867c13.0029 -50.3574 25.7422 -100.75 39.5723 -150.878c15.208 -55.1592 31.1055 -110.123 47.4736 -164.938c3.65234 -12.2451 8.29297 -24.3174 14.7021 -35.4131c5.44434 -9.43066 16.6553 -30.3828 28.9922 -29.4404z
" />
    <glyph glyph-name="x" unicode="X" horiz-adv-x="795" 
d="M757.034 706.777c3.37695 -0.505859 4.80078 -5.30273 3.49121 -8.46191c-10.6602 -25.8223 -29.7969 -41.8574 -44.7178 -59.9951c-48.0371 -58.4443 -98.8545 -114.592 -147.972 -172.163c-14.335 -16.8164 -25.6035 -36.1719 -39.9502 -52.9883
c-31.0146 -36.3672 -26.6846 -78.6846 3.3877 -114.029c61.6836 -72.5156 117.107 -150.281 184.729 -217.949c19.7344 -19.7461 36.8838 -42.0186 57.0889 -66.1182c3.33105 -3.97461 1.38965 -10.1201 -3.6416 -11.3838
c-5.8125 -1.45898 -10.5566 -1.73438 -15.5762 -1.76855c-21.2393 -0.149414 -43.248 -2.91797 -64.3721 -1.21777c-23.3291 1.88379 -46.7617 1.02246 -70.1602 1.63086c-20.7676 0.52832 -35.666 9.99316 -47.3936 31.2549
c-15.1973 27.5449 -35.7471 51.6328 -58.376 73.4922c-25.96 25.0752 -41.2949 57.6172 -72.1602 79.0859c-35.7119 24.8574 -66.1631 23.4795 -95.5811 -10.5098c-24.2139 -27.9814 -48.4277 -56.0439 -74.8477 -81.9463
c-109.595 -107.39 -67.668 -91.6641 -161.894 -91.7676c-14.4736 -0.0117188 -34.1846 -1.28711 -48.543 -0.000976562c-10.9238 0.964844 -24.0986 -1.30957 -36.4814 1.40137c-2.95215 0.643555 -4.82422 3.79102 -3.76758 6.62793
c6.74316 18.0684 16.9893 30.4971 28.3613 42.3516c82.3027 85.8516 160.481 175.275 236.145 266.939c22.4219 27.166 23.7998 32.6914 2.66406 65.7617c-13.2783 20.7676 -27.752 40.7432 -43.1787 59.9609c-50.6221 63.0508 -102.151 125.332 -154.003 187.372
c-12.5664 15.0244 -27.8896 27.7861 -40.709 42.6152c-13.8301 16.0127 -8.32812 31.0488 12.4053 32.5996c22.2383 1.67676 44.7412 1.28613 67.0371 0.149414c23.4219 -1.17188 46.9814 -2.94043 69.9775 -7.14453c10.6025 -1.94141 22.5947 -8.09863 29.5439 -16.1396
c28.1426 -32.5186 54.7227 -66.3701 81.6016 -99.957c21.8936 -27.373 41.1914 -56.8135 71.8955 -76.375c21.1123 -13.4395 32.0137 -16.334 53.1035 -0.711914c20.8711 15.4609 40.6514 32.9434 58.3291 51.9189c38.251 41.0537 75.0195 83.4971 112.076 125.631
c13.4395 15.3115 25.248 21.0547 46.418 23.4092c33.1738 3.76758 70 3.70996 105.069 -1.57422z" />
    <glyph glyph-name="x" unicode="x" horiz-adv-x="795" 
d="M757.034 706.777c3.37695 -0.505859 4.80078 -5.30273 3.49121 -8.46191c-10.6602 -25.8223 -29.7969 -41.8574 -44.7178 -59.9951c-48.0371 -58.4443 -98.8545 -114.592 -147.972 -172.163c-14.335 -16.8164 -25.6035 -36.1719 -39.9502 -52.9883
c-31.0146 -36.3672 -26.6846 -78.6846 3.3877 -114.029c61.6836 -72.5156 117.107 -150.281 184.729 -217.949c19.7344 -19.7461 36.8838 -42.0186 57.0889 -66.1182c3.33105 -3.97461 1.38965 -10.1201 -3.6416 -11.3838
c-5.8125 -1.45898 -10.5566 -1.73438 -15.5762 -1.76855c-21.2393 -0.149414 -43.248 -2.91797 -64.3721 -1.21777c-23.3291 1.88379 -46.7617 1.02246 -70.1602 1.63086c-20.7676 0.52832 -35.666 9.99316 -47.3936 31.2549
c-15.1973 27.5449 -35.7471 51.6328 -58.376 73.4922c-25.96 25.0752 -41.2949 57.6172 -72.1602 79.0859c-35.7119 24.8574 -66.1631 23.4795 -95.5811 -10.5098c-24.2139 -27.9814 -48.4277 -56.0439 -74.8477 -81.9463
c-109.595 -107.39 -67.668 -91.6641 -161.894 -91.7676c-14.4736 -0.0117188 -34.1846 -1.28711 -48.543 -0.000976562c-10.9238 0.964844 -24.0986 -1.30957 -36.4814 1.40137c-2.95215 0.643555 -4.82422 3.79102 -3.76758 6.62793
c6.74316 18.0684 16.9893 30.4971 28.3613 42.3516c82.3027 85.8516 160.481 175.275 236.145 266.939c22.4219 27.166 23.7998 32.6914 2.66406 65.7617c-13.2783 20.7676 -27.752 40.7432 -43.1787 59.9609c-50.6221 63.0508 -102.151 125.332 -154.003 187.372
c-12.5664 15.0244 -27.8896 27.7861 -40.709 42.6152c-13.8301 16.0127 -8.32812 31.0488 12.4053 32.5996c22.2383 1.67676 44.7412 1.28613 67.0371 0.149414c23.4219 -1.17188 46.9814 -2.94043 69.9775 -7.14453c10.6025 -1.94141 22.5947 -8.09863 29.5439 -16.1396
c28.1426 -32.5186 54.7227 -66.3701 81.6016 -99.957c21.8936 -27.373 41.1914 -56.8135 71.8955 -76.375c21.1123 -13.4395 32.0137 -16.334 53.1035 -0.711914c20.8711 15.4609 40.6514 32.9434 58.3291 51.9189c38.251 41.0537 75.0195 83.4971 112.076 125.631
c13.4395 15.3115 25.248 21.0547 46.418 23.4092c33.1738 3.76758 70 3.70996 105.069 -1.57422z" />
    <glyph glyph-name="y" unicode="Y" horiz-adv-x="741" 
d="M14.6416 676.647c-4.3418 4.70996 -5.07617 12.1953 -0.791992 16.9619c5.16895 5.75488 12.4512 6.61621 20.1475 6.54688c42.0645 -0.378906 84.1406 -0.504883 126.159 -1.5957c18.0684 -0.458984 32.2656 -9.95898 43.373 -23.2031
c27.1201 -32.2891 53.126 -65.4971 81.1885 -97.0049c23.0312 -25.834 48.3828 -49.7266 72.7578 -74.4688c9.43066 -9.5918 20.125 -11.3037 31.8301 -4.11328c14.2207 8.75293 30.7959 15.5186 42.0186 27.04c45.7168 46.8428 90.4346 94.6279 134.199 143.147
c21.8252 24.2139 45.1777 41.2031 80.7861 37.9756c20.8486 -1.89551 42.0879 0.321289 63.0283 -0.964844c3.76758 -0.241211 7.48926 -1.43555 11.5322 -3.07812c8.05176 -3.27344 10.7051 -13.4512 5.43262 -20.3662
c-10.1777 -13.3818 -19.1943 -25.4541 -29.1191 -36.8027c-48.0723 -54.918 -96.7764 -109.308 -145.032 -164.076c-27.0742 -30.7266 -54.459 -61.2354 -80.373 -92.8701c-14.7715 -18.0342 -22.7891 -38.791 -22.1689 -63.0391
c1.44727 -54.3438 0.183594 -108.733 1.51562 -163.077c0.976562 -40.2148 5.25 -103.483 7.11133 -143.664c1.12598 -24.2715 -2.61914 -15.415 -39.8359 -18.3438c-10.3154 -0.81543 -20.6992 -0.171875 -31.0146 0.655273
c-15.3008 1.22949 -30.4287 -0.482422 -45.6719 -0.115234c-8.56934 0.207031 -17.1611 1.52832 -25.7422 0.678711c-4.35352 -0.436523 -8.75293 -0.757812 -13.1523 -0.803711c-4.06641 -0.0458984 -9.06348 -0.0693359 -11.1768 4.05469
c-1.96387 3.83691 -1.45801 9.12109 -1.35449 13.2559c0.241211 9.26953 0.918945 18.5283 1.29785 27.7979c3.2627 80.8555 0.631836 161.837 -0.333008 242.761c-0.25293 22.457 -0.735352 46.5674 -9.15527 66.8301c-9.41895 22.709 -26.4648 43.0635 -42.8223 62.4189
c-54.4355 64.498 -109.963 128.135 -165.26 191.978c-13.3936 15.4609 -27.4072 30.4512 -41.168 45.5908c-6.16797 6.8457 -12.4053 13.6113 -18.2061 19.8945z" />
    <glyph glyph-name="y" unicode="&#x178;" horiz-adv-x="741" 
d="M14.6416 676.647c-4.3418 4.70996 -5.07617 12.1953 -0.791992 16.9619c5.16895 5.75488 12.4512 6.61621 20.1475 6.54688c42.0645 -0.378906 84.1406 -0.504883 126.159 -1.5957c18.0684 -0.458984 32.2656 -9.95898 43.373 -23.2031
c27.1201 -32.2891 53.126 -65.4971 81.1885 -97.0049c23.0312 -25.834 48.3828 -49.7266 72.7578 -74.4688c9.43066 -9.5918 20.125 -11.3037 31.8301 -4.11328c14.2207 8.75293 30.7959 15.5186 42.0186 27.04c45.7168 46.8428 90.4346 94.6279 134.199 143.147
c21.8252 24.2139 45.1777 41.2031 80.7861 37.9756c20.8486 -1.89551 42.0879 0.321289 63.0283 -0.964844c3.76758 -0.241211 7.48926 -1.43555 11.5322 -3.07812c8.05176 -3.27344 10.7051 -13.4512 5.43262 -20.3662
c-10.1777 -13.3818 -19.1943 -25.4541 -29.1191 -36.8027c-48.0723 -54.918 -96.7764 -109.308 -145.032 -164.076c-27.0742 -30.7266 -54.459 -61.2354 -80.373 -92.8701c-14.7715 -18.0342 -22.7891 -38.791 -22.1689 -63.0391
c1.44727 -54.3438 0.183594 -108.733 1.51562 -163.077c0.976562 -40.2148 5.25 -103.483 7.11133 -143.664c1.12598 -24.2715 -2.61914 -15.415 -39.8359 -18.3438c-10.3154 -0.81543 -20.6992 -0.171875 -31.0146 0.655273
c-15.3008 1.22949 -30.4287 -0.482422 -45.6719 -0.115234c-8.56934 0.207031 -17.1611 1.52832 -25.7422 0.678711c-4.35352 -0.436523 -8.75293 -0.757812 -13.1523 -0.803711c-4.06641 -0.0458984 -9.06348 -0.0693359 -11.1768 4.05469
c-1.96387 3.83691 -1.45801 9.12109 -1.35449 13.2559c0.241211 9.26953 0.918945 18.5283 1.29785 27.7979c3.2627 80.8555 0.631836 161.837 -0.333008 242.761c-0.25293 22.457 -0.735352 46.5674 -9.15527 66.8301c-9.41895 22.709 -26.4648 43.0635 -42.8223 62.4189
c-54.4355 64.498 -109.963 128.135 -165.26 191.978c-13.3936 15.4609 -27.4072 30.4512 -41.168 45.5908c-6.16797 6.8457 -12.4053 13.6113 -18.2061 19.8945z" />
    <glyph glyph-name="y" unicode="&#xff;" horiz-adv-x="741" 
d="M14.6416 676.647c-4.3418 4.70996 -5.07617 12.1953 -0.791992 16.9619c5.16895 5.75488 12.4512 6.61621 20.1475 6.54688c42.0645 -0.378906 84.1406 -0.504883 126.159 -1.5957c18.0684 -0.458984 32.2656 -9.95898 43.373 -23.2031
c27.1201 -32.2891 53.126 -65.4971 81.1885 -97.0049c23.0312 -25.834 48.3828 -49.7266 72.7578 -74.4688c9.43066 -9.5918 20.125 -11.3037 31.8301 -4.11328c14.2207 8.75293 30.7959 15.5186 42.0186 27.04c45.7168 46.8428 90.4346 94.6279 134.199 143.147
c21.8252 24.2139 45.1777 41.2031 80.7861 37.9756c20.8486 -1.89551 42.0879 0.321289 63.0283 -0.964844c3.76758 -0.241211 7.48926 -1.43555 11.5322 -3.07812c8.05176 -3.27344 10.7051 -13.4512 5.43262 -20.3662
c-10.1777 -13.3818 -19.1943 -25.4541 -29.1191 -36.8027c-48.0723 -54.918 -96.7764 -109.308 -145.032 -164.076c-27.0742 -30.7266 -54.459 -61.2354 -80.373 -92.8701c-14.7715 -18.0342 -22.7891 -38.791 -22.1689 -63.0391
c1.44727 -54.3438 0.183594 -108.733 1.51562 -163.077c0.976562 -40.2148 5.25 -103.483 7.11133 -143.664c1.12598 -24.2715 -2.61914 -15.415 -39.8359 -18.3438c-10.3154 -0.81543 -20.6992 -0.171875 -31.0146 0.655273
c-15.3008 1.22949 -30.4287 -0.482422 -45.6719 -0.115234c-8.56934 0.207031 -17.1611 1.52832 -25.7422 0.678711c-4.35352 -0.436523 -8.75293 -0.757812 -13.1523 -0.803711c-4.06641 -0.0458984 -9.06348 -0.0693359 -11.1768 4.05469
c-1.96387 3.83691 -1.45801 9.12109 -1.35449 13.2559c0.241211 9.26953 0.918945 18.5283 1.29785 27.7979c3.2627 80.8555 0.631836 161.837 -0.333008 242.761c-0.25293 22.457 -0.735352 46.5674 -9.15527 66.8301c-9.41895 22.709 -26.4648 43.0635 -42.8223 62.4189
c-54.4355 64.498 -109.963 128.135 -165.26 191.978c-13.3936 15.4609 -27.4072 30.4512 -41.168 45.5908c-6.16797 6.8457 -12.4053 13.6113 -18.2061 19.8945z" />
    <glyph glyph-name="y" unicode="y" horiz-adv-x="741" 
d="M14.6416 676.647c-4.3418 4.70996 -5.07617 12.1953 -0.791992 16.9619c5.16895 5.75488 12.4512 6.61621 20.1475 6.54688c42.0645 -0.378906 84.1406 -0.504883 126.159 -1.5957c18.0684 -0.458984 32.2656 -9.95898 43.373 -23.2031
c27.1201 -32.2891 53.126 -65.4971 81.1885 -97.0049c23.0312 -25.834 48.3828 -49.7266 72.7578 -74.4688c9.43066 -9.5918 20.125 -11.3037 31.8301 -4.11328c14.2207 8.75293 30.7959 15.5186 42.0186 27.04c45.7168 46.8428 90.4346 94.6279 134.199 143.147
c21.8252 24.2139 45.1777 41.2031 80.7861 37.9756c20.8486 -1.89551 42.0879 0.321289 63.0283 -0.964844c3.76758 -0.241211 7.48926 -1.43555 11.5322 -3.07812c8.05176 -3.27344 10.7051 -13.4512 5.43262 -20.3662
c-10.1777 -13.3818 -19.1943 -25.4541 -29.1191 -36.8027c-48.0723 -54.918 -96.7764 -109.308 -145.032 -164.076c-27.0742 -30.7266 -54.459 -61.2354 -80.373 -92.8701c-14.7715 -18.0342 -22.7891 -38.791 -22.1689 -63.0391
c1.44727 -54.3438 0.183594 -108.733 1.51562 -163.077c0.976562 -40.2148 5.25 -103.483 7.11133 -143.664c1.12598 -24.2715 -2.61914 -15.415 -39.8359 -18.3438c-10.3154 -0.81543 -20.6992 -0.171875 -31.0146 0.655273
c-15.3008 1.22949 -30.4287 -0.482422 -45.6719 -0.115234c-8.56934 0.207031 -17.1611 1.52832 -25.7422 0.678711c-4.35352 -0.436523 -8.75293 -0.757812 -13.1523 -0.803711c-4.06641 -0.0458984 -9.06348 -0.0693359 -11.1768 4.05469
c-1.96387 3.83691 -1.45801 9.12109 -1.35449 13.2559c0.241211 9.26953 0.918945 18.5283 1.29785 27.7979c3.2627 80.8555 0.631836 161.837 -0.333008 242.761c-0.25293 22.457 -0.735352 46.5674 -9.15527 66.8301c-9.41895 22.709 -26.4648 43.0635 -42.8223 62.4189
c-54.4355 64.498 -109.963 128.135 -165.26 191.978c-13.3936 15.4609 -27.4072 30.4512 -41.168 45.5908c-6.16797 6.8457 -12.4053 13.6113 -18.2061 19.8945z" />
    <glyph glyph-name="z" unicode="Z" horiz-adv-x="725" 
d="M90.1816 708.34l584.569 -0.00390625c6.5127 0 12.1641 -4.56055 13.623 -10.9131c3.14746 -13.7266 -2.72266 -25.2021 -11.5557 -37.4473c-46.6016 -64.5322 -91.8359 -129.961 -138.139 -194.677c-50.2197 -70.1953 -101.267 -139.851 -151.532 -210.034
c-14.9785 -20.8945 -28.3721 -42.3057 -26.6602 -69.8398c1.08008 -17.2646 8.17871 -28.7402 24.7998 -32.6338c22.7441 -5.30664 45.9814 -11.2793 69.1621 -11.877c60.0293 -1.58496 120.15 -0.401367 180.215 -0.332031
c9.79785 0.0234375 19.5615 0.195312 29.3369 -0.0224609c14.7949 -0.333008 24.3174 -7.46582 24.5703 -21.7783c0.482422 -29.3828 0.849609 -58.835 -0.942383 -88.1377c-1.03418 -16.4834 -13.0264 -25.4541 -30.6123 -27.1309
c-8.31641 -0.78125 -16.7705 -0.207031 -25.1328 -0.207031c-166.293 -0.0576172 -332.575 0.0683594 -498.846 -0.483398c-20.6533 -0.0693359 -41.1914 -0.540039 -61.8672 -0.0234375c-14.2324 0.356445 -25.168 -2.51562 -35.4023 0.597656
c-4.7207 1.43555 -8.06348 5.75488 -9.00586 10.6025c-2.84863 14.5654 2.53906 26.1328 11.7402 38.2285c48.2324 63.3955 95.3281 127.583 143.032 191.369c57.4111 76.7432 115.281 153.153 172.302 230.148c10.3721 14.0137 18.6426 29.7158 26.0518 45.418
c12.6123 26.6836 2.18262 47.21 -27.5225 53.4932c-18.8379 3.98633 -38.3076 6.92676 -57.5361 7.2832c-60.0752 1.09082 -120.186 0.470703 -180.25 1.02246c-32.1973 0.310547 -43.9482 9.20117 -44.752 39.5381c-0.701172 26.293 -8.12207 54.1025 8.30371 80.959
c2.57324 4.2041 7.11035 6.88086 12.0498 6.88086z" />
    <glyph glyph-name="z" unicode="z" horiz-adv-x="725" 
d="M90.1816 708.34l584.569 -0.00390625c6.5127 0 12.1641 -4.56055 13.623 -10.9131c3.14746 -13.7266 -2.72266 -25.2021 -11.5557 -37.4473c-46.6016 -64.5322 -91.8359 -129.961 -138.139 -194.677c-50.2197 -70.1953 -101.267 -139.851 -151.532 -210.034
c-14.9785 -20.8945 -28.3721 -42.3057 -26.6602 -69.8398c1.08008 -17.2646 8.17871 -28.7402 24.7998 -32.6338c22.7441 -5.30664 45.9814 -11.2793 69.1621 -11.877c60.0293 -1.58496 120.15 -0.401367 180.215 -0.332031
c9.79785 0.0234375 19.5615 0.195312 29.3369 -0.0224609c14.7949 -0.333008 24.3174 -7.46582 24.5703 -21.7783c0.482422 -29.3828 0.849609 -58.835 -0.942383 -88.1377c-1.03418 -16.4834 -13.0264 -25.4541 -30.6123 -27.1309
c-8.31641 -0.78125 -16.7705 -0.207031 -25.1328 -0.207031c-166.293 -0.0576172 -332.575 0.0683594 -498.846 -0.483398c-20.6533 -0.0693359 -41.1914 -0.540039 -61.8672 -0.0234375c-14.2324 0.356445 -25.168 -2.51562 -35.4023 0.597656
c-4.7207 1.43555 -8.06348 5.75488 -9.00586 10.6025c-2.84863 14.5654 2.53906 26.1328 11.7402 38.2285c48.2324 63.3955 95.3281 127.583 143.032 191.369c57.4111 76.7432 115.281 153.153 172.302 230.148c10.3721 14.0137 18.6426 29.7158 26.0518 45.418
c12.6123 26.6836 2.18262 47.21 -27.5225 53.4932c-18.8379 3.98633 -38.3076 6.92676 -57.5361 7.2832c-60.0752 1.09082 -120.186 0.470703 -180.25 1.02246c-32.1973 0.310547 -43.9482 9.20117 -44.752 39.5381c-0.701172 26.293 -8.12207 54.1025 8.30371 80.959
c2.57324 4.2041 7.11035 6.88086 12.0498 6.88086z" />
    <glyph glyph-name="nonbreakingspace" unicode="&#xa0;" horiz-adv-x="291" 
 />
    <glyph glyph-name="exclamdown" unicode="&#xa1;" horiz-adv-x="307" 
d="M91.6777 611.565c-5.11133 2.7334 -10.7627 9.0752 -11.5664 14.4971c-3.40039 21.457 -3.04395 43.293 0.74707 64.7041c2.34375 13.21 7.59277 16.667 21.2617 16.9424c15.3232 0.310547 30.6807 0.0693359 46.0156 0.0693359v-0.0917969
c15.3232 0 30.6807 -0.298828 46.0156 0.0917969c12.0039 0.310547 18.7002 -5.08789 22.583 -16.2871c5.46777 -15.7256 4.35352 -31.4512 2.22852 -47.3486c-0.597656 -4.28418 -2.57324 -8.60352 -2.32031 -12.7734
c1.19434 -18.8379 -9.84473 -27.5566 -25.9258 -32.5996c-35.0117 -10.9814 -67.8066 -3.7334 -99.0391 12.7959zM229.887 55.1377c0.195312 -5.93848 0.242188 -11.9365 0.0703125 -17.875c-0.701172 -24.4092 -5.60645 -28.9463 -29.9355 -32.5645
c-32.749 -4.88184 -65.3135 -5.37598 -97.959 0.125977c-14.0254 2.33203 -14.6338 2.48145 -16.6328 16.2881c-1.94141 13.1748 -3.66406 26.4883 -3.85938 39.7666c-0.769531 53.5742 -0.574219 107.183 -1.33203 160.769
c-1.10254 77.3057 -2.7334 154.623 -4.13477 231.895c-0.103516 5.96191 -0.149414 11.9346 0 17.8848c0.436523 16.1963 2.7334 20.5039 17.5049 24.1338c24.5244 6.06543 49.3701 10.2354 74.8936 6.78906c11.7852 -1.59668 23.915 -1.48145 35.4248 -4.08887
c17.8271 -4.04297 20.8594 -8.22461 21.4336 -25.8916c0.448242 -14.875 0 -29.7734 0 -44.6602v-100.475h0.137695c0 -47.6465 -0.5625 -95.293 0.172852 -142.929c0.666016 -43.0635 2.80273 -86.1045 4.21582 -129.168z" />
    </font>
</defs>
</svg>
